<svg width="371" height="372" viewBox="0 0 371 372" fill="none" xmlns="http://www.w3.org/2000/svg">
<g clip-path="url(#clip0_191_1224)">
<g filter="url(#filter0_b_191_1224)">
<rect x="82" width="300" height="300" rx="24" transform="rotate(16 82 0)" fill="white" fill-opacity="0.06"/>
<rect x="82.3428" y="0.61845" width="299" height="299" rx="23.5" transform="rotate(16 82.3428 0.61845)" stroke="url(#paint0_linear_191_1224)"/>
</g>
<path d="M269.226 91.6134L271.44 92.2484L260.396 106.559L258.527 106.023L256.629 88.0014L258.867 88.6431L260.317 103.265L269.226 91.6134ZM273.603 110.645C269.819 109.56 267.776 105.978 268.847 102.241C269.919 98.5034 273.544 96.5717 277.327 97.6567C281.088 98.7349 283.132 102.317 282.067 106.031C280.995 109.769 277.363 111.724 273.603 110.645ZM274.145 108.753C276.799 109.514 279.292 108.132 280.053 105.479C280.82 102.803 279.438 100.309 276.785 99.5484C274.109 98.781 271.615 100.163 270.854 102.816C270.087 105.492 271.469 107.986 274.145 108.753ZM283.261 113.115L288.103 96.2275L290.064 96.7898L285.222 113.677L283.261 113.115ZM294.39 116.606C291.045 115.647 289.498 112.856 290.457 109.511L292.528 102.29L294.489 102.852L292.511 109.75C291.81 112.196 292.741 114.086 294.933 114.714C297.17 115.356 298.945 114.217 299.64 111.794L301.618 104.896L303.579 105.459L301.508 112.68C300.549 116.025 297.782 117.578 294.39 116.606ZM321.158 110.225C323.788 110.979 324.979 113.443 324.179 116.234L321.896 124.194L319.935 123.631L322.039 116.295C322.687 114.034 322.033 112.398 320.256 111.889C318.434 111.366 316.432 112.69 315.777 114.974L313.799 121.872L311.861 121.316L313.964 113.98C314.613 111.719 313.958 110.083 312.159 109.567C310.336 109.044 308.334 110.368 307.679 112.652L305.701 119.55L303.74 118.987L307.312 106.529L308.72 106.933L308.546 108.756C309.873 107.788 311.538 107.466 313.107 107.916C314.883 108.426 315.986 109.716 316.261 111.367C317.601 110.179 319.451 109.735 321.158 110.225ZM339.078 122.454C339.012 122.685 338.923 122.909 338.833 123.133L328.221 120.09C327.86 122.483 329.153 124.502 331.506 125.176C333.237 125.673 334.852 125.262 335.997 124.142L338.074 124.738C336.278 126.994 333.657 127.865 330.957 127.091C327.335 126.053 325.413 122.481 326.478 118.766C327.537 115.075 331.06 113.064 334.682 114.103C338.465 115.188 340.123 118.809 339.078 122.454ZM334.152 115.948C331.892 115.3 329.797 116.248 328.783 118.304L337.435 120.784C337.654 118.451 336.367 116.583 334.152 115.948Z" fill="white"/>
<path d="M217.936 131.092C217.208 133.629 214.906 134.867 211.982 134.353L211.446 136.222L209.808 135.752L210.344 133.883C207.309 132.713 206.052 130.305 206.879 127.422L208.863 127.991C208.287 129.998 209.525 131.601 211.671 132.216C213.632 132.779 215.482 132.161 215.945 130.546C216.461 128.746 214.774 127.838 212.899 126.801C210.652 125.582 208.102 124.202 209.028 120.972C209.729 118.527 211.909 117.454 214.711 117.958L215.214 116.205L216.921 116.694L216.411 118.47C219.048 119.551 220.13 121.784 219.369 124.437L217.431 123.881C217.961 122.036 216.881 120.577 214.989 120.035C213.12 119.499 211.439 119.966 211.009 121.465C210.532 123.126 212.167 124.044 213.995 125.068C216.305 126.33 218.888 127.769 217.936 131.092ZM222.689 135.276L229.264 137.161L228.748 138.961L218.436 136.004L218.608 135.404C227.708 130.049 228.893 128.965 229.435 127.074C229.885 125.505 229.105 124.133 227.467 123.663C225.783 123.18 224.319 123.934 223.869 125.502L223.763 125.872L221.871 125.329L221.977 124.96C222.751 122.261 225.192 121.063 227.983 121.864C230.729 122.651 232.098 125.016 231.35 127.623C230.742 129.745 229.507 131.089 222.689 135.276ZM242.902 137.701L242.419 139.385L240.804 138.922L239.878 142.152L238.009 141.616L238.935 138.386L231.091 136.137L231.217 135.699L239.963 125.573L241.947 126.142L234.135 135.187L239.441 136.709L241.12 132.072L242.643 132.509L241.287 137.238L242.902 137.701ZM242.944 146.352L243.255 145.268C244.218 145.219 244.733 144.643 245.024 143.628L243.709 143.251L244.403 140.828L246.78 141.51L246.131 143.771C245.602 145.616 244.487 146.37 242.944 146.352ZM256.343 136.387C259.411 137.267 261.004 140.071 260.204 142.862C259.37 145.769 256.554 147.233 253.67 146.407C250.786 145.58 249.239 142.964 249.934 140.192L251.803 140.728C251.415 142.514 252.386 144.091 254.186 144.607C256.008 145.13 257.76 144.159 258.289 142.313C258.818 140.468 257.768 138.643 255.807 138.081L251.885 136.957L251.718 136.584L254.503 129.743L262.186 131.946L261.683 133.699L255.592 131.953L254.036 135.726L256.343 136.387ZM264.779 132.689L275.161 135.666L275.061 136.012L264.717 149.275L262.687 148.693L272.097 136.685L264.276 134.443L264.779 132.689ZM283.366 145.734C284.453 146.819 284.896 148.495 284.426 150.133C283.639 152.878 280.839 154.197 277.632 153.278C274.379 152.345 272.73 149.825 273.537 147.01C273.994 145.418 275.257 144.233 276.814 143.855C276.02 142.878 275.731 141.447 276.115 140.109C276.81 137.687 279.277 136.572 282.184 137.405C285.067 138.232 286.552 140.456 285.851 142.901C285.461 144.262 284.474 145.352 283.366 145.734ZM281.721 139.02C279.921 138.504 278.407 139.169 277.984 140.645C277.554 142.145 278.486 143.51 280.285 144.026C282.038 144.529 283.552 143.865 283.982 142.365C284.406 140.889 283.474 139.523 281.721 139.02ZM278.115 151.594C280.215 152.195 281.996 151.383 282.492 149.653C283.008 147.853 281.898 146.237 279.822 145.641C277.746 145.046 275.948 145.829 275.432 147.628C274.936 149.359 276.016 150.992 278.115 151.594ZM285.165 158.459L285.476 157.374C286.438 157.326 286.953 156.749 287.244 155.734L285.929 155.357L286.624 152.935L289 153.616L288.352 155.877C287.822 157.723 286.708 158.477 285.165 158.459ZM299.601 148.966C302.017 150.033 303.191 152.467 302.47 154.982C301.63 157.912 298.797 159.347 295.867 158.506C293.03 157.693 291.539 155.143 292.201 152.312L294.069 152.848C293.675 154.657 294.607 156.198 296.383 156.707C298.252 157.243 300.01 156.249 300.546 154.38C301.088 152.488 300.025 150.71 298.018 150.135L296.311 149.645L296.417 149.276L301.435 145.098L295.298 143.338L295.801 141.585L304.914 144.198L304.781 144.659L299.601 148.966ZM307.107 159.482L313.683 161.368L313.167 163.167L302.854 160.21L303.026 159.61C312.127 154.255 313.311 153.172 313.854 151.28C314.304 149.711 313.524 148.339 311.886 147.87C310.201 147.387 308.737 148.14 308.287 149.709L308.181 150.078L306.29 149.536L306.395 149.167C307.169 146.467 309.61 145.27 312.402 146.07C315.147 146.857 316.516 149.222 315.769 151.829C315.16 153.952 313.926 155.296 307.107 159.482ZM319.098 148.265L329.48 151.242L329.38 151.588L319.036 164.85L317.006 164.268L326.416 152.261L318.595 150.018L319.098 148.265Z" fill="white"/>
<path d="M296.593 339.824C236.621 296.702 240.922 343.709 211.336 300.118C181.75 256.528 178.77 287.57 164.975 265.371C151.179 243.173 88.3304 298.457 60.6958 263.002C33.0612 227.546 22.9286 207.091 22.9286 207.091L5.90107 266.473L293.939 349.066L296.593 339.824Z" fill="url(#paint1_linear_191_1224)"/>
<path d="M296.593 339.824C236.621 296.702 240.922 343.709 211.336 300.118C181.75 256.528 178.77 287.57 164.975 265.371C151.179 243.173 88.3304 298.457 60.6958 263.002C33.0612 227.546 22.9286 207.091 22.9286 207.091" stroke="#D84B4B" stroke-width="2" stroke-linecap="round"/>
</g>
<defs>
<filter id="filter0_b_191_1224" x="-22.0117" y="-21.3206" width="413.711" height="413.711" filterUnits="userSpaceOnUse" color-interpolation-filters="sRGB">
<feFlood flood-opacity="0" result="BackgroundImageFix"/>
<feGaussianBlur in="BackgroundImageFix" stdDeviation="13.5"/>
<feComposite in2="SourceAlpha" operator="in" result="effect1_backgroundBlur_191_1224"/>
<feBlend mode="normal" in="SourceGraphic" in2="effect1_backgroundBlur_191_1224" result="shape"/>
</filter>
<linearGradient id="paint0_linear_191_1224" x1="379.113" y1="2.18931" x2="88.3277" y2="297.792" gradientUnits="userSpaceOnUse">
<stop stop-color="white"/>
<stop offset="1" stop-color="white" stop-opacity="0"/>
</linearGradient>
<linearGradient id="paint1_linear_191_1224" x1="166.949" y1="248.388" x2="149.922" y2="307.77" gradientUnits="userSpaceOnUse">
<stop stop-color="#D84B4B" stop-opacity="0.53"/>
<stop offset="1" stop-color="#D84B4B" stop-opacity="0"/>
</linearGradient>
<clipPath id="clip0_191_1224">
<rect width="299.627" height="299.816" fill="white" transform="translate(82.7803 0.481934) rotate(16)"/>
</clipPath>
</defs>
</svg>
