<svg width="239" height="300" viewBox="0 0 239 300" fill="none" xmlns="http://www.w3.org/2000/svg">
<g clip-path="url(#clip0_206_9607)">
<g filter="url(#filter0_b_206_9607)">
<rect width="300" height="300" rx="24" fill="white" fill-opacity="0.06"/>
<rect x="0.5" y="0.5" width="299" height="299" rx="23.5" stroke="url(#paint0_linear_206_9607)"/>
</g>
<path d="M45.888 57H43.728L41.544 43.896L35.76 56.592H35.184L29.4 43.896L27.192 57H25.032L27.864 40.2H29.904L35.448 52.536L41.016 40.2H43.104L45.888 57ZM59.9556 44.04H61.5636V57H59.8836L59.6676 55.056C58.4676 56.448 56.6916 57.288 54.5796 57.288C50.7396 57.288 47.8596 54.384 47.8596 50.544C47.8596 46.656 50.7396 43.776 54.5796 43.776C56.6916 43.776 58.4916 44.616 59.6916 46.032L59.9556 44.04ZM54.7236 55.32C57.4836 55.32 59.4756 53.28 59.4756 50.52C59.4756 47.784 57.4836 45.744 54.7236 45.744C51.9876 45.744 49.9476 47.808 49.9476 50.52C49.9476 53.256 51.9876 55.32 54.7236 55.32ZM71.6008 43.992H72.7528V45.912H71.4328C69.0568 45.912 67.7128 47.448 67.7128 49.968V57H65.6728V44.04H67.1368L67.4488 46.032C68.3848 44.688 69.7288 43.992 71.6008 43.992ZM83.4746 57L79.0586 51.192H77.1866V57H75.1466V39.432H77.1866V49.32H79.0826L83.0666 44.04H85.5626L80.8346 50.256L86.0426 57H83.4746ZM99.9647 50.592C99.9647 50.832 99.9407 51.072 99.9167 51.312H88.8767C89.1887 53.712 90.9887 55.296 93.4367 55.296C95.2367 55.296 96.6767 54.456 97.4687 53.064H99.6287C98.5247 55.728 96.2447 57.288 93.4367 57.288C89.6687 57.288 86.8367 54.384 86.8367 50.52C86.8367 46.68 89.6687 43.776 93.4367 43.776C97.3727 43.776 99.9647 46.8 99.9647 50.592ZM93.4367 45.696C91.0847 45.696 89.3327 47.184 88.9247 49.44H97.9247C97.4927 47.136 95.7407 45.696 93.4367 45.696ZM108.244 55.128H109.66V57H107.98C105.196 57 103.468 55.296 103.468 52.488V45.888H101.188V45.528L105.196 41.304H105.508V44.04H109.588V45.888H105.508V52.416C105.508 54.168 106.468 55.128 108.244 55.128ZM126.369 57.264C121.377 57.264 117.753 53.64 117.753 48.624C117.753 43.584 121.377 39.96 126.369 39.96C130.257 39.96 133.377 42.264 134.337 45.888H132.177C131.289 43.464 129.129 42 126.369 42C122.625 42 119.913 44.76 119.913 48.624C119.913 52.488 122.625 55.2 126.369 55.2C129.201 55.2 131.385 53.664 132.273 51.096H134.409C133.449 54.888 130.329 57.264 126.369 57.264ZM148.362 44.04H149.97V57H148.29L148.074 55.056C146.874 56.448 145.098 57.288 142.986 57.288C139.146 57.288 136.266 54.384 136.266 50.544C136.266 46.656 139.146 43.776 142.986 43.776C145.098 43.776 146.898 44.616 148.098 46.032L148.362 44.04ZM143.13 55.32C145.89 55.32 147.882 53.28 147.882 50.52C147.882 47.784 145.89 45.744 143.13 45.744C140.394 45.744 138.354 47.808 138.354 50.52C138.354 53.256 140.394 55.32 143.13 55.32ZM160.967 43.776C164.831 43.776 167.615 46.656 167.615 50.52C167.615 54.384 164.831 57.288 160.967 57.288C159.023 57.288 157.319 56.544 156.119 55.272V61.632H154.079V44.04H155.495L155.903 46.032C157.103 44.616 158.879 43.776 160.967 43.776ZM160.823 55.32C163.559 55.32 165.575 53.28 165.575 50.52C165.575 47.784 163.559 45.744 160.823 45.744C158.063 45.744 156.047 47.808 156.047 50.52C156.047 53.256 158.063 55.32 160.823 55.32Z" fill="white"/>
<path d="M36.576 94.416C36.576 97.056 34.704 98.88 31.752 99.192V101.136H30.048V99.192C26.808 98.904 24.936 96.936 24.936 93.936H27C27 96.024 28.632 97.224 30.864 97.224C32.904 97.224 34.512 96.12 34.512 94.44C34.512 92.568 32.64 92.16 30.552 91.68C28.056 91.128 25.224 90.504 25.224 87.144C25.224 84.6 27.024 82.968 29.856 82.68V80.856H31.632V82.704C34.464 83.016 36.12 84.864 36.12 87.624H34.104C34.104 85.704 32.664 84.6 30.696 84.6C28.752 84.6 27.264 85.512 27.264 87.072C27.264 88.8 29.088 89.232 31.128 89.712C33.696 90.288 36.576 90.96 36.576 94.416ZM38.1469 83.04H43.1629V99H41.2189V84.864H38.1469V83.04ZM57.7562 93.888V95.64H56.0762V99H54.1322V95.64H45.9722V95.184L51.5882 83.04H53.6522L48.6362 93.888H54.1562L54.4922 88.968H56.0762V93.888H57.7562ZM64.5257 88.92C67.7177 88.92 70.0217 91.176 70.0217 94.08C70.0217 97.104 67.7177 99.288 64.7177 99.288C61.7177 99.288 59.5097 97.2 59.4137 94.344H61.3577C61.4777 96.168 62.8457 97.416 64.7177 97.416C66.6137 97.416 68.0297 96 68.0297 94.08C68.0297 92.16 66.5177 90.696 64.4777 90.696H60.3977L60.1337 90.384L60.9257 83.04H68.9177V84.864H62.5817L62.1257 88.92H64.5257ZM72.7911 102.192V101.064C73.7031 100.752 74.0391 100.056 74.0391 99H72.6711V96.48H75.1431V98.832C75.1431 100.752 74.2791 101.784 72.7911 102.192ZM82.9241 88.92C86.1161 88.92 88.4201 91.176 88.4201 94.08C88.4201 97.104 86.1161 99.288 83.1161 99.288C80.1161 99.288 77.9081 97.2 77.8121 94.344H79.7561C79.8761 96.168 81.2441 97.416 83.1161 97.416C85.0121 97.416 86.4281 96 86.4281 94.08C86.4281 92.16 84.9161 90.696 82.8761 90.696H78.7961L78.5321 90.384L79.3241 83.04H87.3161V84.864H80.9801L80.5241 88.92H82.9241ZM90.0141 83.04H100.814V83.4L94.5261 99H92.4141L98.1501 84.864H90.0141V83.04ZM111.476 90.456C112.82 91.2 113.708 92.688 113.708 94.392C113.708 97.248 111.38 99.288 108.044 99.288C104.66 99.288 102.38 97.32 102.38 94.392C102.38 92.736 103.268 91.248 104.66 90.456C103.628 89.736 102.956 88.44 102.956 87.048C102.956 84.528 105.02 82.776 108.044 82.776C111.044 82.776 113.084 84.504 113.084 87.048C113.084 88.464 112.436 89.784 111.476 90.456ZM108.044 84.456C106.172 84.456 104.9 85.512 104.9 87.048C104.9 88.608 106.172 89.664 108.044 89.664C109.868 89.664 111.14 88.608 111.14 87.048C111.14 85.512 109.868 84.456 108.044 84.456ZM108.044 97.536C110.228 97.536 111.716 96.264 111.716 94.464C111.716 92.592 110.204 91.344 108.044 91.344C105.884 91.344 104.372 92.592 104.372 94.464C104.372 96.264 105.86 97.536 108.044 97.536ZM116.713 102.192V101.064C117.625 100.752 117.961 100.056 117.961 99H116.593V96.48H119.065V98.832C119.065 100.752 118.201 101.784 116.713 102.192ZM127.974 89.088C130.59 89.448 132.39 91.464 132.39 94.08C132.39 97.128 130.062 99.288 127.014 99.288C124.062 99.288 121.926 97.248 121.782 94.344H123.726C123.846 96.192 125.166 97.416 127.014 97.416C128.958 97.416 130.374 95.976 130.374 94.032C130.374 92.064 128.862 90.648 126.774 90.648H124.998V90.264L128.67 84.864H122.286V83.04H131.766V83.52L127.974 89.088ZM138.088 97.128H144.928V99H134.2V98.376C141.472 90.72 142.312 89.352 142.312 87.384C142.312 85.752 141.184 84.648 139.48 84.648C137.728 84.648 136.528 85.776 136.528 87.408V87.792H134.56V87.408C134.56 84.6 136.576 82.776 139.48 82.776C142.336 82.776 144.304 84.672 144.304 87.384C144.304 89.592 143.488 91.224 138.088 97.128ZM146.522 83.04H157.322V83.4L151.034 99H148.922L154.658 84.864H146.522V83.04Z" fill="white"/>
<path d="M-14 290.16C55.5344 265.238 38.443 309.238 78.8983 275.492C119.354 241.745 113.661 272.406 133.041 254.87C152.421 237.334 197.597 307.8 233.934 281.335C270.271 254.87 285.649 238 285.649 238V299.775H-13.9971L-14 290.16Z" fill="url(#paint1_linear_206_9607)"/>
<path d="M-14 290.16C55.5344 265.238 38.443 309.238 78.8983 275.492C119.354 241.745 113.661 272.406 133.041 254.87C152.421 237.334 197.597 307.8 233.934 281.335C270.271 254.87 285.649 238 285.649 238" stroke="#58BD7D" stroke-width="2" stroke-linecap="round"/>
</g>
<defs>
<filter id="filter0_b_206_9607" x="-27" y="-27" width="354" height="354" filterUnits="userSpaceOnUse" color-interpolation-filters="sRGB">
<feFlood flood-opacity="0" result="BackgroundImageFix"/>
<feGaussianBlur in="BackgroundImageFix" stdDeviation="13.5"/>
<feComposite in2="SourceAlpha" operator="in" result="effect1_backgroundBlur_206_9607"/>
<feBlend mode="normal" in="SourceGraphic" in2="effect1_backgroundBlur_206_9607" result="shape"/>
</filter>
<linearGradient id="paint0_linear_206_9607" x1="0" y1="300" x2="300" y2="0" gradientUnits="userSpaceOnUse">
<stop stop-color="white"/>
<stop offset="1" stop-color="white" stop-opacity="0"/>
</linearGradient>
<linearGradient id="paint1_linear_206_9607" x1="135.825" y1="238" x2="135.825" y2="299.775" gradientUnits="userSpaceOnUse">
<stop stop-color="#58BD7D" stop-opacity="0.271"/>
<stop offset="1" stop-color="#58BD7D" stop-opacity="0"/>
</linearGradient>
<clipPath id="clip0_206_9607">
<rect width="300" height="300" fill="white"/>
</clipPath>
</defs>
</svg>
