<svg width="484" height="464" viewBox="0 0 484 464" fill="none" xmlns="http://www.w3.org/2000/svg">
<g clip-path="url(#clip0_412_32)">
<g filter="url(#filter0_b_412_32)">
<rect x="195" y="92" width="300" height="300" rx="24" transform="rotate(16 195 92)" fill="white" fill-opacity="0.06"/>
<rect x="195.343" y="92.6184" width="299" height="299" rx="23.5" transform="rotate(16 195.343 92.6184)" stroke="url(#paint0_linear_412_32)"/>
</g>
<path d="M382.226 183.613L384.44 184.248L373.396 198.559L371.527 198.023L369.629 180.001L371.867 180.643L373.317 195.265L382.226 183.613ZM386.603 202.645C382.819 201.56 380.776 197.978 381.847 194.241C382.919 190.503 386.544 188.572 390.327 189.657C394.088 190.735 396.132 194.317 395.067 198.031C393.995 201.769 390.363 203.724 386.603 202.645ZM387.145 200.753C389.799 201.514 392.292 200.132 393.053 197.479C393.82 194.803 392.438 192.309 389.785 191.548C387.109 190.781 384.615 192.163 383.854 194.816C383.087 197.492 384.469 199.986 387.145 200.753ZM396.261 205.115L401.103 188.227L403.064 188.79L398.222 205.677L396.261 205.115ZM407.39 208.606C404.045 207.647 402.498 204.856 403.457 201.511L405.528 194.29L407.489 194.852L405.511 201.75C404.81 204.196 405.741 206.086 407.933 206.714C410.17 207.356 411.945 206.217 412.64 203.794L414.618 196.896L416.579 197.459L414.508 204.68C413.549 208.025 410.782 209.578 407.39 208.606ZM434.158 202.225C436.788 202.979 437.979 205.443 437.179 208.234L434.896 216.194L432.935 215.631L435.039 208.295C435.687 206.034 435.033 204.398 433.256 203.889C431.434 203.366 429.432 204.69 428.777 206.974L426.799 213.872L424.861 213.316L426.964 205.98C427.613 203.719 426.958 202.083 425.159 201.567C423.336 201.044 421.334 202.368 420.679 204.652L418.701 211.55L416.74 210.987L420.312 198.529L421.72 198.933L421.546 200.756C422.873 199.788 424.538 199.466 426.107 199.916C427.883 200.426 428.986 201.716 429.261 203.367C430.601 202.179 432.451 201.735 434.158 202.225ZM452.078 214.454C452.012 214.685 451.923 214.909 451.833 215.133L441.221 212.09C440.86 214.483 442.153 216.502 444.506 217.176C446.237 217.673 447.852 217.262 448.997 216.142L451.074 216.738C449.278 218.994 446.657 219.865 443.957 219.091C440.335 218.053 438.413 214.481 439.478 210.766C440.537 207.075 444.06 205.064 447.682 206.103C451.465 207.188 453.123 210.809 452.078 214.454ZM447.152 207.948C444.892 207.3 442.797 208.248 441.783 210.304L450.435 212.784C450.654 210.451 449.367 208.583 447.152 207.948Z" fill="white"/>
<path d="M330.936 223.092C330.208 225.629 327.906 226.867 324.982 226.353L324.446 228.222L322.808 227.752L323.344 225.883C320.309 224.713 319.052 222.305 319.879 219.422L321.863 219.991C321.287 221.998 322.525 223.601 324.671 224.216C326.632 224.779 328.482 224.161 328.945 222.546C329.461 220.746 327.774 219.838 325.899 218.801C323.652 217.582 321.102 216.202 322.028 212.972C322.729 210.527 324.909 209.454 327.711 209.958L328.214 208.205L329.921 208.694L329.411 210.47C332.048 211.551 333.13 213.784 332.369 216.437L330.431 215.881C330.961 214.036 329.881 212.577 327.989 212.035C326.12 211.499 324.439 211.966 324.009 213.465C323.532 215.126 325.167 216.044 326.995 217.068C329.305 218.33 331.888 219.769 330.936 223.092ZM335.689 227.276L342.264 229.161L341.748 230.961L331.436 228.004L331.608 227.404C340.708 222.049 341.893 220.965 342.435 219.074C342.885 217.505 342.105 216.133 340.467 215.663C338.783 215.18 337.319 215.934 336.869 217.502L336.763 217.872L334.871 217.329L334.977 216.96C335.751 214.261 338.192 213.063 340.983 213.864C343.729 214.651 345.098 217.016 344.35 219.623C343.742 221.745 342.507 223.089 335.689 227.276ZM355.902 229.701L355.419 231.385L353.804 230.922L352.878 234.152L351.009 233.616L351.935 230.386L344.091 228.137L344.217 227.699L352.963 217.573L354.947 218.142L347.135 227.187L352.441 228.709L354.12 224.072L355.643 224.509L354.287 229.238L355.902 229.701ZM355.944 238.352L356.255 237.268C357.218 237.219 357.733 236.643 358.024 235.628L356.709 235.251L357.403 232.828L359.78 233.51L359.131 235.771C358.602 237.616 357.487 238.37 355.944 238.352ZM369.343 228.387C372.411 229.267 374.004 232.071 373.204 234.862C372.37 237.769 369.554 239.233 366.67 238.407C363.786 237.58 362.239 234.964 362.934 232.192L364.803 232.728C364.415 234.514 365.386 236.091 367.186 236.607C369.008 237.13 370.76 236.159 371.289 234.313C371.818 232.468 370.768 230.643 368.807 230.081L364.885 228.957L364.718 228.584L367.503 221.743L375.186 223.946L374.683 225.699L368.592 223.953L367.036 227.726L369.343 228.387ZM377.779 224.689L388.161 227.666L388.061 228.012L377.717 241.275L375.687 240.693L385.097 228.685L377.276 226.443L377.779 224.689ZM396.366 237.734C397.453 238.819 397.896 240.495 397.426 242.133C396.639 244.878 393.839 246.197 390.632 245.278C387.379 244.345 385.73 241.825 386.537 239.01C386.994 237.418 388.257 236.233 389.814 235.855C389.02 234.878 388.731 233.447 389.115 232.109C389.81 229.687 392.277 228.572 395.184 229.405C398.067 230.232 399.552 232.456 398.851 234.901C398.461 236.262 397.474 237.352 396.366 237.734ZM394.721 231.02C392.921 230.504 391.407 231.169 390.984 232.645C390.554 234.145 391.486 235.51 393.285 236.026C395.038 236.529 396.552 235.865 396.982 234.365C397.406 232.889 396.474 231.523 394.721 231.02ZM391.115 243.594C393.215 244.195 394.996 243.383 395.492 241.653C396.008 239.853 394.898 238.237 392.822 237.641C390.746 237.046 388.948 237.829 388.432 239.628C387.936 241.359 389.016 242.992 391.115 243.594ZM398.165 250.459L398.476 249.374C399.438 249.326 399.953 248.749 400.244 247.734L398.929 247.357L399.624 244.935L402 245.616L401.352 247.877C400.822 249.723 399.708 250.477 398.165 250.459ZM412.601 240.966C415.017 242.033 416.191 244.467 415.47 246.982C414.63 249.912 411.797 251.347 408.867 250.506C406.03 249.693 404.539 247.143 405.201 244.312L407.069 244.848C406.675 246.657 407.607 248.198 409.383 248.707C411.252 249.243 413.01 248.249 413.546 246.38C414.088 244.488 413.025 242.71 411.018 242.135L409.311 241.645L409.417 241.276L414.435 237.098L408.298 235.338L408.801 233.585L417.914 236.198L417.781 236.659L412.601 240.966ZM420.107 251.482L426.683 253.368L426.167 255.167L415.854 252.21L416.026 251.61C425.127 246.255 426.311 245.172 426.854 243.28C427.304 241.711 426.524 240.339 424.886 239.87C423.201 239.387 421.737 240.14 421.287 241.709L421.181 242.078L419.29 241.536L419.395 241.167C420.169 238.467 422.61 237.27 425.402 238.07C428.147 238.857 429.516 241.222 428.769 243.829C428.16 245.952 426.926 247.296 420.107 251.482ZM432.098 240.265L442.48 243.242L442.38 243.588L432.036 256.85L430.006 256.268L439.416 244.261L431.595 242.018L432.098 240.265Z" fill="white"/>
<path d="M409.593 431.824C349.621 388.702 353.922 435.709 324.336 392.118C294.75 348.528 291.77 379.57 277.975 357.371C264.179 335.173 201.33 390.457 173.696 355.002C146.061 319.546 135.929 299.091 135.929 299.091L118.901 358.473L406.939 441.066L409.593 431.824Z" fill="url(#paint1_linear_412_32)"/>
<path d="M409.593 431.824C349.621 388.702 353.922 435.709 324.336 392.118C294.75 348.528 291.77 379.57 277.975 357.371C264.179 335.173 201.33 390.457 173.696 355.002C146.061 319.546 135.929 299.091 135.929 299.091" stroke="#D84B4B" stroke-width="2" stroke-linecap="round"/>
</g>
<g clip-path="url(#clip1_412_32)">
<g filter="url(#filter1_b_412_32)">
<rect width="300" height="300" rx="24" fill="white" fill-opacity="0.06"/>
<rect x="0.5" y="0.5" width="299" height="299" rx="23.5" stroke="url(#paint2_linear_412_32)"/>
</g>
<path d="M45.888 57H43.728L41.544 43.896L35.76 56.592H35.184L29.4 43.896L27.192 57H25.032L27.864 40.2H29.904L35.448 52.536L41.016 40.2H43.104L45.888 57ZM59.9556 44.04H61.5636V57H59.8836L59.6676 55.056C58.4676 56.448 56.6916 57.288 54.5796 57.288C50.7396 57.288 47.8596 54.384 47.8596 50.544C47.8596 46.656 50.7396 43.776 54.5796 43.776C56.6916 43.776 58.4916 44.616 59.6916 46.032L59.9556 44.04ZM54.7236 55.32C57.4836 55.32 59.4756 53.28 59.4756 50.52C59.4756 47.784 57.4836 45.744 54.7236 45.744C51.9876 45.744 49.9476 47.808 49.9476 50.52C49.9476 53.256 51.9876 55.32 54.7236 55.32ZM71.6008 43.992H72.7528V45.912H71.4328C69.0568 45.912 67.7128 47.448 67.7128 49.968V57H65.6728V44.04H67.1368L67.4488 46.032C68.3848 44.688 69.7288 43.992 71.6008 43.992ZM83.4746 57L79.0586 51.192H77.1866V57H75.1466V39.432H77.1866V49.32H79.0826L83.0666 44.04H85.5626L80.8346 50.256L86.0426 57H83.4746ZM99.9647 50.592C99.9647 50.832 99.9407 51.072 99.9167 51.312H88.8767C89.1887 53.712 90.9887 55.296 93.4367 55.296C95.2367 55.296 96.6767 54.456 97.4687 53.064H99.6287C98.5247 55.728 96.2447 57.288 93.4367 57.288C89.6687 57.288 86.8367 54.384 86.8367 50.52C86.8367 46.68 89.6687 43.776 93.4367 43.776C97.3727 43.776 99.9647 46.8 99.9647 50.592ZM93.4367 45.696C91.0847 45.696 89.3327 47.184 88.9247 49.44H97.9247C97.4927 47.136 95.7407 45.696 93.4367 45.696ZM108.244 55.128H109.66V57H107.98C105.196 57 103.468 55.296 103.468 52.488V45.888H101.188V45.528L105.196 41.304H105.508V44.04H109.588V45.888H105.508V52.416C105.508 54.168 106.468 55.128 108.244 55.128ZM126.369 57.264C121.377 57.264 117.753 53.64 117.753 48.624C117.753 43.584 121.377 39.96 126.369 39.96C130.257 39.96 133.377 42.264 134.337 45.888H132.177C131.289 43.464 129.129 42 126.369 42C122.625 42 119.913 44.76 119.913 48.624C119.913 52.488 122.625 55.2 126.369 55.2C129.201 55.2 131.385 53.664 132.273 51.096H134.409C133.449 54.888 130.329 57.264 126.369 57.264ZM148.362 44.04H149.97V57H148.29L148.074 55.056C146.874 56.448 145.098 57.288 142.986 57.288C139.146 57.288 136.266 54.384 136.266 50.544C136.266 46.656 139.146 43.776 142.986 43.776C145.098 43.776 146.898 44.616 148.098 46.032L148.362 44.04ZM143.13 55.32C145.89 55.32 147.882 53.28 147.882 50.52C147.882 47.784 145.89 45.744 143.13 45.744C140.394 45.744 138.354 47.808 138.354 50.52C138.354 53.256 140.394 55.32 143.13 55.32ZM160.967 43.776C164.831 43.776 167.615 46.656 167.615 50.52C167.615 54.384 164.831 57.288 160.967 57.288C159.023 57.288 157.319 56.544 156.119 55.272V61.632H154.079V44.04H155.495L155.903 46.032C157.103 44.616 158.879 43.776 160.967 43.776ZM160.823 55.32C163.559 55.32 165.575 53.28 165.575 50.52C165.575 47.784 163.559 45.744 160.823 45.744C158.063 45.744 156.047 47.808 156.047 50.52C156.047 53.256 158.063 55.32 160.823 55.32Z" fill="white"/>
<path d="M36.576 94.416C36.576 97.056 34.704 98.88 31.752 99.192V101.136H30.048V99.192C26.808 98.904 24.936 96.936 24.936 93.936H27C27 96.024 28.632 97.224 30.864 97.224C32.904 97.224 34.512 96.12 34.512 94.44C34.512 92.568 32.64 92.16 30.552 91.68C28.056 91.128 25.224 90.504 25.224 87.144C25.224 84.6 27.024 82.968 29.856 82.68V80.856H31.632V82.704C34.464 83.016 36.12 84.864 36.12 87.624H34.104C34.104 85.704 32.664 84.6 30.696 84.6C28.752 84.6 27.264 85.512 27.264 87.072C27.264 88.8 29.088 89.232 31.128 89.712C33.696 90.288 36.576 90.96 36.576 94.416ZM38.1469 83.04H43.1629V99H41.2189V84.864H38.1469V83.04ZM57.7562 93.888V95.64H56.0762V99H54.1322V95.64H45.9722V95.184L51.5882 83.04H53.6522L48.6362 93.888H54.1562L54.4922 88.968H56.0762V93.888H57.7562ZM64.5257 88.92C67.7177 88.92 70.0217 91.176 70.0217 94.08C70.0217 97.104 67.7177 99.288 64.7177 99.288C61.7177 99.288 59.5097 97.2 59.4137 94.344H61.3577C61.4777 96.168 62.8457 97.416 64.7177 97.416C66.6137 97.416 68.0297 96 68.0297 94.08C68.0297 92.16 66.5177 90.696 64.4777 90.696H60.3977L60.1337 90.384L60.9257 83.04H68.9177V84.864H62.5817L62.1257 88.92H64.5257ZM72.7911 102.192V101.064C73.7031 100.752 74.0391 100.056 74.0391 99H72.6711V96.48H75.1431V98.832C75.1431 100.752 74.2791 101.784 72.7911 102.192ZM82.9241 88.92C86.1161 88.92 88.4201 91.176 88.4201 94.08C88.4201 97.104 86.1161 99.288 83.1161 99.288C80.1161 99.288 77.9081 97.2 77.8121 94.344H79.7561C79.8761 96.168 81.2441 97.416 83.1161 97.416C85.0121 97.416 86.4281 96 86.4281 94.08C86.4281 92.16 84.9161 90.696 82.8761 90.696H78.7961L78.5321 90.384L79.3241 83.04H87.3161V84.864H80.9801L80.5241 88.92H82.9241ZM90.0141 83.04H100.814V83.4L94.5261 99H92.4141L98.1501 84.864H90.0141V83.04ZM111.476 90.456C112.82 91.2 113.708 92.688 113.708 94.392C113.708 97.248 111.38 99.288 108.044 99.288C104.66 99.288 102.38 97.32 102.38 94.392C102.38 92.736 103.268 91.248 104.66 90.456C103.628 89.736 102.956 88.44 102.956 87.048C102.956 84.528 105.02 82.776 108.044 82.776C111.044 82.776 113.084 84.504 113.084 87.048C113.084 88.464 112.436 89.784 111.476 90.456ZM108.044 84.456C106.172 84.456 104.9 85.512 104.9 87.048C104.9 88.608 106.172 89.664 108.044 89.664C109.868 89.664 111.14 88.608 111.14 87.048C111.14 85.512 109.868 84.456 108.044 84.456ZM108.044 97.536C110.228 97.536 111.716 96.264 111.716 94.464C111.716 92.592 110.204 91.344 108.044 91.344C105.884 91.344 104.372 92.592 104.372 94.464C104.372 96.264 105.86 97.536 108.044 97.536ZM116.713 102.192V101.064C117.625 100.752 117.961 100.056 117.961 99H116.593V96.48H119.065V98.832C119.065 100.752 118.201 101.784 116.713 102.192ZM127.974 89.088C130.59 89.448 132.39 91.464 132.39 94.08C132.39 97.128 130.062 99.288 127.014 99.288C124.062 99.288 121.926 97.248 121.782 94.344H123.726C123.846 96.192 125.166 97.416 127.014 97.416C128.958 97.416 130.374 95.976 130.374 94.032C130.374 92.064 128.862 90.648 126.774 90.648H124.998V90.264L128.67 84.864H122.286V83.04H131.766V83.52L127.974 89.088ZM138.088 97.128H144.928V99H134.2V98.376C141.472 90.72 142.312 89.352 142.312 87.384C142.312 85.752 141.184 84.648 139.48 84.648C137.728 84.648 136.528 85.776 136.528 87.408V87.792H134.56V87.408C134.56 84.6 136.576 82.776 139.48 82.776C142.336 82.776 144.304 84.672 144.304 87.384C144.304 89.592 143.488 91.224 138.088 97.128ZM146.522 83.04H157.322V83.4L151.034 99H148.922L154.658 84.864H146.522V83.04Z" fill="white"/>
<path d="M0 266.086C69.5344 241.164 52.443 285.165 92.8983 251.418C133.354 217.672 127.661 248.332 147.041 230.796C166.421 213.26 211.597 283.726 247.934 257.261C284.271 230.797 299.649 213.926 299.649 213.926V275.701H0.00291436L0 266.086Z" fill="url(#paint3_linear_412_32)"/>
<path d="M0 266.086C69.5344 241.164 52.443 285.165 92.8983 251.418C133.354 217.672 127.661 248.332 147.041 230.796C166.421 213.26 211.597 283.726 247.934 257.261C284.271 230.797 299.649 213.926 299.649 213.926" stroke="#58BD7D" stroke-width="2" stroke-linecap="round"/>
</g>
<defs>
<filter id="filter0_b_412_32" x="90.9883" y="70.6794" width="413.711" height="413.711" filterUnits="userSpaceOnUse" color-interpolation-filters="sRGB">
<feFlood flood-opacity="0" result="BackgroundImageFix"/>
<feGaussianBlur in="BackgroundImageFix" stdDeviation="13.5"/>
<feComposite in2="SourceAlpha" operator="in" result="effect1_backgroundBlur_412_32"/>
<feBlend mode="normal" in="SourceGraphic" in2="effect1_backgroundBlur_412_32" result="shape"/>
</filter>
<filter id="filter1_b_412_32" x="-27" y="-27" width="354" height="354" filterUnits="userSpaceOnUse" color-interpolation-filters="sRGB">
<feFlood flood-opacity="0" result="BackgroundImageFix"/>
<feGaussianBlur in="BackgroundImageFix" stdDeviation="13.5"/>
<feComposite in2="SourceAlpha" operator="in" result="effect1_backgroundBlur_412_32"/>
<feBlend mode="normal" in="SourceGraphic" in2="effect1_backgroundBlur_412_32" result="shape"/>
</filter>
<linearGradient id="paint0_linear_412_32" x1="492.113" y1="94.1893" x2="201.328" y2="389.792" gradientUnits="userSpaceOnUse">
<stop stop-color="white"/>
<stop offset="1" stop-color="white" stop-opacity="0"/>
</linearGradient>
<linearGradient id="paint1_linear_412_32" x1="279.949" y1="340.388" x2="262.922" y2="399.77" gradientUnits="userSpaceOnUse">
<stop stop-color="#D84B4B" stop-opacity="0.53"/>
<stop offset="1" stop-color="#D84B4B" stop-opacity="0"/>
</linearGradient>
<linearGradient id="paint2_linear_412_32" x1="0" y1="300" x2="300" y2="0" gradientUnits="userSpaceOnUse">
<stop stop-color="white"/>
<stop offset="1" stop-color="white" stop-opacity="0"/>
</linearGradient>
<linearGradient id="paint3_linear_412_32" x1="149.825" y1="213.926" x2="149.825" y2="275.701" gradientUnits="userSpaceOnUse">
<stop stop-color="#58BD7D" stop-opacity="0.271"/>
<stop offset="1" stop-color="#58BD7D" stop-opacity="0"/>
</linearGradient>
<clipPath id="clip0_412_32">
<rect width="299.627" height="299.816" fill="white" transform="translate(195.78 92.4819) rotate(16)"/>
</clipPath>
<clipPath id="clip1_412_32">
<rect width="300" height="300" fill="white"/>
</clipPath>
</defs>
</svg>
