<svg width="24" height="24" viewBox="0 0 24 24" fill="none" xmlns="http://www.w3.org/2000/svg">
<g clip-path="url(#clip0_1274_351)">
<path d="M20.4 0H3.6C1.61177 0 0 1.61177 0 3.6V20.4C0 22.3882 1.61177 24 3.6 24H20.4C22.3882 24 24 22.3882 24 20.4V3.6C24 1.61177 22.3882 0 20.4 0Z" fill="#ADADAD"/>
<path d="M5.85938 8.10938C5.85938 7.92188 5.76562 7.6875 5.625 7.59375L4.17188 5.8125V5.53125H8.76562L12.2812 13.3125L15.4219 5.53125H19.7812V5.8125L18.5156 7.03125C18.4219 7.07812 18.375 7.21875 18.375 7.35938V16.2656C18.375 16.4062 18.4219 16.5469 18.5156 16.6406L19.7812 17.8125V18.0938H13.5469V17.8125L14.8125 16.5938C14.9531 16.4531 14.9531 16.4062 14.9531 16.2188V9.04688L11.3906 18.0469H10.9219L6.79688 9.04688V15.0938C6.75 15.3281 6.84375 15.6094 7.03125 15.7969L8.67188 17.8125V18.0469H3.98438V17.8125L5.625 15.7969C5.8125 15.6094 5.90625 15.3281 5.85938 15.0938V8.10938Z" fill="#151516"/>
</g>
<defs>
<clipPath id="clip0_1274_351">
<rect width="24" height="24" fill="white"/>
</clipPath>
</defs>
</svg>
