<svg width="676" height="776" viewBox="0 0 676 776" fill="none" xmlns="http://www.w3.org/2000/svg">
<rect x="335" y="776" width="776" height="6" rx="3" transform="rotate(-90 335 776)" fill="#563AFF" fill-opacity="0.25"/>
<rect x="329" y="25" width="18" height="18" rx="9" fill="#563AFF"/>
<rect x="326" y="22" width="24" height="24" rx="12" stroke="white" stroke-opacity="0.15" stroke-width="6"/>
<rect x="329" y="224" width="18" height="18" rx="9" fill="#563AFF"/>
<rect x="326" y="221" width="24" height="24" rx="12" stroke="white" stroke-opacity="0.15" stroke-width="6"/>
<rect x="329" y="622" width="18" height="18" rx="9" fill="#563AFF"/>
<rect x="326" y="619" width="24" height="24" rx="12" stroke="white" stroke-opacity="0.15" stroke-width="6"/>
<rect x="329" y="423" width="18" height="18" rx="9" fill="#563AFF"/>
<rect x="326" y="420" width="24" height="24" rx="12" stroke="white" stroke-opacity="0.15" stroke-width="6"/>
<path d="M396.422 2.3V6.671H390.377V24H385.696V6.671H379.651V2.3H396.422ZM404.909 24.496C399.732 24.496 395.857 20.683 395.857 15.63C395.857 10.577 399.732 6.795 404.909 6.795C410.086 6.795 413.961 10.577 413.961 15.63C413.961 20.683 410.086 24.496 404.909 24.496ZM404.909 20.218C407.513 20.218 409.373 18.358 409.373 15.63C409.373 12.933 407.513 11.042 404.909 11.042C402.305 11.042 400.445 12.933 400.445 15.63C400.445 18.358 402.305 20.218 404.909 20.218ZM433.005 24H427.518L422.155 16.002V24H417.629V1.246H422.155V14.7L427.177 7.26H432.385L426.712 15.258L433.005 24ZM450.574 15.599C450.574 16.033 450.543 16.467 450.481 16.901H437.802C438.205 19.195 439.693 20.466 441.894 20.466C443.475 20.466 444.777 19.722 445.459 18.513H450.202C448.993 22.171 445.8 24.496 441.894 24.496C436.965 24.496 433.214 20.652 433.214 15.63C433.214 10.608 436.934 6.795 441.894 6.795C447.04 6.795 450.574 10.763 450.574 15.599ZM441.894 10.67C439.879 10.67 438.453 11.848 437.926 13.832H446.048C445.397 11.786 443.94 10.67 441.894 10.67ZM463.313 6.888C467.126 6.888 469.513 9.616 469.513 13.863V24H464.987V14.607C464.987 12.065 464.026 10.856 462.073 10.856C459.748 10.856 458.322 12.53 458.322 15.227V24H453.796V7.26H456.896L457.764 9.337C459.035 7.849 461.05 6.888 463.313 6.888ZM483.234 6.888C487.016 6.888 489.372 9.585 489.372 13.832V24H484.846V14.607C484.846 12.096 483.947 10.856 481.932 10.856C479.669 10.856 478.181 12.499 478.181 15.227V24H473.655V1.246H478.181V8.841C479.452 7.632 481.219 6.888 483.234 6.888ZM501.451 24.496C496.274 24.496 492.399 20.683 492.399 15.63C492.399 10.577 496.274 6.795 501.451 6.795C506.628 6.795 510.503 10.577 510.503 15.63C510.503 20.683 506.628 24.496 501.451 24.496ZM501.451 20.218C504.055 20.218 505.915 18.358 505.915 15.63C505.915 12.933 504.055 11.042 501.451 11.042C498.847 11.042 496.987 12.933 496.987 15.63C496.987 18.358 498.847 20.218 501.451 20.218ZM513.768 24V1.246H518.294V24H513.768ZM538.882 15.599C538.882 16.033 538.851 16.467 538.789 16.901H526.11C526.513 19.195 528.001 20.466 530.202 20.466C531.783 20.466 533.085 19.722 533.767 18.513H538.51C537.301 22.171 534.108 24.496 530.202 24.496C525.273 24.496 521.522 20.652 521.522 15.63C521.522 10.608 525.242 6.795 530.202 6.795C535.348 6.795 538.882 10.763 538.882 15.599ZM530.202 10.67C528.187 10.67 526.761 11.848 526.234 13.832H534.356C533.705 11.786 532.248 10.67 530.202 10.67Z" fill="white"/>
<path d="M387.512 60L386.364 57.326H381.184L380.064 60H379.308L383.424 50.2H384.054L388.282 60H387.512ZM383.746 51.194L381.464 56.668H386.084L383.746 51.194ZM396.023 52.44H396.513V58.908C396.513 61.358 395.141 62.842 392.887 62.842C391.151 62.842 389.919 61.946 389.471 60.448H390.157C390.563 61.568 391.599 62.198 392.887 62.198C394.693 62.198 395.841 61.008 395.841 58.992V58.124C395.197 59.118 394.077 59.748 392.747 59.748C390.647 59.748 389.051 58.138 389.051 56.024C389.051 53.91 390.661 52.3 392.747 52.3C394.119 52.3 395.281 52.986 395.911 54.05L396.023 52.44ZM392.803 59.09C394.553 59.09 395.827 57.788 395.827 56.024C395.827 54.26 394.553 52.958 392.803 52.958C391.067 52.958 389.751 54.274 389.751 56.024C389.751 57.774 391.067 59.09 392.803 59.09ZM405.484 52.44H405.974V58.908C405.974 61.358 404.602 62.842 402.348 62.842C400.612 62.842 399.38 61.946 398.932 60.448H399.618C400.024 61.568 401.06 62.198 402.348 62.198C404.154 62.198 405.302 61.008 405.302 58.992V58.124C404.658 59.118 403.538 59.748 402.208 59.748C400.108 59.748 398.512 58.138 398.512 56.024C398.512 53.91 400.122 52.3 402.208 52.3C403.58 52.3 404.742 52.986 405.372 54.05L405.484 52.44ZM402.264 59.09C404.014 59.09 405.288 57.788 405.288 56.024C405.288 54.26 404.014 52.958 402.264 52.958C400.528 52.958 399.212 54.274 399.212 56.024C399.212 57.774 400.528 59.09 402.264 59.09ZM411.837 52.426H412.495V53.07H411.781C410.269 53.07 409.303 54.19 409.303 55.8V60H408.617V52.44H409.121L409.247 53.938C409.751 52.986 410.633 52.426 411.837 52.426ZM420.564 56.206C420.564 56.29 420.55 56.388 420.55 56.472H413.69C413.788 58.236 415.09 59.482 416.812 59.482C418.058 59.482 419.052 58.866 419.612 57.802H420.34C419.64 59.314 418.394 60.154 416.812 60.154C414.642 60.154 413.004 58.46 413.004 56.22C413.004 53.994 414.642 52.3 416.812 52.3C419.024 52.3 420.564 54.008 420.564 56.206ZM416.812 52.944C415.132 52.944 413.872 54.134 413.69 55.828H419.878C419.724 54.092 418.45 52.944 416.812 52.944ZM428.849 52.44H429.339V58.908C429.339 61.358 427.967 62.842 425.713 62.842C423.977 62.842 422.745 61.946 422.297 60.448H422.983C423.389 61.568 424.425 62.198 425.713 62.198C427.519 62.198 428.667 61.008 428.667 58.992V58.124C428.023 59.118 426.903 59.748 425.573 59.748C423.473 59.748 421.877 58.138 421.877 56.024C421.877 53.91 423.487 52.3 425.573 52.3C426.945 52.3 428.107 52.986 428.737 54.05L428.849 52.44ZM425.629 59.09C427.379 59.09 428.653 57.788 428.653 56.024C428.653 54.26 427.379 52.958 425.629 52.958C423.893 52.958 422.577 54.274 422.577 56.024C422.577 57.774 423.893 59.09 425.629 59.09ZM438.59 52.44H439.15V60H438.576L438.492 58.362C437.834 59.454 436.658 60.154 435.202 60.154C432.99 60.154 431.324 58.46 431.324 56.22C431.324 53.98 432.99 52.3 435.202 52.3C436.658 52.3 437.834 53 438.492 54.092L438.59 52.44ZM435.244 59.496C437.106 59.496 438.464 58.11 438.464 56.22C438.464 54.344 437.106 52.958 435.244 52.958C433.41 52.958 432.024 54.372 432.024 56.22C432.024 58.096 433.41 59.496 435.244 59.496ZM444.612 59.37H445.438V60H444.542C443.058 60 442.162 59.104 442.162 57.592V53.07H440.902V52.916L442.708 51.11H442.848V52.44H445.382V53.07H442.848V57.578C442.848 58.712 443.478 59.37 444.612 59.37ZM453.951 56.206C453.951 56.29 453.937 56.388 453.937 56.472H447.077C447.175 58.236 448.477 59.482 450.199 59.482C451.445 59.482 452.439 58.866 452.999 57.802H453.727C453.027 59.314 451.781 60.154 450.199 60.154C448.029 60.154 446.391 58.46 446.391 56.22C446.391 53.994 448.029 52.3 450.199 52.3C452.411 52.3 453.951 54.008 453.951 56.206ZM450.199 52.944C448.519 52.944 447.259 54.134 447.077 55.828H453.265C453.111 54.092 451.837 52.944 450.199 52.944ZM464.873 54.862C465.881 55.212 466.581 56.192 466.581 57.34C466.581 58.824 465.391 60 463.683 60H459.889V50.2H463.655C465.223 50.2 466.301 51.264 466.301 52.622C466.301 53.602 465.713 54.498 464.873 54.862ZM463.711 50.9H460.589V54.54H463.767C464.789 54.54 465.587 53.686 465.587 52.706C465.587 51.684 464.761 50.9 463.711 50.9ZM463.739 59.314C464.943 59.314 465.853 58.418 465.853 57.27C465.853 56.122 464.943 55.226 463.781 55.226H460.589V59.314H463.739ZM474.807 60L472.371 55.884H469.613V60H468.899V50.2H472.511C474.275 50.2 475.563 51.404 475.563 53.056C475.563 54.498 474.569 55.59 473.127 55.842L475.605 60H474.807ZM469.613 50.886V55.212H472.483C473.869 55.212 474.835 54.302 474.835 53.056C474.835 51.796 473.869 50.886 472.483 50.886H469.613ZM482.097 60.154C479.171 60.154 477.085 58.04 477.085 55.114C477.085 52.188 479.185 50.06 482.097 50.06C484.281 50.06 486.017 51.292 486.647 53.28H485.919C485.317 51.698 483.903 50.746 482.097 50.746C479.605 50.746 477.813 52.566 477.813 55.114C477.813 57.662 479.591 59.454 482.097 59.454C483.959 59.454 485.401 58.46 486.003 56.78H486.717C486.087 58.866 484.337 60.154 482.097 60.154ZM489.046 59.37H493.876V60H487.786V59.72C492.266 55.198 492.756 54.372 492.756 53.084C492.756 51.95 491.958 51.18 490.754 51.18C489.522 51.18 488.682 51.978 488.682 53.098V53.336H488.024V53.098C488.024 51.558 489.158 50.55 490.754 50.55C492.336 50.55 493.428 51.586 493.428 53.084C493.428 54.456 492.924 55.394 489.046 59.37ZM498.73 60.154C496.588 60.154 495.23 58.306 495.23 55.352C495.23 52.384 496.574 50.55 498.73 50.55C500.872 50.55 502.216 52.384 502.216 55.352C502.216 58.306 500.858 60.154 498.73 60.154ZM498.73 59.524C500.466 59.524 501.544 57.942 501.544 55.352C501.544 52.762 500.466 51.18 498.73 51.18C496.98 51.18 495.902 52.762 495.902 55.352C495.902 57.942 496.98 59.524 498.73 59.524ZM515.356 60H514.558C514.18 59.608 513.816 59.244 513.494 58.894C512.766 59.692 511.716 60.154 510.456 60.154C508.706 60.154 507.558 59.146 507.558 57.662C507.558 56.192 508.608 55.394 509.728 54.68C508.748 53.434 508.454 52.72 508.454 52.006C508.454 50.816 509.392 50.06 510.764 50.06C512.094 50.06 513.018 50.83 513.018 51.922C513.018 53.35 511.8 54.106 510.624 54.834C511.282 55.646 512.192 56.668 513.41 57.956C513.76 57.368 513.97 56.64 513.97 55.8H514.558C514.558 56.822 514.306 57.718 513.844 58.418C514.306 58.908 514.81 59.44 515.356 60ZM510.764 50.62C509.756 50.62 509.07 51.18 509.07 52.006C509.07 52.566 509.406 53.28 510.246 54.372C511.366 53.7 512.402 53.042 512.402 51.922C512.402 51.152 511.716 50.62 510.764 50.62ZM510.512 59.524C511.548 59.524 512.43 59.132 513.06 58.432C511.744 57.046 510.792 55.982 510.106 55.156C509.084 55.786 508.202 56.472 508.202 57.634C508.202 58.768 509.126 59.524 510.512 59.524ZM521.142 59.342H525.776V60H520.428V50.2H521.142V59.342ZM531.994 50.2V50.872H528.872V60H528.158V50.872H525.036V50.2H531.994ZM537.564 60.154C534.638 60.154 532.552 58.04 532.552 55.114C532.552 52.188 534.652 50.06 537.564 50.06C539.748 50.06 541.484 51.292 542.114 53.28H541.386C540.784 51.698 539.37 50.746 537.564 50.746C535.072 50.746 533.28 52.566 533.28 55.114C533.28 57.662 535.058 59.454 537.564 59.454C539.426 59.454 540.868 58.46 541.47 56.78H542.184C541.554 58.866 539.804 60.154 537.564 60.154ZM544.513 59.37H549.343V60H543.253V59.72C547.733 55.198 548.223 54.372 548.223 53.084C548.223 51.95 547.425 51.18 546.221 51.18C544.989 51.18 544.149 51.978 544.149 53.098V53.336H543.491V53.098C543.491 51.558 544.625 50.55 546.221 50.55C547.803 50.55 548.895 51.586 548.895 53.084C548.895 54.456 548.391 55.394 544.513 59.37ZM554.197 60.154C552.055 60.154 550.697 58.306 550.697 55.352C550.697 52.384 552.041 50.55 554.197 50.55C556.339 50.55 557.683 52.384 557.683 55.352C557.683 58.306 556.325 60.154 554.197 60.154ZM554.197 59.524C555.933 59.524 557.011 57.942 557.011 55.352C557.011 52.762 555.933 51.18 554.197 51.18C552.447 51.18 551.369 52.762 551.369 55.352C551.369 57.942 552.447 59.524 554.197 59.524Z" fill="white"/>
<path d="M122.067 202.3H126.686V224H122.749L112.922 210.453V224H108.334V202.3H112.55L122.067 215.537V202.3ZM144.602 206.671H136.325V211.445H143.796V215.692H136.325V224H131.644V202.3H144.602V206.671ZM163.176 202.3V206.671H157.131V224H152.45V206.671H146.405V202.3H163.176ZM185.774 206.671H177.497V211.445H184.968V215.692H177.497V224H172.816V202.3H185.774V206.671ZM196.759 224.496C191.582 224.496 187.707 220.683 187.707 215.63C187.707 210.577 191.582 206.795 196.759 206.795C201.936 206.795 205.811 210.577 205.811 215.63C205.811 220.683 201.936 224.496 196.759 224.496ZM196.759 220.218C199.363 220.218 201.223 218.358 201.223 215.63C201.223 212.933 199.363 211.042 196.759 211.042C194.155 211.042 192.295 212.933 192.295 215.63C192.295 218.358 194.155 220.218 196.759 220.218ZM217.632 207.167H219.12V211.445H217.136C214.594 211.445 213.602 212.592 213.602 215.32V224H209.076V207.26H211.959L212.765 209.337C213.974 207.849 215.462 207.167 217.632 207.167ZM241.475 202.3H246.156V224H241.475V215.041H233.291V224H228.61V202.3H233.291V210.67H241.475V202.3ZM258.517 224.496C253.34 224.496 249.465 220.683 249.465 215.63C249.465 210.577 253.34 206.795 258.517 206.795C263.694 206.795 267.569 210.577 267.569 215.63C267.569 220.683 263.694 224.496 258.517 224.496ZM258.517 220.218C261.121 220.218 262.981 218.358 262.981 215.63C262.981 212.933 261.121 211.042 258.517 211.042C255.913 211.042 254.053 212.933 254.053 215.63C254.053 218.358 255.913 220.218 258.517 220.218ZM270.834 224V201.246H275.36V224H270.834ZM295.948 215.599C295.948 216.033 295.917 216.467 295.855 216.901H283.176C283.579 219.195 285.067 220.466 287.268 220.466C288.849 220.466 290.151 219.722 290.833 218.513H295.576C294.367 222.171 291.174 224.496 287.268 224.496C282.339 224.496 278.588 220.652 278.588 215.63C278.588 210.608 282.308 206.795 287.268 206.795C292.414 206.795 295.948 210.763 295.948 215.599ZM287.268 210.67C285.253 210.67 283.827 211.848 283.3 213.832H291.422C290.771 211.786 289.314 210.67 287.268 210.67Z" fill="white"/>
<path d="M56.9436 260L55.7956 257.326H50.6156L49.4956 260H48.7396L52.8556 250.2H53.4856L57.7136 260H56.9436ZM53.1776 251.194L50.8956 256.668H55.5156L53.1776 251.194ZM65.4545 252.44H65.9445V258.908C65.9445 261.358 64.5725 262.842 62.3185 262.842C60.5825 262.842 59.3505 261.946 58.9025 260.448H59.5885C59.9945 261.568 61.0305 262.198 62.3185 262.198C64.1245 262.198 65.2725 261.008 65.2725 258.992V258.124C64.6285 259.118 63.5085 259.748 62.1785 259.748C60.0785 259.748 58.4825 258.138 58.4825 256.024C58.4825 253.91 60.0925 252.3 62.1785 252.3C63.5505 252.3 64.7125 252.986 65.3425 254.05L65.4545 252.44ZM62.2345 259.09C63.9845 259.09 65.2585 257.788 65.2585 256.024C65.2585 254.26 63.9845 252.958 62.2345 252.958C60.4985 252.958 59.1825 254.274 59.1825 256.024C59.1825 257.774 60.4985 259.09 62.2345 259.09ZM74.9155 252.44H75.4055V258.908C75.4055 261.358 74.0335 262.842 71.7795 262.842C70.0435 262.842 68.8115 261.946 68.3635 260.448H69.0495C69.4555 261.568 70.4915 262.198 71.7795 262.198C73.5855 262.198 74.7335 261.008 74.7335 258.992V258.124C74.0895 259.118 72.9695 259.748 71.6395 259.748C69.5395 259.748 67.9435 258.138 67.9435 256.024C67.9435 253.91 69.5535 252.3 71.6395 252.3C73.0115 252.3 74.1735 252.986 74.8035 254.05L74.9155 252.44ZM71.6955 259.09C73.4455 259.09 74.7195 257.788 74.7195 256.024C74.7195 254.26 73.4455 252.958 71.6955 252.958C69.9595 252.958 68.6435 254.274 68.6435 256.024C68.6435 257.774 69.9595 259.09 71.6955 259.09ZM81.2684 252.426H81.9264V253.07H81.2124C79.7004 253.07 78.7344 254.19 78.7344 255.8V260H78.0484V252.44H78.5524L78.6784 253.938C79.1824 252.986 80.0644 252.426 81.2684 252.426ZM89.9957 256.206C89.9957 256.29 89.9817 256.388 89.9817 256.472H83.1217C83.2197 258.236 84.5217 259.482 86.2437 259.482C87.4897 259.482 88.4837 258.866 89.0437 257.802H89.7717C89.0717 259.314 87.8257 260.154 86.2437 260.154C84.0737 260.154 82.4357 258.46 82.4357 256.22C82.4357 253.994 84.0737 252.3 86.2437 252.3C88.4557 252.3 89.9957 254.008 89.9957 256.206ZM86.2437 252.944C84.5637 252.944 83.3037 254.134 83.1217 255.828H89.3097C89.1557 254.092 87.8817 252.944 86.2437 252.944ZM98.2807 252.44H98.7707V258.908C98.7707 261.358 97.3987 262.842 95.1447 262.842C93.4087 262.842 92.1767 261.946 91.7287 260.448H92.4147C92.8207 261.568 93.8567 262.198 95.1447 262.198C96.9507 262.198 98.0987 261.008 98.0987 258.992V258.124C97.4547 259.118 96.3347 259.748 95.0047 259.748C92.9047 259.748 91.3087 258.138 91.3087 256.024C91.3087 253.91 92.9187 252.3 95.0047 252.3C96.3767 252.3 97.5387 252.986 98.1687 254.05L98.2807 252.44ZM95.0607 259.09C96.8107 259.09 98.0847 257.788 98.0847 256.024C98.0847 254.26 96.8107 252.958 95.0607 252.958C93.3247 252.958 92.0087 254.274 92.0087 256.024C92.0087 257.774 93.3247 259.09 95.0607 259.09ZM108.022 252.44H108.582V260H108.008L107.924 258.362C107.266 259.454 106.09 260.154 104.634 260.154C102.422 260.154 100.756 258.46 100.756 256.22C100.756 253.98 102.422 252.3 104.634 252.3C106.09 252.3 107.266 253 107.924 254.092L108.022 252.44ZM104.676 259.496C106.538 259.496 107.896 258.11 107.896 256.22C107.896 254.344 106.538 252.958 104.676 252.958C102.842 252.958 101.456 254.372 101.456 256.22C101.456 258.096 102.842 259.496 104.676 259.496ZM114.044 259.37H114.87V260H113.974C112.49 260 111.594 259.104 111.594 257.592V253.07H110.334V252.916L112.14 251.11H112.28V252.44H114.814V253.07H112.28V257.578C112.28 258.712 112.91 259.37 114.044 259.37ZM123.382 256.206C123.382 256.29 123.368 256.388 123.368 256.472H116.508C116.606 258.236 117.908 259.482 119.63 259.482C120.876 259.482 121.87 258.866 122.43 257.802H123.158C122.458 259.314 121.212 260.154 119.63 260.154C117.46 260.154 115.822 258.46 115.822 256.22C115.822 253.994 117.46 252.3 119.63 252.3C121.842 252.3 123.382 254.008 123.382 256.206ZM119.63 252.944C117.95 252.944 116.69 254.134 116.508 255.828H122.696C122.542 254.092 121.268 252.944 119.63 252.944ZM136.181 250.2H136.867V260H136.265L130.021 251.446V260H129.321V250.2H129.965L136.181 258.726V250.2ZM145.086 250.886H140.48V254.778H144.722V255.436H140.48V260H139.766V250.2H145.086V250.886ZM152.781 250.2V250.872H149.659V260H148.945V250.872H145.823V250.2H152.781ZM161.114 260.154C158.86 260.154 157.152 258.474 157.152 256.22C157.152 253.966 158.86 252.3 161.114 252.3C163.382 252.3 165.076 253.98 165.076 256.22C165.076 258.474 163.382 260.154 161.114 260.154ZM161.114 259.496C162.99 259.496 164.376 258.11 164.376 256.22C164.376 254.344 162.99 252.958 161.114 252.958C159.238 252.958 157.852 254.344 157.852 256.234C157.852 258.11 159.252 259.496 161.114 259.496ZM170.58 252.3C172.4 252.3 173.534 253.602 173.534 255.52V260H172.848V255.66C172.848 253.938 171.952 252.93 170.426 252.93C168.97 252.93 167.752 254.176 167.752 255.688V260H167.066V252.44H167.57L167.71 253.98C168.256 252.958 169.334 252.3 170.58 252.3ZM185 254.862C186.008 255.212 186.708 256.192 186.708 257.34C186.708 258.824 185.518 260 183.81 260H180.016V250.2H183.782C185.35 250.2 186.428 251.264 186.428 252.622C186.428 253.602 185.84 254.498 185 254.862ZM183.838 250.9H180.716V254.54H183.894C184.916 254.54 185.714 253.686 185.714 252.706C185.714 251.684 184.888 250.9 183.838 250.9ZM183.866 259.314C185.07 259.314 185.98 258.418 185.98 257.27C185.98 256.122 185.07 255.226 183.908 255.226H180.716V259.314H183.866ZM188.761 250.886V249.92H189.629V250.886H188.761ZM188.859 260V252.44H189.545V260H188.859ZM194.995 259.37H195.821V260H194.925C193.441 260 192.545 259.104 192.545 257.592V253.07H191.285V252.916L193.091 251.11H193.231V252.44H195.765V253.07H193.231V257.578C193.231 258.712 193.861 259.37 194.995 259.37ZM200.666 260.154C198.454 260.154 196.76 258.46 196.76 256.234C196.76 253.98 198.44 252.3 200.666 252.3C202.374 252.3 203.718 253.28 204.236 254.778H203.55C203.046 253.644 201.954 252.958 200.666 252.958C198.832 252.958 197.46 254.372 197.46 256.234C197.46 258.082 198.846 259.496 200.666 259.496C201.954 259.496 203.018 258.81 203.55 257.648H204.25C203.718 259.188 202.346 260.154 200.666 260.154ZM209.39 260.154C207.136 260.154 205.428 258.474 205.428 256.22C205.428 253.966 207.136 252.3 209.39 252.3C211.658 252.3 213.352 253.98 213.352 256.22C213.352 258.474 211.658 260.154 209.39 260.154ZM209.39 259.496C211.266 259.496 212.652 258.11 212.652 256.22C212.652 254.344 211.266 252.958 209.39 252.958C207.514 252.958 206.128 254.344 206.128 256.234C206.128 258.11 207.528 259.496 209.39 259.496ZM215.243 250.886V249.92H216.111V250.886H215.243ZM215.341 260V252.44H216.027V260H215.341ZM222.178 252.3C223.998 252.3 225.132 253.602 225.132 255.52V260H224.446V255.66C224.446 253.938 223.55 252.93 222.024 252.93C220.568 252.93 219.35 254.176 219.35 255.688V260H218.664V252.44H219.168L219.308 253.98C219.854 252.958 220.932 252.3 222.178 252.3ZM238.628 260H237.83C237.452 259.608 237.088 259.244 236.766 258.894C236.038 259.692 234.988 260.154 233.728 260.154C231.978 260.154 230.83 259.146 230.83 257.662C230.83 256.192 231.88 255.394 233 254.68C232.02 253.434 231.726 252.72 231.726 252.006C231.726 250.816 232.664 250.06 234.036 250.06C235.366 250.06 236.29 250.83 236.29 251.922C236.29 253.35 235.072 254.106 233.896 254.834C234.554 255.646 235.464 256.668 236.682 257.956C237.032 257.368 237.242 256.64 237.242 255.8H237.83C237.83 256.822 237.578 257.718 237.116 258.418C237.578 258.908 238.082 259.44 238.628 260ZM234.036 250.62C233.028 250.62 232.342 251.18 232.342 252.006C232.342 252.566 232.678 253.28 233.518 254.372C234.638 253.7 235.674 253.042 235.674 251.922C235.674 251.152 234.988 250.62 234.036 250.62ZM233.784 259.524C234.82 259.524 235.702 259.132 236.332 258.432C235.016 257.046 234.064 255.982 233.378 255.156C232.356 255.786 231.474 256.472 231.474 257.634C231.474 258.768 232.398 259.524 233.784 259.524ZM244.414 259.342H249.048V260H243.7V250.2H244.414V259.342ZM250.572 250.886V249.92H251.44V250.886H250.572ZM250.67 260V252.44H251.356V260H250.67ZM256.806 259.37H257.632V260H256.736C255.252 260 254.356 259.104 254.356 257.592V253.07H253.096V252.916L254.902 251.11H255.042V252.44H257.576V253.07H255.042V257.578C255.042 258.712 255.672 259.37 256.806 259.37ZM266.144 256.206C266.144 256.29 266.13 256.388 266.13 256.472H259.27C259.368 258.236 260.67 259.482 262.392 259.482C263.638 259.482 264.632 258.866 265.192 257.802H265.92C265.22 259.314 263.974 260.154 262.392 260.154C260.222 260.154 258.584 258.46 258.584 256.22C258.584 253.994 260.222 252.3 262.392 252.3C264.604 252.3 266.144 254.008 266.144 256.206ZM262.392 252.944C260.712 252.944 259.452 254.134 259.27 255.828H265.458C265.304 254.092 264.03 252.944 262.392 252.944ZM271.349 260.154C269.137 260.154 267.443 258.46 267.443 256.234C267.443 253.98 269.123 252.3 271.349 252.3C273.057 252.3 274.401 253.28 274.919 254.778H274.233C273.729 253.644 272.637 252.958 271.349 252.958C269.515 252.958 268.143 254.372 268.143 256.234C268.143 258.082 269.529 259.496 271.349 259.496C272.637 259.496 273.701 258.81 274.233 257.648H274.933C274.401 259.188 273.029 260.154 271.349 260.154ZM280.073 260.154C277.819 260.154 276.111 258.474 276.111 256.22C276.111 253.966 277.819 252.3 280.073 252.3C282.341 252.3 284.035 253.98 284.035 256.22C284.035 258.474 282.341 260.154 280.073 260.154ZM280.073 259.496C281.949 259.496 283.335 258.11 283.335 256.22C283.335 254.344 281.949 252.958 280.073 252.958C278.197 252.958 276.811 254.344 276.811 256.234C276.811 258.11 278.211 259.496 280.073 259.496ZM285.927 250.886V249.92H286.795V250.886H285.927ZM286.025 260V252.44H286.711V260H286.025ZM292.861 252.3C294.681 252.3 295.815 253.602 295.815 255.52V260H295.129V255.66C295.129 253.938 294.233 252.93 292.707 252.93C291.251 252.93 290.033 254.176 290.033 255.688V260H289.347V252.44H289.851L289.991 253.98C290.537 252.958 291.615 252.3 292.861 252.3Z" fill="white"/>
<path d="M156.203 622L151.956 614.622H148.949V622H144.268V600.3H153.01C157.35 600.3 160.605 603.307 160.605 607.492C160.605 610.344 159.055 612.638 156.637 613.816L161.442 622H156.203ZM148.949 604.64V610.282H152.7C154.684 610.282 155.831 609.104 155.831 607.461C155.831 605.849 154.684 604.64 152.7 604.64H148.949ZM180.304 613.599C180.304 614.033 180.273 614.467 180.211 614.901H167.532C167.935 617.195 169.423 618.466 171.624 618.466C173.205 618.466 174.507 617.722 175.189 616.513H179.932C178.723 620.171 175.53 622.496 171.624 622.496C166.695 622.496 162.944 618.652 162.944 613.63C162.944 608.608 166.664 604.795 171.624 604.795C176.77 604.795 180.304 608.763 180.304 613.599ZM171.624 608.67C169.609 608.67 168.183 609.848 167.656 611.832H175.778C175.127 609.786 173.67 608.67 171.624 608.67ZM195.801 599.246H200.327V622.031H196.979L196.452 620.636C195.057 621.814 193.259 622.527 191.213 622.527C186.129 622.527 182.409 618.714 182.409 613.661C182.409 608.577 186.129 604.795 191.213 604.795C192.949 604.795 194.499 605.291 195.801 606.19V599.246ZM191.585 618.249C194.22 618.249 196.142 616.265 196.142 613.661C196.142 611.026 194.22 609.073 191.585 609.073C188.95 609.073 187.028 611.026 187.028 613.661C187.028 616.265 188.95 618.249 191.585 618.249ZM218.327 605.26H221.706V622H218.172L217.769 620.481C216.343 621.752 214.483 622.496 212.344 622.496C207.322 622.496 203.571 618.683 203.571 613.63C203.571 608.577 207.322 604.795 212.344 604.795C214.514 604.795 216.405 605.57 217.862 606.841L218.327 605.26ZM212.716 618.218C215.351 618.218 217.273 616.265 217.273 613.63C217.273 610.995 215.351 609.042 212.716 609.042C210.081 609.042 208.159 610.995 208.159 613.63C208.159 616.234 210.081 618.218 212.716 618.218ZM233.871 622.496C228.818 622.496 224.974 618.621 224.974 613.599C224.974 608.577 228.818 604.795 233.902 604.795C238.242 604.795 241.59 607.554 242.396 611.677H237.901C237.188 610.034 235.669 609.042 233.871 609.042C231.422 609.042 229.562 611.026 229.562 613.63C229.562 616.203 231.453 618.218 233.871 618.218C235.7 618.218 237.126 617.226 237.901 615.428H242.458C241.683 619.644 238.242 622.496 233.871 622.496ZM253.558 617.97H255.604V622H252.38C248.691 622 246.428 619.737 246.428 616.048V608.918H243.421V607.926L250.024 600.92H250.892V605.26H255.511V608.918H250.954V615.428C250.954 617.04 251.884 617.97 253.558 617.97ZM274.787 613.599C274.787 614.033 274.756 614.467 274.694 614.901H262.015C262.418 617.195 263.906 618.466 266.107 618.466C267.688 618.466 268.99 617.722 269.672 616.513H274.415C273.206 620.171 270.013 622.496 266.107 622.496C261.178 622.496 257.427 618.652 257.427 613.63C257.427 608.608 261.147 604.795 266.107 604.795C271.253 604.795 274.787 608.763 274.787 613.599ZM266.107 608.67C264.092 608.67 262.666 609.848 262.139 611.832H270.261C269.61 609.786 268.153 608.67 266.107 608.67ZM290.285 599.246H294.811V622.031H291.463L290.936 620.636C289.541 621.814 287.743 622.527 285.697 622.527C280.613 622.527 276.893 618.714 276.893 613.661C276.893 608.577 280.613 604.795 285.697 604.795C287.433 604.795 288.983 605.291 290.285 606.19V599.246ZM286.069 618.249C288.704 618.249 290.626 616.265 290.626 613.661C290.626 611.026 288.704 609.073 286.069 609.073C283.434 609.073 281.512 611.026 281.512 613.661C281.512 616.265 283.434 618.249 286.069 618.249Z" fill="white"/>
<path d="M234.61 658L232.174 653.884H229.416V658H228.702V648.2H232.314C234.078 648.2 235.366 649.404 235.366 651.056C235.366 652.498 234.372 653.59 232.93 653.842L235.408 658H234.61ZM229.416 648.886V653.212H232.286C233.672 653.212 234.638 652.302 234.638 651.056C234.638 649.796 233.672 648.886 232.286 648.886H229.416ZM244.242 654.206C244.242 654.29 244.228 654.388 244.228 654.472H237.368C237.466 656.236 238.768 657.482 240.49 657.482C241.736 657.482 242.73 656.866 243.29 655.802H244.018C243.318 657.314 242.072 658.154 240.49 658.154C238.32 658.154 236.682 656.46 236.682 654.22C236.682 651.994 238.32 650.3 240.49 650.3C242.702 650.3 244.242 652.008 244.242 654.206ZM240.49 650.944C238.81 650.944 237.55 652.134 237.368 653.828H243.556C243.402 652.092 242.128 650.944 240.49 650.944ZM252.639 647.766H253.325V658.014H252.765L252.667 656.432C251.995 657.482 250.833 658.154 249.419 658.154C247.179 658.154 245.541 656.46 245.541 654.234C245.541 651.98 247.179 650.3 249.419 650.3C250.805 650.3 251.967 650.944 252.639 651.966V647.766ZM249.461 657.496C251.309 657.496 252.681 656.096 252.681 654.22C252.681 652.344 251.309 650.958 249.461 650.958C247.627 650.958 246.241 652.358 246.241 654.234C246.241 656.096 247.627 657.496 249.461 657.496ZM262.569 650.44H263.129V658H262.555L262.471 656.362C261.813 657.454 260.637 658.154 259.181 658.154C256.969 658.154 255.303 656.46 255.303 654.22C255.303 651.98 256.969 650.3 259.181 650.3C260.637 650.3 261.813 651 262.471 652.092L262.569 650.44ZM259.223 657.496C261.085 657.496 262.443 656.11 262.443 654.22C262.443 652.344 261.085 650.958 259.223 650.958C257.389 650.958 256.003 652.372 256.003 654.22C256.003 656.096 257.389 657.496 259.223 657.496ZM269.025 658.154C266.813 658.154 265.119 656.46 265.119 654.234C265.119 651.98 266.799 650.3 269.025 650.3C270.733 650.3 272.077 651.28 272.595 652.778H271.909C271.405 651.644 270.313 650.958 269.025 650.958C267.191 650.958 265.819 652.372 265.819 654.234C265.819 656.082 267.205 657.496 269.025 657.496C270.313 657.496 271.377 656.81 271.909 655.648H272.609C272.077 657.188 270.705 658.154 269.025 658.154ZM277.259 657.37H278.085V658H277.189C275.705 658 274.809 657.104 274.809 655.592V651.07H273.549V650.916L275.355 649.11H275.495V650.44H278.029V651.07H275.495V655.578C275.495 656.712 276.125 657.37 277.259 657.37ZM286.597 654.206C286.597 654.29 286.583 654.388 286.583 654.472H279.723C279.821 656.236 281.123 657.482 282.845 657.482C284.091 657.482 285.085 656.866 285.645 655.802H286.373C285.673 657.314 284.427 658.154 282.845 658.154C280.675 658.154 279.037 656.46 279.037 654.22C279.037 651.994 280.675 650.3 282.845 650.3C285.057 650.3 286.597 652.008 286.597 654.206ZM282.845 650.944C281.165 650.944 279.905 652.134 279.723 653.828H285.911C285.757 652.092 284.483 650.944 282.845 650.944ZM294.994 647.766H295.68V658.014H295.12L295.022 656.432C294.35 657.482 293.188 658.154 291.774 658.154C289.534 658.154 287.896 656.46 287.896 654.234C287.896 651.98 289.534 650.3 291.774 650.3C293.16 650.3 294.322 650.944 294.994 651.966V647.766ZM291.816 657.496C293.664 657.496 295.036 656.096 295.036 654.22C295.036 652.344 293.664 650.958 291.816 650.958C289.982 650.958 288.596 652.358 288.596 654.234C288.596 656.096 289.982 657.496 291.816 657.496Z" fill="white"/>
<path d="M408.047 423H403.273L401.134 408.864L394.655 422.969H393.508L387.029 408.864L384.89 423H380.116L383.526 401.3H388.207L394.097 414.63L399.987 401.3H404.699L408.047 423ZM419.107 423.496C413.93 423.496 410.055 419.683 410.055 414.63C410.055 409.577 413.93 405.795 419.107 405.795C424.284 405.795 428.159 409.577 428.159 414.63C428.159 419.683 424.284 423.496 419.107 423.496ZM419.107 419.218C421.711 419.218 423.571 417.358 423.571 414.63C423.571 411.933 421.711 410.042 419.107 410.042C416.503 410.042 414.643 411.933 414.643 414.63C414.643 417.358 416.503 419.218 419.107 419.218ZM440.538 405.795C445.622 405.795 449.342 409.577 449.342 414.661C449.342 419.714 445.622 423.496 440.538 423.496C438.492 423.496 436.694 422.814 435.299 421.605L434.741 423.031H431.424V400.246H435.95V407.19C437.221 406.291 438.802 405.795 440.538 405.795ZM440.166 419.218C442.801 419.218 444.723 417.234 444.723 414.63C444.723 412.026 442.801 410.042 440.166 410.042C437.531 410.042 435.609 412.026 435.609 414.63C435.609 417.234 437.531 419.218 440.166 419.218ZM462.164 405.888C465.946 405.888 468.302 408.585 468.302 412.832V423H463.776V413.607C463.776 411.096 462.877 409.856 460.862 409.856C458.599 409.856 457.111 411.499 457.111 414.227V423H452.585V400.246H457.111V407.841C458.382 406.632 460.149 405.888 462.164 405.888ZM480.38 423.496C475.203 423.496 471.328 419.683 471.328 414.63C471.328 409.577 475.203 405.795 480.38 405.795C485.557 405.795 489.432 409.577 489.432 414.63C489.432 419.683 485.557 423.496 480.38 423.496ZM480.38 419.218C482.984 419.218 484.844 417.358 484.844 414.63C484.844 411.933 482.984 410.042 480.38 410.042C477.776 410.042 475.916 411.933 475.916 414.63C475.916 417.358 477.776 419.218 480.38 419.218ZM492.697 423V400.246H497.223V423H492.697ZM517.811 414.599C517.811 415.033 517.78 415.467 517.718 415.901H505.039C505.442 418.195 506.93 419.466 509.131 419.466C510.712 419.466 512.014 418.722 512.696 417.513H517.439C516.23 421.171 513.037 423.496 509.131 423.496C504.202 423.496 500.451 419.652 500.451 414.63C500.451 409.608 504.171 405.795 509.131 405.795C514.277 405.795 517.811 409.763 517.811 414.599ZM509.131 409.67C507.116 409.67 505.69 410.848 505.163 412.832H513.285C512.634 410.786 511.177 409.67 509.131 409.67Z" fill="white"/>
<path d="M391.558 459H390.83L389.36 450.488L385.734 458.622H385.51L381.884 450.502L380.4 459H379.672L381.38 449.2H382.038L385.608 457.292L389.206 449.2H389.864L391.558 459ZM396.854 459.154C394.6 459.154 392.892 457.474 392.892 455.22C392.892 452.966 394.6 451.3 396.854 451.3C399.122 451.3 400.816 452.98 400.816 455.22C400.816 457.474 399.122 459.154 396.854 459.154ZM396.854 458.496C398.73 458.496 400.116 457.11 400.116 455.22C400.116 453.344 398.73 451.958 396.854 451.958C394.978 451.958 393.592 453.344 393.592 455.234C393.592 457.11 394.992 458.496 396.854 458.496ZM406.712 451.3C408.98 451.3 410.576 452.98 410.576 455.22C410.576 457.46 408.98 459.154 406.712 459.154C405.312 459.154 404.136 458.482 403.45 457.418L403.352 459H402.806V448.766H403.492V452.994C404.164 451.944 405.34 451.3 406.712 451.3ZM406.67 458.496C408.532 458.496 409.876 457.11 409.876 455.22C409.876 453.344 408.532 451.958 406.67 451.958C404.836 451.958 403.45 453.358 403.45 455.22C403.45 457.082 404.836 458.496 406.67 458.496ZM412.484 449.886V448.92H413.352V449.886H412.484ZM412.582 459V451.44H413.268V459H412.582ZM415.904 459V448.766H416.59V459H415.904ZM419.226 459V448.766H419.912V459H419.226ZM429.464 455.206C429.464 455.29 429.45 455.388 429.45 455.472H422.59C422.688 457.236 423.99 458.482 425.712 458.482C426.958 458.482 427.952 457.866 428.512 456.802H429.24C428.54 458.314 427.294 459.154 425.712 459.154C423.542 459.154 421.904 457.46 421.904 455.22C421.904 452.994 423.542 451.3 425.712 451.3C427.924 451.3 429.464 453.008 429.464 455.206ZM425.712 451.944C424.032 451.944 422.772 453.134 422.59 454.828H428.778C428.624 453.092 427.35 451.944 425.712 451.944ZM441.885 451.44H442.445V459H441.871L441.787 457.362C441.129 458.454 439.953 459.154 438.497 459.154C436.285 459.154 434.619 457.46 434.619 455.22C434.619 452.98 436.285 451.3 438.497 451.3C439.953 451.3 441.129 452 441.787 453.092L441.885 451.44ZM438.539 458.496C440.401 458.496 441.759 457.11 441.759 455.22C441.759 453.344 440.401 451.958 438.539 451.958C436.705 451.958 435.319 453.372 435.319 455.22C435.319 457.096 436.705 458.496 438.539 458.496ZM449.013 451.3C451.267 451.3 452.863 452.98 452.863 455.22C452.863 457.46 451.267 459.154 449.013 459.154C447.627 459.154 446.451 458.482 445.779 457.418V461.688H445.093V451.44H445.583L445.737 453.092C446.409 452 447.599 451.3 449.013 451.3ZM448.971 458.496C450.819 458.496 452.177 457.11 452.177 455.22C452.177 453.344 450.819 451.958 448.971 451.958C447.137 451.958 445.751 453.358 445.751 455.22C445.751 457.082 447.137 458.496 448.971 458.496ZM458.789 451.3C461.043 451.3 462.639 452.98 462.639 455.22C462.639 457.46 461.043 459.154 458.789 459.154C457.403 459.154 456.227 458.482 455.555 457.418V461.688H454.869V451.44H455.359L455.513 453.092C456.185 452 457.375 451.3 458.789 451.3ZM458.747 458.496C460.595 458.496 461.953 457.11 461.953 455.22C461.953 453.344 460.595 451.958 458.747 451.958C456.913 451.958 455.527 453.358 455.527 455.22C455.527 457.082 456.913 458.496 458.747 458.496Z" fill="white"/>
</svg>
