<svg width="33" height="33" viewBox="0 0 33 33" fill="none" xmlns="http://www.w3.org/2000/svg">
<path d="M16.3335 1.125C20.3239 4.6554 25.532 6.49355 30.8543 6.25C31.6292 8.88598 31.8663 11.6508 31.5515 14.3803C31.2368 17.1097 30.3765 19.748 29.022 22.1384C27.6674 24.5288 25.8462 26.6225 23.6664 28.2952C21.4867 29.9678 18.993 31.1852 16.3335 31.875C13.674 31.1852 11.1803 29.9678 9.00055 28.2952C6.82083 26.6225 4.99958 24.5288 3.64502 22.1384C2.29045 19.748 1.43023 17.1097 1.11545 14.3803C0.800677 11.6508 1.03778 8.88598 1.81266 6.25C7.13503 6.49355 12.3431 4.6554 16.3335 1.125Z" stroke="#563AFF" stroke-linecap="round" stroke-linejoin="round"/>
</svg>
