<svg width="203" height="56" viewBox="0 0 203 56" fill="none" xmlns="http://www.w3.org/2000/svg">
<g clip-path="url(#clip0_1300_136)">
<path d="M75.7697 14.0839H70.0205V45.7001H90.0057V40.7273H75.7697V14.0839Z" fill="white"/>
<path d="M98.7661 21.8396H93.2451V45.7H98.7661V21.8396Z" fill="white"/>
<path d="M116.811 41.1835C116.036 41.3955 115.145 41.5029 114.141 41.5029C112.681 41.5029 111.647 41.0923 111.041 40.2711C110.431 39.4499 110.128 38.0812 110.128 36.1651V26.4475H118.612V21.8397H110.128V14.6313L104.604 15.5438V36.2107C104.604 37.7914 104.741 39.1976 105.015 40.4294C105.292 41.6612 105.761 42.7105 106.432 43.5773C107.101 44.4442 108.005 45.107 109.146 45.5632C110.287 46.0195 111.709 46.2476 113.413 46.2476C114.812 46.2476 116.028 46.1027 117.061 45.8128C118.097 45.5257 118.934 45.2439 119.571 44.9702L118.658 40.5904C118.202 40.7729 117.587 40.9688 116.811 41.1835Z" fill="white"/>
<path d="M140.881 24.6683C139.875 23.5733 138.667 22.728 137.253 22.1349C135.838 21.5418 134.295 21.2466 132.623 21.2466C130.95 21.2466 129.413 21.5418 128.014 22.1349C126.613 22.728 125.405 23.5733 124.385 24.6683C123.365 25.7632 122.576 27.0782 122.013 28.6132C121.449 30.151 121.17 31.8605 121.17 33.7471C121.17 35.6337 121.449 37.3512 122.013 38.9024C122.576 40.4536 123.36 41.7766 124.361 42.8715C125.365 43.9665 126.567 44.8172 127.969 45.4264C129.367 46.0329 130.918 46.3388 132.623 46.3388C134.327 46.3388 135.884 46.0329 137.298 45.4264C138.713 44.8172 139.92 43.9665 140.927 42.8715C141.931 41.7766 142.706 40.4536 143.254 38.9024C143.802 37.3512 144.075 35.631 144.075 33.7471C144.075 31.8632 143.793 30.151 143.23 28.6132C142.666 27.0782 141.885 25.7632 140.881 24.6683ZM136.888 39.4499C135.868 40.8481 134.445 41.5485 132.623 41.5485C130.8 41.5485 129.375 40.8481 128.355 39.4499C127.335 38.049 126.828 36.149 126.828 33.7471C126.828 31.3452 127.335 29.4962 128.355 28.1114C129.375 26.7293 130.795 26.0369 132.623 26.0369C134.45 26.0369 135.868 26.7293 136.888 28.1114C137.907 29.4962 138.417 31.3747 138.417 33.7471C138.417 36.1194 137.907 38.049 136.888 39.4499Z" fill="white"/>
<path d="M162.85 34.5898C162.256 33.9967 161.502 33.4653 160.59 32.993C159.677 32.5233 158.569 32.043 157.259 31.5572C156.47 31.2835 155.799 31.0151 155.251 30.7575C154.704 30.4999 154.263 30.2422 153.928 29.9819C153.595 29.7243 153.359 29.4425 153.222 29.1392C153.085 28.8333 153.015 28.4844 153.015 28.0899C153.015 27.2982 153.364 26.7132 154.065 26.3321C154.765 25.9537 155.678 25.7632 156.803 25.7632C158.051 25.7632 159.146 25.8759 160.088 26.104C161.033 26.3321 161.808 26.5844 162.415 26.8581L163.419 22.3871C162.78 22.1429 161.822 21.8907 160.544 21.633C159.266 21.3754 157.927 21.2466 156.529 21.2466C153.762 21.2466 151.571 21.8772 149.958 23.1386C148.348 24.4026 147.54 26.1282 147.54 28.318C147.54 29.4425 147.714 30.3925 148.066 31.1681C148.415 31.9437 148.893 32.6065 149.502 33.154C150.111 33.7015 150.833 34.1792 151.671 34.5898C152.508 35.0004 153.426 35.3895 154.43 35.7545C156.072 36.361 157.253 36.9245 157.967 37.4425C158.681 37.9578 159.038 38.6126 159.038 39.4042C159.038 40.255 158.705 40.8561 158.034 41.205C157.366 41.5565 156.301 41.731 154.841 41.731C153.38 41.731 152.081 41.578 150.941 41.2748C149.8 40.9688 148.818 40.6521 147.996 40.3167L147.038 44.9245C147.556 45.1365 148.453 45.4183 149.73 45.7672C151.008 46.1161 152.696 46.2932 154.795 46.2932C157.927 46.2932 160.34 45.7055 162.028 44.5354C163.717 43.3653 164.559 41.6397 164.559 39.3586C164.559 38.2932 164.422 37.3808 164.149 36.6213C163.875 35.8618 163.443 35.1828 162.85 34.5898Z" fill="white"/>
<path d="M186.643 24.3704C185.884 23.4123 184.872 22.6689 183.61 22.1349C182.346 21.6035 180.757 21.3378 178.841 21.3378C178.049 21.3378 177.252 21.413 176.447 21.5659C175.639 21.7162 174.933 21.8987 174.324 22.1134V10.2972L168.803 11.2097V45.7001H174.324V26.7213C174.689 26.5978 175.252 26.4609 176.012 26.3107C176.772 26.1577 177.518 26.0825 178.248 26.0825C179.19 26.0825 179.982 26.2114 180.62 26.469C181.259 26.7293 181.769 27.1399 182.15 27.7008C182.529 28.2644 182.803 28.9943 182.972 29.8907C183.138 30.7897 183.221 31.8766 183.221 33.154V45.7001H188.742V32.2872C188.742 30.6448 188.584 29.1553 188.265 27.8162C187.945 26.477 187.403 25.3284 186.643 24.3704Z" fill="white"/>
<path d="M200.012 21.8396H194.491V45.7H200.012V21.8396Z" fill="white"/>
<path d="M96.007 4.78491C96.007 7.96774 93.433 10.5548 90.2578 10.5548C93.4357 10.5548 96.007 14.3951 96.007 19.1318C96.007 14.3951 98.5809 10.5548 101.753 10.5548C98.5809 10.5548 96.007 7.97042 96.007 4.78491Z" fill="white"/>
<path d="M197.253 19.1291C197.253 14.3924 199.827 10.5521 203 10.5521C199.827 10.5521 197.253 7.96774 197.253 4.78223C197.253 7.96505 194.679 10.5521 191.504 10.5521C194.682 10.5521 197.253 14.3924 197.253 19.1291Z" fill="white"/>
<path d="M34.1218 34.3693C35.1847 33.2931 36.2207 32.2116 37.2326 31.1328C37.5439 30.8 37.8526 30.4672 38.1585 30.1345C38.2122 30.0754 38.2659 30.0164 38.3196 29.9573C38.5531 29.7024 38.7866 29.4474 39.0174 29.1898C39.0899 29.1093 39.165 29.0288 39.2348 28.9483C39.522 28.6316 39.8038 28.3176 40.0857 28.001C41.0761 26.8872 42.0289 25.7789 42.9468 24.6786C43.1025 24.4907 43.2582 24.3029 43.4138 24.1177C46.4253 20.4733 49.0154 16.9523 51.0257 13.748C55.1967 7.0979 56.3374 2.76378 54.4156 0.869118C52.4939 -1.02555 48.1753 0.17405 41.5833 4.43839C38.4055 6.49408 34.9216 9.13212 31.3197 12.1942C31.1372 12.3498 30.952 12.5082 30.7641 12.6692C31.2928 12.7738 31.8135 12.9027 32.3208 13.061C32.4255 13.0932 32.5328 13.1254 32.6375 13.163C33.0777 13.3079 33.5098 13.4716 33.9312 13.6568C33.9715 13.6729 34.0091 13.689 34.0466 13.7078C34.5539 13.9305 35.0424 14.1828 35.5201 14.4565C35.6919 14.3304 35.861 14.2069 36.0301 14.0862C36.779 13.5467 37.5063 13.0476 38.2149 12.5914C41.68 10.3505 43.7118 9.71984 44.7344 9.71984C45.1155 9.71984 45.3571 9.80572 45.4832 9.93185C45.9475 10.3881 45.9314 12.4411 42.9253 17.2341C42.4771 17.948 41.9886 18.6833 41.4599 19.4401C41.3418 19.6118 41.221 19.7809 41.0975 19.9526C39.9676 21.536 38.6739 23.1918 37.2513 24.8852C36.9883 25.1992 36.7226 25.5132 36.4488 25.8299C36.371 25.9211 36.2931 26.0124 36.2126 26.1036C36.006 26.3424 35.7966 26.5813 35.5846 26.8201C35.5201 26.8899 35.4584 26.9624 35.394 27.0348C35.1041 27.3596 34.8116 27.6843 34.5163 28.0117C33.491 29.1361 32.4228 30.266 31.317 31.3877C30.1038 32.6195 28.8799 33.8057 27.664 34.9329C26.4482 33.8057 25.2243 32.6195 24.0111 31.3877C22.9053 30.266 21.8344 29.1361 20.8118 28.0117C20.5165 27.687 20.224 27.3622 19.9341 27.0348C19.8697 26.9651 19.8079 26.8926 19.7435 26.8201C19.5315 26.5813 19.3221 26.3424 19.1181 26.1036C19.0376 26.0124 18.9598 25.9211 18.882 25.8299C18.6109 25.5159 18.3398 25.1992 18.0794 24.8852C16.7079 23.2509 15.4545 21.6514 14.354 20.119C14.2306 19.9473 14.1071 19.7755 13.9863 19.6038C13.4146 18.7906 12.8859 17.9989 12.4054 17.2341C9.39933 12.4411 9.38054 10.3881 9.84488 9.93185C9.97103 9.8084 10.2126 9.71984 10.5937 9.71984C11.6163 9.71984 13.6481 10.3505 17.1132 12.5914C17.8513 13.069 18.6135 13.5924 19.3973 14.1586C19.5664 14.2794 19.7355 14.4028 19.9046 14.529C20.3743 14.2499 20.8601 13.9976 21.3593 13.7695C21.3969 13.7534 21.4371 13.7346 21.4747 13.7185C21.8907 13.5306 22.3175 13.3643 22.7523 13.214C22.857 13.1791 22.9643 13.1442 23.069 13.1093C23.5682 12.9483 24.0809 12.8141 24.6043 12.7041C24.4218 12.5457 24.2392 12.3901 24.0567 12.2344C20.436 9.15359 16.936 6.50213 13.7447 4.43839C7.14476 0.176733 2.82618 -1.02286 0.904428 0.869118C-1.01464 2.76647 0.12338 7.0979 4.29434 13.748C6.34224 17.014 8.99136 20.6048 12.0753 24.3243C12.231 24.5122 12.3893 24.7 12.5477 24.8879C13.4119 25.9184 14.3084 26.957 15.2344 28.001C15.5162 28.3176 15.798 28.6316 16.0852 28.9483C16.155 29.0288 16.2301 29.1093 16.3026 29.1898C16.5334 29.4448 16.7643 29.6997 17.0005 29.9573C17.0541 30.0164 17.1078 30.0754 17.1615 30.1345C17.4675 30.4672 17.7788 30.8 18.0875 31.1328C19.0994 32.2143 20.1381 33.2958 21.1983 34.3693C22.3175 35.5045 23.4421 36.6128 24.564 37.6917C23.0046 39.0254 21.4774 40.2438 20.0146 41.32C19.8428 41.4461 19.6737 41.5696 19.5046 41.6903C18.7558 42.2297 18.0284 42.7289 17.3225 43.1851C12.5692 46.2579 10.5186 46.3035 10.0542 45.8473C9.5899 45.3911 9.606 43.3381 12.6148 38.5424C13.063 37.8285 13.5515 37.0959 14.0802 36.3391C14.1983 36.1673 14.3191 35.9956 14.4426 35.8238C14.1608 35.3515 13.9004 34.8658 13.6723 34.3612C13.6535 34.3237 13.6374 34.2861 13.6186 34.2458C13.4254 33.8165 13.2509 33.379 13.0952 32.9308C13.063 32.8342 13.0308 32.7403 12.9986 32.6437C12.8295 32.1284 12.6899 31.5997 12.5772 31.063C12.4215 31.2509 12.2659 31.436 12.1102 31.6212C9.01015 35.3542 6.34492 38.9637 4.28897 42.2432C0.12338 48.8986 -1.01464 53.2327 0.904428 55.1274C1.49491 55.7098 2.30817 55.9969 3.3442 55.9969C5.68734 55.9969 9.16582 54.5129 13.7367 51.5581C16.987 49.4568 20.5595 46.7437 24.2527 43.5903C24.4352 43.432 24.6204 43.2737 24.8056 43.1153C25.7503 42.2995 26.7059 41.4542 27.6614 40.582C28.633 41.4649 29.5992 42.3237 30.5574 43.1475C30.7453 43.3086 30.9305 43.4696 31.1157 43.6279C34.7928 46.7651 38.3491 49.4649 41.586 51.5581C46.1569 54.5129 49.6354 55.9969 51.9785 55.9969C53.0145 55.9969 53.8305 55.7071 54.4183 55.1274C56.34 53.2327 55.1993 48.8986 51.0284 42.2485C49.01 39.0281 46.4038 35.4911 43.3736 31.8305C43.2206 31.6481 43.0676 31.4629 42.9119 31.275C42.7938 31.8091 42.6462 32.3297 42.4744 32.8423C42.4449 32.9335 42.4127 33.0275 42.3778 33.1187C42.2168 33.5669 42.0369 34.007 41.8356 34.4337C41.8195 34.4686 41.8034 34.5035 41.7873 34.5384C41.5511 35.0375 41.2854 35.5233 40.9982 35.9929C41.1217 36.1647 41.2425 36.3364 41.3579 36.5055C41.8437 37.2032 42.2946 37.8849 42.7079 38.5451C45.714 43.3381 45.7301 45.3911 45.2685 45.85C44.8042 46.3062 42.7509 46.2606 38.0002 43.1878C37.3238 42.7504 36.6287 42.2754 35.9174 41.7628C35.7483 41.642 35.5792 41.5186 35.4074 41.3924C33.9151 40.3029 32.3557 39.0576 30.7614 37.6943C31.886 36.6155 33.0079 35.5072 34.1271 34.372L34.1218 34.3693ZM42.4503 5.77485C47.2171 2.69133 50.293 1.59639 51.9812 1.59639C52.6066 1.59639 53.0441 1.74668 53.3044 2.00162C54.2653 2.94896 53.8171 6.31159 49.6837 12.9027C49.1925 13.6863 48.6665 14.4887 48.1082 15.3072C51.4498 9.85671 52.3167 6.2767 50.6821 4.66382C49.0503 3.05362 45.4886 3.96607 40.0937 7.37163C40.8989 6.80538 41.688 6.27133 42.4556 5.77485H42.4503ZM44.27 18.0768C47.2466 13.3294 48.033 10.2083 46.5998 8.79666C45.1692 7.38505 42.0557 8.21162 37.3506 11.2549C36.9722 11.4991 36.5884 11.7541 36.1992 12.0251C37.6674 10.9114 39.0926 9.9077 40.448 9.03014C45.9717 5.46087 48.8087 5.05832 49.5575 5.79901C50.3091 6.5397 49.9467 9.3817 46.4521 14.953C45.5986 16.3163 44.6163 17.7494 43.5239 19.2307C43.7842 18.8416 44.0312 18.4578 44.27 18.0795V18.0768ZM5.64171 12.9053C1.50833 6.31159 1.0601 2.94896 2.02366 2.00162C2.28133 1.74668 2.71882 1.59639 3.3442 1.59639C5.03244 1.59639 8.10564 2.69133 12.8724 5.77485C13.6454 6.27402 14.4399 6.81075 15.2478 7.37968C9.84756 3.96875 6.28319 3.05362 4.64863 4.66382C3.01138 6.2767 3.87831 9.85402 7.21991 15.3072C6.65895 14.4887 6.13289 13.6863 5.6444 12.9027L5.64171 12.9053ZM8.8679 14.9503C5.37331 9.37901 5.01097 6.53701 5.76249 5.79632C5.95843 5.60042 6.2993 5.48502 6.79852 5.48502C8.19152 5.48502 10.8031 6.39478 14.872 9.02745C16.2275 9.90501 17.65 10.9087 19.1208 12.0224C18.7316 11.7541 18.3478 11.4964 17.9694 11.2522C13.2643 8.20894 10.1535 7.38237 8.72028 8.79398C7.2897 10.2056 8.07343 13.3294 11.05 18.0741C11.2862 18.4525 11.5358 18.8336 11.7962 19.2254C10.7064 17.744 9.7241 16.3109 8.8679 14.9476V14.9503ZM12.8724 50.2244C6.33687 54.4511 2.98185 54.9422 2.02366 53.9949C1.06278 53.0476 1.50833 49.6849 5.6444 43.0939C6.36371 41.9453 7.16086 40.7564 8.02512 39.5326C7.92849 39.6829 7.83187 39.8332 7.74061 39.9808C5.29279 43.8856 4.06351 46.8698 4.06351 48.8986C4.06351 49.846 4.33191 50.584 4.86603 51.1127C5.38941 51.6279 6.10873 51.8856 7.0213 51.8856C9.05309 51.8856 12.0431 50.6135 15.9564 48.0828C16.1067 47.9835 16.2597 47.8869 16.4127 47.7849C15.1968 48.6705 14.0158 49.4864 12.8724 50.2244ZM15.0921 46.749C9.56842 50.321 6.73142 50.7208 5.98258 49.9802C5.23106 49.2395 5.5934 46.3975 9.08799 40.8289C9.93613 39.4763 10.9077 38.0566 11.9867 36.5914C11.7371 36.9671 11.4982 37.3374 11.2701 37.7024C8.29352 42.4498 7.5071 45.5709 8.94036 46.9825C9.39396 47.428 10.0113 47.6507 10.7977 47.6507C12.4967 47.6507 14.9713 46.6068 18.1895 44.5243C18.5572 44.2854 18.9329 44.0358 19.3141 43.7755C17.854 44.8839 16.4395 45.8795 15.0948 46.749H15.0921ZM49.6783 43.0966C53.8144 49.6876 54.2599 53.0503 53.2991 53.9976C52.3382 54.9449 48.9832 54.4511 42.4476 50.2271C41.3096 49.4917 40.1313 48.6786 38.9208 47.7983C39.0711 47.8976 39.216 47.9916 39.3637 48.0882C43.2796 50.6189 46.2669 51.8909 48.2987 51.8909C48.755 51.8909 49.163 51.8265 49.5226 51.6977C49.8823 51.5689 50.191 51.3757 50.454 51.118C52.1369 49.4568 51.1706 45.7131 47.5794 39.9862C47.4882 39.8386 47.3915 39.691 47.2949 39.538C48.1592 40.7591 48.9536 41.9506 49.673 43.0992L49.6783 43.0966ZM37.1306 44.5243C40.3487 46.6068 42.8233 47.6507 44.525 47.6507C45.3087 47.6507 45.9288 47.428 46.3797 46.9825C47.8102 45.5709 47.0265 42.4471 44.0499 37.7024C43.8164 37.3294 43.5722 36.951 43.3145 36.5645C44.4016 38.0405 45.3812 39.4709 46.232 40.8289C49.7239 46.4001 50.089 49.2421 49.3375 49.9802C48.5859 50.7208 45.7489 50.3183 40.2279 46.749C38.8805 45.8795 37.4687 44.8839 36.0113 43.7782C36.3898 44.0358 36.7628 44.2854 37.1306 44.5243Z" fill="white"/>
</g>
<defs>
<clipPath id="clip0_1300_136">
<rect width="203" height="56" fill="white"/>
</clipPath>
</defs>
</svg>
