<svg width="1288" height="638" viewBox="0 0 1288 638" fill="none" xmlns="http://www.w3.org/2000/svg">
<circle cx="182" cy="50" r="50" fill="#151516"/>
<circle cx="182" cy="50" r="50" fill="url(#paint0_radial_1274_250)"/>
<circle cx="23.0002" cy="167" r="20" transform="rotate(-7 23.0002 167)" fill="#151516"/>
<circle cx="23.0002" cy="167" r="20" transform="rotate(-7 23.0002 167)" fill="url(#paint1_radial_1274_250)"/>
<circle cx="1156" cy="86" r="86" transform="rotate(90 1156 86)" fill="#151516"/>
<circle cx="1156" cy="86" r="86" transform="rotate(90 1156 86)" fill="url(#paint2_radial_1274_250)"/>
<circle cx="1070" cy="568" r="50" transform="rotate(144 1070 568)" fill="#151516"/>
<circle cx="1070" cy="568" r="50" transform="rotate(144 1070 568)" fill="url(#paint3_radial_1274_250)"/>
<circle cx="124" cy="471" r="81" transform="rotate(-53 124 471)" fill="#151516"/>
<circle cx="124" cy="471" r="81" transform="rotate(-53 124 471)" fill="url(#paint4_radial_1274_250)"/>
<circle cx="1262" cy="292" r="20" transform="rotate(111 1262 292)" fill="#151516"/>
<circle cx="1262" cy="292" r="20" transform="rotate(111 1262 292)" fill="url(#paint5_radial_1274_250)"/>
<defs>
<radialGradient id="paint0_radial_1274_250" cx="0" cy="0" r="1" gradientUnits="userSpaceOnUse" gradientTransform="translate(159.778 24.0741) rotate(59.144) scale(84.3997)">
<stop offset="0.0398896" stop-color="#151516"/>
<stop offset="0.682292" stop-color="#0E0E0E" stop-opacity="0.14"/>
<stop offset="1" stop-color="#E23DBE" stop-opacity="0.85"/>
</radialGradient>
<radialGradient id="paint1_radial_1274_250" cx="0" cy="0" r="1" gradientUnits="userSpaceOnUse" gradientTransform="translate(14.1113 156.63) rotate(59.144) scale(33.7599)">
<stop offset="0.0398896" stop-color="#151516"/>
<stop offset="0.682292" stop-color="#0E0E0E" stop-opacity="0.14"/>
<stop offset="1" stop-color="#E23DBE" stop-opacity="0.85"/>
</radialGradient>
<radialGradient id="paint2_radial_1274_250" cx="0" cy="0" r="1" gradientUnits="userSpaceOnUse" gradientTransform="translate(1117.78 41.4074) rotate(59.144) scale(145.167)">
<stop offset="0.0398896" stop-color="#151516"/>
<stop offset="0.682292" stop-color="#0E0E0E" stop-opacity="0.14"/>
<stop offset="1" stop-color="#E23DBE" stop-opacity="0.85"/>
</radialGradient>
<radialGradient id="paint3_radial_1274_250" cx="0" cy="0" r="1" gradientUnits="userSpaceOnUse" gradientTransform="translate(1047.78 542.074) rotate(59.144) scale(84.3997)">
<stop offset="0.0398896" stop-color="#151516"/>
<stop offset="0.682292" stop-color="#0E0E0E" stop-opacity="0.14"/>
<stop offset="1" stop-color="#FF7A00" stop-opacity="0.85"/>
</radialGradient>
<radialGradient id="paint4_radial_1274_250" cx="0" cy="0" r="1" gradientUnits="userSpaceOnUse" gradientTransform="translate(88 429) rotate(59.144) scale(136.727)">
<stop offset="0.0398896" stop-color="#151516"/>
<stop offset="0.682292" stop-color="#0E0E0E" stop-opacity="0.14"/>
<stop offset="1" stop-color="#FF7A00" stop-opacity="0.85"/>
</radialGradient>
<radialGradient id="paint5_radial_1274_250" cx="0" cy="0" r="1" gradientUnits="userSpaceOnUse" gradientTransform="translate(1253.11 281.63) rotate(59.144) scale(33.7599)">
<stop offset="0.0398896" stop-color="#151516"/>
<stop offset="0.682292" stop-color="#0E0E0E" stop-opacity="0.14"/>
<stop offset="1" stop-color="#E23DBE" stop-opacity="0.85"/>
</radialGradient>
</defs>
</svg>
