<svg width="191" height="52" viewBox="0 0 191 52" fill="none" xmlns="http://www.w3.org/2000/svg">
<g clip-path="url(#clip0_1385_277)">
<path d="M71.1818 10.6499H65.7676V40.325H84.5885V35.6575H71.1818V10.6499Z" fill="#563AFF"/>
<path d="M92.8381 17.9294H87.6387V40.3249H92.8381V17.9294Z" fill="#563AFF"/>
<path d="M109.832 36.0856C109.101 36.2846 108.262 36.3854 107.317 36.3854C105.942 36.3854 104.969 36 104.397 35.2292C103.823 34.4584 103.538 33.1738 103.538 31.3753V22.2544H111.528V17.9294H103.538V11.1637L98.3359 12.0201V31.4181C98.3359 32.9017 98.4648 34.2216 98.7227 35.3778C98.983 36.534 99.4254 37.5189 100.057 38.3325C100.687 39.1461 101.538 39.7682 102.613 40.1964C103.687 40.6247 105.027 40.8388 106.632 40.8388C107.949 40.8388 109.094 40.7027 110.067 40.4307C111.042 40.1612 111.831 39.8967 112.43 39.6398L111.571 35.5289C111.141 35.7002 110.562 35.8841 109.832 36.0856Z" fill="#563AFF"/>
<path d="M132.5 20.5844C131.552 19.5567 130.414 18.7632 129.082 18.2066C127.75 17.6499 126.297 17.3728 124.722 17.3728C123.147 17.3728 121.699 17.6499 120.382 18.2066C119.063 18.7632 117.925 19.5567 116.965 20.5844C116.004 21.6121 115.261 22.8464 114.73 24.2872C114.199 25.7305 113.937 27.335 113.937 29.1058C113.937 30.8766 114.199 32.4887 114.73 33.9446C115.261 35.4005 115.999 36.6423 116.942 37.67C117.887 38.6977 119.02 39.4962 120.339 40.068C121.656 40.6373 123.117 40.9244 124.722 40.9244C126.327 40.9244 127.793 40.6373 129.125 40.068C130.457 39.4962 131.595 38.6977 132.543 37.67C133.488 36.6423 134.218 35.4005 134.734 33.9446C135.25 32.4887 135.508 30.8741 135.508 29.1058C135.508 27.3375 135.242 25.7305 134.711 24.2872C134.181 22.8464 133.445 21.6121 132.5 20.5844ZM128.738 34.4584C127.778 35.7708 126.438 36.4282 124.722 36.4282C123.006 36.4282 121.664 35.7708 120.703 34.4584C119.743 33.1436 119.265 31.3602 119.265 29.1058C119.265 26.8514 119.743 25.1159 120.703 23.8161C121.664 22.5189 123.001 21.869 124.722 21.869C126.443 21.869 127.778 22.5189 128.738 23.8161C129.699 25.1159 130.179 26.8791 130.179 29.1058C130.179 31.3325 129.699 33.1436 128.738 34.4584Z" fill="#563AFF"/>
<path d="M153.188 29.8967C152.63 29.3401 151.919 28.8413 151.06 28.398C150.201 27.9572 149.157 27.5063 147.923 27.0504C147.18 26.7935 146.548 26.5416 146.032 26.2998C145.517 26.0579 145.102 25.8161 144.786 25.5718C144.473 25.33 144.25 25.0655 144.122 24.7809C143.993 24.4937 143.927 24.1663 143.927 23.796C143.927 23.0529 144.256 22.5038 144.915 22.1461C145.575 21.7909 146.434 21.6121 147.493 21.6121C148.669 21.6121 149.7 21.7179 150.587 21.932C151.477 22.1461 152.208 22.3829 152.779 22.6398L153.724 18.4433C153.123 18.2141 152.22 17.9773 151.017 17.7355C149.814 17.4937 148.553 17.3728 147.236 17.3728C144.63 17.3728 142.567 17.9647 141.048 19.1486C139.531 20.335 138.771 21.9547 138.771 24.0101C138.771 25.0655 138.935 25.9572 139.266 26.6851C139.595 27.4131 140.044 28.0353 140.618 28.5491C141.192 29.063 141.872 29.5113 142.661 29.8967C143.449 30.2821 144.314 30.6474 145.259 30.9899C146.806 31.5592 147.918 32.0882 148.59 32.5743C149.263 33.0579 149.599 33.6726 149.599 34.4156C149.599 35.2141 149.286 35.7783 148.654 36.1058C148.024 36.4358 147.021 36.5995 145.646 36.5995C144.271 36.5995 143.047 36.4559 141.973 36.1713C140.899 35.8841 139.974 35.5869 139.2 35.272L138.298 39.597C138.786 39.796 139.63 40.0605 140.833 40.3879C142.036 40.7154 143.626 40.8816 145.603 40.8816C148.553 40.8816 150.825 40.33 152.415 39.2317C154.005 38.1335 154.798 36.5139 154.798 34.3728C154.798 33.3728 154.669 32.5164 154.412 31.8035C154.154 31.0907 153.747 30.4534 153.188 29.8967Z" fill="#563AFF"/>
<path d="M175.596 20.3048C174.881 19.4055 173.928 18.7078 172.74 18.2065C171.549 17.7078 170.053 17.4584 168.248 17.4584C167.503 17.4584 166.752 17.529 165.994 17.6725C165.233 17.8136 164.568 17.9849 163.994 18.1864V7.0957L158.795 7.95213V40.3249H163.994V22.5113C164.338 22.3955 164.869 22.267 165.584 22.1259C166.3 21.9824 167.002 21.9118 167.69 21.9118C168.577 21.9118 169.323 22.0327 169.924 22.2745C170.526 22.5189 171.006 22.9043 171.365 23.4307C171.721 23.9597 171.979 24.6448 172.138 25.4861C172.295 26.33 172.374 27.3501 172.374 28.5491V40.3249H177.573V27.7355C177.573 26.1939 177.424 24.796 177.123 23.539C176.822 22.2821 176.312 21.204 175.596 20.3048Z" fill="#563AFF"/>
<path d="M188.187 17.9294H182.987V40.3249H188.187V17.9294Z" fill="#563AFF"/>
<path d="M90.2404 1.92188C90.2404 4.90928 87.8164 7.33749 84.8262 7.33749C87.8189 7.33749 90.2404 10.942 90.2404 15.3879C90.2404 10.942 92.6644 7.33749 95.6521 7.33749C92.6644 7.33749 90.2404 4.9118 90.2404 1.92188Z" fill="#563AFF"/>
<path d="M185.588 15.3854C185.588 10.9396 188.012 7.33505 191 7.33505C188.012 7.33505 185.588 4.90936 185.588 1.91943C185.588 4.90684 183.164 7.33505 180.174 7.33505C183.167 7.33505 185.588 10.9396 185.588 15.3854Z" fill="#563AFF"/>
<path d="M47.5508 39.1035C46.1 36.7962 44.3255 34.3176 42.2933 31.7433C42.1391 31.5493 41.9824 31.3528 41.8282 31.1564C41.6361 31.7508 41.4111 32.3302 41.1559 32.8944C41.1382 32.9347 41.1179 32.9775 41.0977 33.0178C41.0649 33.0884 41.032 33.1589 40.9966 33.2269C40.7742 33.6979 40.5265 34.1539 40.2585 34.5997C40.3925 34.7861 40.5239 34.97 40.6529 35.1564C41.2292 35.975 41.76 36.7735 42.2478 37.5468C45.5161 42.7408 45.5338 44.9649 45.0282 45.4586C44.5252 45.9549 42.2933 45.9045 37.1268 42.5745C36.3584 42.0783 35.5647 41.5367 34.7533 40.9523C34.5713 40.8214 34.3843 40.6879 34.1997 40.5518C32.2914 39.1539 30.2869 37.5342 28.237 35.7433C28.1965 35.708 28.1536 35.6702 28.1131 35.635C29.3618 34.4536 30.6105 33.2319 31.8541 31.9775C32.9991 30.8188 34.1163 29.6576 35.1931 28.4964C35.5293 28.1387 35.8579 27.7811 36.1814 27.4234C36.2471 27.3554 36.3078 27.2874 36.3685 27.2193C36.6996 26.8566 37.0231 26.4964 37.3441 26.1362C38.9366 24.3503 40.4329 22.5821 41.8206 20.8491C41.9773 20.6526 42.1315 20.4561 42.2882 20.2622C44.318 17.6879 46.0949 15.2068 47.5458 12.8994C51.451 6.69542 52.5025 2.63748 50.6725 0.836476C48.8425 -0.959493 44.783 0.141263 38.613 4.11859C36.3179 5.59718 33.856 7.40071 31.3005 9.46116C31.1059 9.61733 30.9138 9.7735 30.7192 9.93219C31.3182 10.1161 31.9021 10.3302 32.4708 10.577C32.5113 10.5947 32.5542 10.6123 32.5947 10.6324C32.6654 10.6627 32.7362 10.6954 32.807 10.7307C33.2822 10.9473 33.7448 11.1866 34.1947 11.446C34.3792 11.31 34.5662 11.174 34.7482 11.0455C35.5621 10.4612 36.3533 9.9196 37.1217 9.42338C40.8879 6.99517 43.0971 6.31255 44.2093 6.31255C44.6238 6.31255 44.8867 6.40575 45.0232 6.53925C45.5287 7.03547 45.5085 9.25965 42.2402 14.4536C41.7549 15.2269 41.2241 16.0229 40.6478 16.8415C40.5189 17.0254 40.3874 17.2118 40.251 17.4007C38.795 19.4309 37.0914 21.577 35.1982 23.7659C34.8898 24.1236 34.5764 24.4788 34.2604 24.8365C34.1922 24.912 34.1239 24.9926 34.0557 25.0682C33.7422 25.4209 33.4237 25.7735 33.1002 26.1261C31.988 27.3428 30.8253 28.567 29.6221 29.7836C28.3432 31.0783 27.0515 32.3251 25.77 33.5166C24.4859 32.3251 23.1968 31.0783 21.9178 29.7836C20.7147 28.567 19.552 27.3428 18.4398 26.1261C18.1162 25.7735 17.7978 25.4209 17.4843 25.0682C17.4161 24.9926 17.3478 24.912 17.2796 24.8365C16.9611 24.4788 16.6502 24.1211 16.3418 23.7659C14.4486 21.577 12.745 19.4309 11.289 17.4007C11.1525 17.2118 11.0211 17.0254 10.8922 16.8415C10.3159 16.0229 9.78509 15.2269 9.29978 14.4536C6.03151 9.25965 6.01129 7.03547 6.51682 6.53925C6.65079 6.40575 6.91619 6.31255 7.33073 6.31255C8.4429 6.31255 10.6521 6.99517 14.4183 9.42338C15.1867 9.9196 15.9804 10.4612 16.7918 11.0455C16.9737 11.1765 17.1608 11.31 17.3453 11.446C17.7978 11.1866 18.2578 10.9473 18.733 10.7307C18.8038 10.6954 18.8745 10.6652 18.9453 10.6324C18.9858 10.6123 19.0287 10.5947 19.0692 10.577C19.6379 10.3302 20.2218 10.1136 20.8208 9.93219C20.6262 9.7735 20.4316 9.61481 20.2395 9.46116C17.6865 7.39819 15.2221 5.59718 12.927 4.11859C6.76201 0.141263 2.70259 -0.962012 0.872562 0.836476C-0.957463 2.63496 0.094043 6.6929 3.99928 12.8969C5.45015 15.2042 7.22709 17.6853 9.2568 20.2596C9.41352 20.4536 9.56771 20.6501 9.72442 20.8465C11.1121 22.577 12.6085 24.3478 14.2009 26.1337C14.5219 26.4939 14.848 26.8566 15.1766 27.2168C15.2372 27.2848 15.3004 27.3554 15.3636 27.4209C15.6872 27.7785 16.0183 28.1362 16.3519 28.4939C17.4313 29.6551 18.5459 30.8163 19.691 31.975C20.9346 33.2319 22.1833 34.4511 23.4319 35.6324C23.3915 35.6677 23.3485 35.7055 23.3081 35.7408C21.2581 37.5317 19.2537 39.1513 17.3453 40.5493C17.1608 40.6853 16.9737 40.8214 16.7918 40.9498C15.9778 41.5342 15.1867 42.0758 14.4183 42.572C9.25175 45.902 7.01983 45.9523 6.51682 45.4561C6.01129 44.9599 6.03151 42.7382 9.29725 37.5443C9.78508 36.771 10.3159 35.9725 10.8922 35.1539C11.0211 34.97 11.1525 34.7836 11.2865 34.5972C11.0186 34.1513 10.7734 33.6954 10.5484 33.2244C10.5131 33.1564 10.4802 33.0858 10.4473 33.0153C10.4271 32.975 10.4069 32.9322 10.3892 32.8919C10.1339 32.3277 9.90894 31.7483 9.71684 31.1539C9.56012 31.3503 9.40594 31.5468 9.25175 31.7408C7.21951 34.3151 5.4451 36.7962 3.99422 39.101C1.33765 43.3352 0.0005198 46.5669 0.0005198 48.7659C0.0005198 49.7911 0.291201 50.5921 0.872562 51.1639C1.44129 51.7206 2.22233 52.0002 3.2157 52.0002C5.42235 52.0002 8.67292 50.6249 12.9295 47.8818C15.2246 46.4032 17.6891 44.5997 20.2445 42.5392C20.4392 42.3831 20.6287 42.2269 20.8259 42.0682C22.4107 40.7735 24.0259 39.3806 25.6563 37.9095C25.6967 37.8743 25.7346 37.8365 25.7751 37.8012C25.8155 37.8365 25.8534 37.8743 25.8939 37.9095C27.5217 39.3806 29.1394 40.771 30.7242 42.0682C30.9188 42.2269 31.1109 42.3831 31.3056 42.5392C33.861 44.5997 36.3255 46.4057 38.6206 47.8818C42.8772 50.6249 46.1278 52.0002 48.3344 52.0002C49.3278 52.0002 50.1088 51.7206 50.6775 51.1639C51.2589 50.5921 51.5496 49.7911 51.5496 48.7659C51.5496 46.5669 50.2125 43.3352 47.5508 39.1035Z" fill="#563AFF"/>
<path d="M43.2203 15.5038C42.0576 17.3527 40.6345 19.3401 39.0092 21.403C38.8854 21.5592 38.759 21.7154 38.6352 21.8715C37.5255 23.2595 36.3249 24.6751 35.0509 26.1058C34.7931 26.393 34.5328 26.6851 34.2674 26.9748C34.2193 27.0302 34.1688 27.0856 34.1182 27.1385C33.8579 27.4257 33.5925 27.7129 33.3245 28C32.4601 28.9295 31.5678 29.8615 30.6477 30.7884C29.6215 31.8262 28.5902 32.8338 27.559 33.8061C27.2733 34.0731 26.9902 34.3401 26.7071 34.602C26.6515 34.6524 26.5959 34.7028 26.5428 34.7532C26.2547 35.0176 25.9665 35.2821 25.6809 35.5416C24.3766 36.7204 23.0825 37.8338 21.8111 38.8715C21.6543 38.9975 21.5002 39.1234 21.346 39.2494C19.2986 40.8993 17.3245 42.3451 15.4868 43.529C12.077 45.7254 9.47355 46.8287 7.70419 46.8287C6.90798 46.8287 6.28364 46.6045 5.82614 46.1587C5.35852 45.7003 5.12598 45.0579 5.12598 44.2368C5.12598 42.4761 6.1977 39.8867 8.32852 36.4987C8.98824 35.4509 9.73137 34.3577 10.5503 33.2292C10.7728 33.7003 11.0205 34.1562 11.2884 34.602C11.1544 34.7884 11.023 34.9723 10.8941 35.1587C10.3178 35.9773 9.78698 36.7758 9.29914 37.5491C6.03088 42.7431 6.01318 44.9673 6.51872 45.461C7.02172 45.9572 9.25364 45.9068 14.4202 42.5768C15.1886 42.0806 15.9823 41.5391 16.7937 40.9547C16.9756 40.8237 17.1627 40.6902 17.3472 40.5542C19.2556 39.1562 21.26 37.5365 23.31 35.7456C23.6638 35.4358 24.0202 35.1184 24.3766 34.7985C24.4525 34.7305 24.5283 34.66 24.6066 34.5919C24.9555 34.2771 25.3068 33.9547 25.6582 33.6322C26.9801 32.4081 28.3097 31.1234 29.6291 29.7884C30.8323 28.5718 31.995 27.3476 33.1072 26.131C33.4307 25.7783 33.7492 25.4257 34.0626 25.0731C34.1309 24.9975 34.1991 24.9169 34.2674 24.8413C34.5858 24.4836 34.8967 24.126 35.2051 23.7708C37.0983 21.5819 38.802 19.4358 40.2579 17.4055C40.3944 17.2166 40.5258 17.0302 40.6548 16.8464C41.2311 16.0277 41.7619 15.2317 42.2472 14.4584C45.5154 9.26449 45.5357 7.04031 45.0301 6.54409C44.8962 6.41059 44.6308 6.31739 44.2162 6.31739C43.104 6.31739 40.8949 7.00001 37.1287 9.42822C36.3603 9.92444 35.5666 10.466 34.7552 11.0504C34.5732 11.1814 34.3862 11.3149 34.2016 11.4509C33.7492 11.1914 33.2892 10.9521 32.814 10.7355C33.9337 9.90429 35.0206 9.14862 36.0645 8.47608C41.0061 5.28968 44.2592 4.40807 45.7227 5.84635C47.1887 7.28716 46.347 10.5365 43.2203 15.5088V15.5038Z" fill="url(#paint0_linear_1385_277)"/>
<path d="M8.33149 15.5038C9.49422 17.3527 10.9173 19.3401 12.5426 21.403C12.6664 21.5592 12.7928 21.7154 12.9167 21.8715C14.0263 23.2595 15.2269 24.6751 16.5009 26.1058C16.7587 26.393 17.0191 26.6851 17.2845 26.9748C17.3325 27.0302 17.383 27.0856 17.4336 27.1385C17.6939 27.4257 17.9593 27.7129 18.2273 28C19.0917 28.9295 19.984 29.8615 20.9041 30.7884C21.9303 31.8262 22.9616 32.8338 23.9929 33.8061C24.2785 34.0731 24.5616 34.3401 24.8447 34.602C24.9003 34.6524 24.9559 34.7028 25.009 34.7532C25.2971 35.0176 25.5853 35.2821 25.8709 35.5416C27.1752 36.7204 28.4694 37.8338 29.7408 38.8715C29.8975 38.9975 30.0517 39.1234 30.2059 39.2494C32.2533 40.8993 34.2274 42.3451 36.065 43.529C39.4748 45.7254 42.0783 46.8287 43.8476 46.8287C44.6438 46.8287 45.2682 46.6045 45.7257 46.1587C46.1933 45.7003 46.4258 45.0579 46.4258 44.2368C46.4258 42.4761 45.3541 39.8867 43.2233 36.4987C42.5636 35.4509 41.8204 34.3577 41.0015 33.2292C40.7791 33.7003 40.5313 34.1562 40.2634 34.602C40.3974 34.7884 40.5288 34.9723 40.6577 35.1587C41.234 35.9773 41.7648 36.7758 42.2527 37.5491C45.5209 42.7431 45.5386 44.9673 45.0331 45.461C44.5301 45.9572 42.2982 45.9068 37.1316 42.5768C36.3632 42.0806 35.5695 41.5391 34.7582 40.9547C34.5762 40.8237 34.3891 40.6902 34.2046 40.5542C32.2962 39.1562 30.2918 37.5365 28.2419 35.7456C27.888 35.4358 27.5316 35.1184 27.1752 34.7985C27.0994 34.7305 27.0235 34.66 26.9452 34.5919C26.5964 34.2771 26.245 33.9547 25.8937 33.6322C24.5717 32.4081 23.2422 31.1234 21.9227 29.7884C20.7196 28.5718 19.5568 27.3476 18.4447 26.131C18.1211 25.7783 17.8026 25.4257 17.4892 25.0731C17.421 24.9975 17.3527 24.9169 17.2845 24.8413C16.966 24.4836 16.6551 24.126 16.3467 23.7708C14.4535 21.5819 12.7498 19.4358 11.2939 17.4055C11.1574 17.2166 11.026 17.0302 10.8971 16.8464C10.3208 16.0277 9.78995 15.2317 9.30464 14.4584C6.03638 9.26449 6.01616 7.04031 6.52169 6.54409C6.65566 6.41059 6.92106 6.31739 7.3356 6.31739C8.44777 6.31739 10.6569 7.00001 14.4232 9.42822C15.1916 9.92444 15.9852 10.466 16.7966 11.0504C16.9786 11.1814 17.1657 11.3149 17.3502 11.4509C17.8026 11.1914 18.2627 10.9521 18.7379 10.7355C17.6181 9.90429 16.5312 9.14862 15.4873 8.47608C10.5457 5.28968 7.29263 4.40807 5.82911 5.84635C4.36307 7.28716 5.20478 10.5365 8.33149 15.5088V15.5038Z" fill="url(#paint1_linear_1385_277)"/>
</g>
<defs>
<linearGradient id="paint0_linear_1385_277" x1="12.8151" y1="14.5391" x2="52.3627" y2="49.7561" gradientUnits="userSpaceOnUse">
<stop offset="0.11" stop-color="#F9B7E6"/>
<stop offset="0.15" stop-color="#D49BEB"/>
<stop offset="0.2" stop-color="#AE7DF1"/>
<stop offset="0.26" stop-color="#8E65F6"/>
<stop offset="0.31" stop-color="#7552FA"/>
<stop offset="0.37" stop-color="#6344FC"/>
<stop offset="0.43" stop-color="#593CFE"/>
<stop offset="0.5" stop-color="#563AFF"/>
</linearGradient>
<linearGradient id="paint1_linear_1385_277" x1="38.7367" y1="14.5391" x2="-0.810881" y2="49.7561" gradientUnits="userSpaceOnUse">
<stop offset="0.13" stop-color="#F9B7E6"/>
<stop offset="0.16" stop-color="#D49BEB"/>
<stop offset="0.21" stop-color="#AE7DF1"/>
<stop offset="0.26" stop-color="#8E65F6"/>
<stop offset="0.32" stop-color="#7552FA"/>
<stop offset="0.37" stop-color="#6344FC"/>
<stop offset="0.43" stop-color="#593CFE"/>
<stop offset="0.5" stop-color="#563AFF"/>
</linearGradient>
<clipPath id="clip0_1385_277">
<rect width="191" height="52" fill="white"/>
</clipPath>
</defs>
</svg>
