<svg width="308" height="52" viewBox="0 0 308 52" fill="none" xmlns="http://www.w3.org/2000/svg">
<g clip-path="url(#clip0_1434_408)">
<path d="M83.9402 35.5945V40.262H65.293V10.5869H70.6572V35.5945H83.9402Z" fill="#563AFF"/>
<path d="M86.9629 17.8665V40.2619H92.1143V17.8665H86.9629Z" fill="#563AFF"/>
<path d="M97.5635 11.9571L102.715 11.1007V17.8665H110.634V22.1914H102.715V31.3123C102.715 33.1108 102.998 34.3954 103.566 35.1662C104.135 35.937 105.099 36.3224 106.461 36.3224C107.398 36.3224 108.229 36.2216 108.953 36.0226C109.677 35.8236 110.253 35.6372 110.676 35.4659L111.528 39.5768C110.932 39.8337 110.15 40.0982 109.186 40.3677C108.222 40.6397 107.085 40.7758 105.78 40.7758C104.19 40.7758 102.865 40.5617 101.801 40.1335C100.736 39.7052 99.8925 39.0831 99.2664 38.2695C98.6428 37.4559 98.2021 36.471 97.9466 35.3148C97.6912 34.1586 97.5635 32.8387 97.5635 31.3526V11.9571Z" fill="#563AFF"/>
<path d="M134.39 29.0428C134.39 30.8136 134.135 32.4257 133.624 33.8816C133.113 35.3375 132.389 36.5793 131.452 37.607C130.516 38.6348 129.389 39.4332 128.067 40.005C126.747 40.5768 125.292 40.8615 123.704 40.8615C122.116 40.8615 120.666 40.5768 119.361 40.005C118.057 39.4332 116.935 38.6348 115.998 37.607C115.062 36.5793 114.33 35.3375 113.807 33.8816C113.281 32.4257 113.021 30.8136 113.021 29.0428C113.021 27.272 113.283 25.6675 113.807 24.2267C114.333 22.7859 115.069 21.5516 116.021 20.5214C116.97 19.4937 118.099 18.7028 119.407 18.1461C120.711 17.5894 122.146 17.3098 123.706 17.3098C125.267 17.3098 126.707 17.5894 128.026 18.1461C129.346 18.7028 130.476 19.4937 131.412 20.5214C132.349 21.5491 133.08 22.7834 133.606 24.2267C134.132 25.6675 134.392 27.2746 134.392 29.0428H134.39ZM129.111 29.0428C129.111 26.8161 128.635 25.0529 127.683 23.7531C126.732 22.4534 125.404 21.806 123.704 21.806C122.004 21.806 120.674 22.4559 119.722 23.7531C118.77 25.0529 118.297 26.8161 118.297 29.0428C118.297 31.2695 118.773 33.0831 119.722 34.3955C120.674 35.7078 122.001 36.3652 123.704 36.3652C125.407 36.3652 126.734 35.7078 127.683 34.3955C128.633 33.0831 129.111 31.2972 129.111 29.0428Z" fill="#563AFF"/>
<path d="M144.437 36.5366C145.799 36.5366 146.791 36.3728 147.417 36.0429C148.041 35.7154 148.354 35.1512 148.354 34.3527C148.354 33.6096 148.021 32.9975 147.354 32.5114C146.688 32.0252 145.589 31.4988 144.054 30.927C143.117 30.5844 142.258 30.2192 141.477 29.8363C140.695 29.4509 140.022 29 139.456 28.4862C138.887 27.9723 138.442 27.3527 138.113 26.6247C137.788 25.8968 137.623 25.0051 137.623 23.9497C137.623 21.8942 138.374 20.2746 139.879 19.0882C141.384 17.9043 143.428 17.3124 146.01 17.3124C147.314 17.3124 148.564 17.4333 149.756 17.6776C150.948 17.9194 151.842 18.1562 152.438 18.3829L151.502 22.5794C150.933 22.3225 150.209 22.0857 149.33 21.8741C148.451 21.66 147.43 21.5517 146.265 21.5517C145.216 21.5517 144.364 21.7305 143.711 22.0857C143.057 22.4434 142.731 22.9925 142.731 23.733C142.731 24.1033 142.797 24.4333 142.924 24.7179C143.052 25.0026 143.272 25.267 143.583 25.5088C143.896 25.7507 144.307 25.995 144.818 26.2368C145.328 26.4786 145.952 26.7305 146.691 26.9849C147.91 27.4408 148.947 27.8917 149.799 28.335C150.65 28.7784 151.354 29.2771 151.905 29.8338C152.458 30.3905 152.861 31.0252 153.119 31.7381C153.375 32.4509 153.503 33.3073 153.503 34.3073C153.503 36.4484 152.716 38.068 151.138 39.1663C149.563 40.2645 147.314 40.8136 144.392 40.8136C142.433 40.8136 140.858 40.6499 139.666 40.3199C138.474 39.99 137.638 39.728 137.154 39.529L138.048 35.2041C138.815 35.5189 139.729 35.8187 140.793 36.1033C141.857 36.3879 143.07 36.5315 144.434 36.5315L144.437 36.5366Z" fill="#563AFF"/>
<path d="M157.462 40.2619V7.88914L162.613 7.03271V18.1234C163.182 17.9244 163.84 17.7531 164.594 17.6095C165.346 17.466 166.092 17.3954 166.828 17.3954C168.616 17.3954 170.099 17.6448 171.278 18.1461C172.455 18.6448 173.399 19.3451 174.108 20.2443C174.817 21.1435 175.323 22.2216 175.621 23.476C175.919 24.733 176.069 26.131 176.069 27.6725V40.2619H170.918V28.4861C170.918 27.2871 170.84 26.267 170.682 25.4231C170.527 24.5818 170.272 23.8967 169.916 23.3677C169.56 22.8388 169.085 22.4559 168.488 22.2116C167.892 21.9697 167.154 21.8488 166.275 21.8488C165.593 21.8488 164.897 21.9194 164.189 22.0629C163.48 22.2065 162.954 22.335 162.613 22.4483V40.2619H157.462Z" fill="#563AFF"/>
<path d="M181.432 17.8665V40.2619H186.583V17.8665H181.432Z" fill="#563AFF"/>
<path d="M208.764 36.2343C210.695 36.2343 212.097 35.9068 212.978 35.2494C213.857 34.592 214.298 33.665 214.298 32.466C214.298 31.7532 214.148 31.1386 213.85 30.6247C213.552 30.1109 213.126 29.6474 212.573 29.2318C212.019 28.8187 211.346 28.4333 210.549 28.0756C209.755 27.7179 208.846 27.3703 207.825 27.0252C206.803 26.655 205.816 26.2469 204.867 25.8061C203.915 25.3628 203.079 24.8136 202.355 24.1587C201.631 23.5013 201.05 22.7179 200.61 21.8036C200.169 20.8892 199.951 19.791 199.951 18.5063C199.951 15.8237 200.873 13.7179 202.718 12.1915C204.564 10.665 207.076 9.89929 210.254 9.89929C212.099 9.89929 213.737 10.1058 215.17 10.5189C216.602 10.932 217.732 11.3829 218.556 11.8691L216.895 16.2368C215.931 15.6953 214.874 15.2796 213.725 14.995C212.575 14.7104 211.391 14.5668 210.169 14.5668C208.721 14.5668 207.592 14.8665 206.783 15.466C205.974 16.0655 205.571 16.9068 205.571 17.9925C205.571 18.6499 205.706 19.2142 205.976 19.6852C206.244 20.1562 206.63 20.5769 207.126 20.9472C207.622 21.3174 208.203 21.66 208.871 21.9749C209.538 22.2897 210.269 22.5895 211.065 22.8741C212.455 23.388 213.697 23.9094 214.792 24.4358C215.883 24.9648 216.805 25.592 217.559 26.3199C218.31 27.0479 218.884 27.9043 219.282 28.8892C219.68 29.8741 219.878 31.0655 219.878 32.4635C219.878 35.1461 218.934 37.2242 217.048 38.6953C215.16 40.1663 212.4 40.8993 208.769 40.8993C207.547 40.8993 206.435 40.8212 205.425 40.665C204.419 40.5089 203.525 40.3149 202.743 40.0882C201.962 39.859 201.288 39.6247 200.72 39.3804C200.151 39.1386 199.698 38.9169 199.357 38.7179L200.933 34.3073C201.699 34.7356 202.736 35.1638 204.041 35.592C205.345 36.0202 206.92 36.2343 208.766 36.2343H208.764Z" fill="#563AFF"/>
<path d="M243.546 29.0857C243.546 30.7985 243.325 32.3678 242.887 33.796C242.446 35.2242 241.815 36.4509 240.994 37.4786C240.17 38.5063 239.143 39.3048 237.906 39.8766C236.671 40.4484 235.274 40.733 233.714 40.733C232.662 40.733 231.698 40.6046 230.819 40.3477C229.94 40.0907 229.216 39.8061 228.648 39.4912V48.1839H223.496V18.5945C224.545 18.3099 225.838 18.0378 227.37 17.7809C228.903 17.524 230.521 17.3955 232.224 17.3955C233.927 17.3955 235.557 17.6675 236.949 18.2091C238.339 18.7507 239.526 19.529 240.505 20.5416C241.485 21.5542 242.236 22.7834 242.762 24.2242C243.288 25.665 243.548 27.2872 243.548 29.0832L243.546 29.0857ZM238.267 29.1713C238.267 26.859 237.748 25.0605 236.711 23.7759C235.675 22.4912 234.009 21.8489 231.71 21.8489C231.227 21.8489 230.724 21.8691 230.198 21.9119C229.672 21.9547 229.156 22.0479 228.642 22.189V34.9925C229.096 35.3073 229.699 35.5995 230.451 35.8716C231.202 36.1436 232.006 36.2796 232.857 36.2796C234.731 36.2796 236.1 35.6373 236.964 34.3527C237.828 33.0681 238.264 31.3401 238.264 29.1713H238.267Z" fill="#563AFF"/>
<path d="M255.422 17.3098C257.124 17.3098 258.557 17.5239 259.721 17.9521C260.886 18.3803 261.815 18.9798 262.509 19.7506C263.205 20.5214 263.701 21.4559 263.999 22.5541C264.297 23.6524 264.447 24.8589 264.447 26.1738V39.7481C263.653 39.9194 262.454 40.1259 260.848 40.3677C259.246 40.6096 257.435 40.733 255.419 40.733C254.084 40.733 252.865 40.6045 251.758 40.3476C250.651 40.0907 249.707 39.6776 248.928 39.1058C248.146 38.534 247.538 37.7934 247.097 36.8791C246.656 35.9647 246.438 34.8388 246.438 33.4962C246.438 32.1536 246.686 31.1259 247.182 30.2418C247.678 29.3577 248.354 28.6348 249.203 28.0806C250.055 27.5239 251.041 27.1234 252.163 26.8816C253.283 26.6398 254.455 26.5164 255.677 26.5164C256.245 26.5164 256.839 26.5516 257.465 26.6247C258.089 26.6952 258.757 26.8161 259.466 26.9874V26.131C259.466 25.5315 259.396 24.9597 259.253 24.4181C259.11 23.8766 258.862 23.398 258.509 22.9849C258.154 22.5718 257.685 22.2494 257.104 22.0201C256.523 21.7909 255.792 21.6776 254.913 21.6776C253.721 21.6776 252.629 21.7632 251.635 21.9345C250.641 22.1058 249.832 22.3048 249.208 22.534L248.57 18.3375C249.223 18.1083 250.172 17.8816 251.422 17.6524C252.669 17.4232 254.004 17.3098 255.424 17.3098H255.422ZM255.847 36.6222C257.437 36.6222 258.642 36.5365 259.466 36.3652V30.6272C259.183 30.5416 258.77 30.4559 258.231 30.3703C257.693 30.2846 257.094 30.2418 256.443 30.2418C255.875 30.2418 255.301 30.2846 254.72 30.3703C254.139 30.4559 253.613 30.6121 253.145 30.8413C252.677 31.0705 252.299 31.3904 252.016 31.806C251.733 32.2191 251.59 32.7405 251.59 33.3703C251.59 34.597 251.973 35.4484 252.739 35.9194C253.506 36.3904 254.542 36.6247 255.847 36.6247V36.6222Z" fill="#563AFF"/>
<path d="M268.662 29.0856C268.662 27.4307 268.918 25.8816 269.428 24.4382C269.939 22.9974 270.671 21.7481 271.62 20.6901C272.571 19.6347 273.728 18.806 275.091 18.2065C276.453 17.607 277.986 17.3073 279.689 17.3073C281.787 17.3073 283.776 17.6926 285.649 18.4634L284.542 22.7027C283.946 22.4458 283.272 22.2317 282.521 22.0604C281.77 21.8891 280.966 21.8035 280.114 21.8035C278.098 21.8035 276.566 22.4382 275.516 23.7078C274.465 24.9773 273.941 26.7707 273.941 29.0806C273.941 31.3904 274.437 33.0705 275.431 34.3702C276.423 35.67 278.098 36.3198 280.455 36.3198C281.334 36.3198 282.201 36.2342 283.052 36.0629C283.903 35.8916 284.642 35.6775 285.266 35.4206L285.99 39.7027C285.421 39.9874 284.565 40.2443 283.415 40.4735C282.266 40.7027 281.081 40.8161 279.859 40.8161C277.956 40.8161 276.303 40.5239 274.9 39.937C273.495 39.3526 272.331 38.539 271.409 37.4962C270.488 36.4533 269.799 35.2115 269.346 33.7707C268.893 32.3299 268.665 30.7657 268.665 29.0806L268.662 29.0856Z" fill="#563AFF"/>
<path d="M287.905 29.1712C287.905 27.2015 288.196 25.4735 288.777 23.9899C289.358 22.5062 290.132 21.272 291.098 20.2846C292.062 19.2997 293.169 18.5566 294.419 18.0579C295.669 17.5591 296.946 17.3073 298.251 17.3073C301.316 17.3073 303.708 18.2644 305.423 20.1763C307.141 22.0881 308 24.9445 308 28.7405C308 29.0251 307.993 29.3476 307.98 29.7052C307.965 30.0629 307.945 30.3828 307.915 30.67H293.227C293.37 32.4685 294.001 33.8614 295.12 34.8463C296.242 35.8312 297.868 36.3249 299.996 36.3249C301.243 36.3249 302.385 36.2115 303.422 35.9823C304.459 35.7531 305.273 35.5113 305.871 35.2544L306.553 39.4936C306.27 39.6372 305.879 39.7858 305.38 39.942C304.885 40.0982 304.316 40.2418 303.678 40.3702C303.039 40.4987 302.35 40.607 301.614 40.6926C300.875 40.7783 300.124 40.8211 299.358 40.8211C297.399 40.8211 295.696 40.5289 294.249 39.942C292.801 39.3576 291.609 38.544 290.673 37.5012C289.736 36.4584 289.04 35.2317 288.586 33.8186C288.133 32.4055 287.905 30.8564 287.905 29.1712ZM302.849 26.8589C302.849 26.146 302.748 25.4659 302.551 24.8236C302.353 24.1813 302.06 23.6246 301.679 23.1536C301.296 22.6826 300.828 22.3123 300.274 22.0402C299.721 21.7682 299.062 21.6322 298.296 21.6322C297.529 21.6322 296.806 21.7808 296.21 22.0831C295.614 22.3853 295.11 22.7758 294.697 23.2594C294.286 23.7455 293.966 24.3022 293.74 24.9294C293.512 25.5566 293.357 26.1989 293.272 26.8564H302.851L302.849 26.8589Z" fill="#563AFF"/>
<path d="M47.112 39.1034C45.6745 36.7961 43.9164 34.3175 41.903 31.7432C41.7502 31.5492 41.5949 31.3527 41.4422 31.1563C41.2518 31.7507 41.029 32.3301 40.776 32.8943C40.7585 32.9346 40.7385 32.9774 40.7184 33.0177C40.6859 33.0882 40.6533 33.1588 40.6182 33.2268C40.3979 33.6978 40.1524 34.1537 39.887 34.5996C40.0197 34.786 40.1499 34.9699 40.2777 35.1563C40.8486 35.9749 41.3746 36.7734 41.8579 37.5467C45.096 42.7406 45.1135 44.9648 44.6126 45.4585C44.1143 45.9547 41.903 45.9044 36.7841 42.5744C36.0228 42.0782 35.2364 41.5366 34.4326 40.9522C34.2522 40.8212 34.0669 40.6877 33.8841 40.5517C31.9933 39.1537 30.0074 37.5341 27.9764 35.7432C27.9363 35.7079 27.8937 35.6701 27.8537 35.6348C29.0908 34.4535 30.328 33.2318 31.5601 31.9774C32.6945 30.8187 33.8015 29.6575 34.8683 28.4963C35.2014 28.1386 35.5269 27.7809 35.8475 27.4233C35.9126 27.3552 35.9727 27.2872 36.0328 27.2192C36.3609 26.8565 36.6814 26.4963 36.9995 26.1361C38.5772 24.3502 40.0598 22.5819 41.4347 20.8489C41.5899 20.6525 41.7427 20.456 41.898 20.262C43.9089 17.6877 45.6695 15.2066 47.107 12.8993C50.9762 6.6953 52.018 2.63736 50.2048 0.836354C48.3917 -0.959615 44.3697 0.141141 38.2567 4.11847C35.9827 5.59706 33.5435 7.40059 31.0116 9.46104C30.8188 9.61721 30.6285 9.77338 30.4356 9.93207C31.0292 10.116 31.6077 10.3301 32.1711 10.5769C32.2112 10.5945 32.2538 10.6122 32.2939 10.6323C32.364 10.6626 32.4341 10.6953 32.5042 10.7306C32.975 10.9472 33.4333 11.1865 33.8791 11.4459C34.0619 11.3099 34.2472 11.1739 34.4275 11.0454C35.2339 10.461 36.0178 9.91948 36.7791 9.42326C40.5106 6.99504 42.6993 6.31242 43.8012 6.31242C44.212 6.31242 44.4724 6.40562 44.6076 6.53913C45.1085 7.03535 45.0885 9.25953 41.8504 14.4535C41.3695 15.2268 40.8436 16.0228 40.2726 16.8414C40.1449 17.0253 40.0147 17.2117 39.8795 17.4006C38.437 19.4308 36.7491 21.5769 34.8733 23.7658C34.5678 24.1235 34.2572 24.4787 33.9442 24.8364C33.8766 24.9119 33.809 24.9925 33.7414 25.0681C33.4308 25.4207 33.1153 25.7734 32.7947 26.126C31.6928 27.3427 30.5408 28.5668 29.3488 29.7835C28.0816 31.0782 26.8019 32.325 25.5322 33.5165C24.26 32.325 22.9828 31.0782 21.7156 29.7835C20.5235 28.5668 19.3715 27.3427 18.2696 26.126C17.949 25.7734 17.6335 25.4207 17.323 25.0681C17.2553 24.9925 17.1877 24.9119 17.1201 24.8364C16.8046 24.4787 16.4965 24.121 16.191 23.7658C14.3153 21.5769 12.6273 19.4308 11.1849 17.4006C11.0496 17.2117 10.9194 17.0253 10.7917 16.8414C10.2207 16.0228 9.69478 15.2268 9.21395 14.4535C5.97585 9.25953 5.95581 7.03535 6.45668 6.53913C6.58941 6.40562 6.85236 6.31242 7.26307 6.31242C8.36498 6.31242 10.5538 6.99504 14.2852 9.42326C15.0465 9.91948 15.8329 10.461 16.6368 11.0454C16.8171 11.1764 17.0024 11.3099 17.1852 11.4459C17.6335 11.1865 18.0893 10.9472 18.5601 10.7306C18.6302 10.6953 18.7003 10.6651 18.7705 10.6323C18.8105 10.6122 18.8531 10.5945 18.8932 10.5769C19.4567 10.3301 20.0352 10.1134 20.6287 9.93207C20.4358 9.77338 20.243 9.61469 20.0527 9.46104C17.5233 7.39807 15.0816 5.59706 12.8077 4.11847C6.6996 0.141141 2.67764 -0.962134 0.864509 0.836354C-0.948626 2.63484 0.0931751 6.69278 3.96236 12.8968C5.39985 15.2041 7.16039 17.6852 9.17137 20.2595C9.32664 20.4535 9.4794 20.65 9.63467 20.8464C11.0095 22.5769 12.4921 24.3477 14.0698 26.1336C14.3879 26.4938 14.7109 26.8565 15.0365 27.2167C15.0966 27.2847 15.1592 27.3552 15.2218 27.4207C15.5424 27.7784 15.8705 28.1361 16.201 28.4938C17.2704 29.655 18.3748 30.8162 19.5092 31.9749C20.7414 33.2318 21.9785 34.451 23.2157 35.6323C23.1756 35.6676 23.133 35.7054 23.0929 35.7406C21.0619 37.5316 19.076 39.1512 17.1852 40.5492C17.0024 40.6852 16.8171 40.8212 16.6368 40.9497C15.8304 41.5341 15.0465 42.0756 14.2852 42.5719C9.16636 45.9018 6.95504 45.9522 6.45668 45.456C5.95581 44.9598 5.97585 42.7381 9.21144 37.5442C9.69478 36.7709 10.2207 35.9724 10.7917 35.1537C10.9194 34.9699 11.0496 34.7835 11.1823 34.5971C10.9169 34.1512 10.674 33.6953 10.4511 33.2243C10.416 33.1563 10.3835 33.0857 10.3509 33.0152C10.3309 32.9749 10.3108 32.9321 10.2933 32.8918C10.0404 32.3275 9.81749 31.7482 9.62716 31.1537C9.47189 31.3502 9.31913 31.5467 9.16636 31.7406C7.15288 34.3149 5.39484 36.796 3.95736 39.1008C1.32531 43.3351 0.000515002 46.5668 0.000515002 48.7658C0.000515002 49.791 0.288513 50.592 0.864509 51.1638C1.42798 51.7205 2.20182 52.0001 3.18602 52.0001C5.3723 52.0001 8.59287 50.6248 12.8102 47.8817C15.0841 46.4031 17.5258 44.5996 20.0577 42.5391C20.2505 42.383 20.4384 42.2268 20.6337 42.0681C22.2039 40.7734 23.8042 39.3804 25.4195 37.9094C25.4595 37.8741 25.4971 37.8364 25.5372 37.8011C25.5772 37.8364 25.6148 37.8741 25.6549 37.9094C27.2677 39.3804 28.8704 40.7709 30.4406 42.0681C30.6335 42.2268 30.8238 42.383 31.0166 42.5391C33.5485 44.5996 35.9902 46.4056 38.2642 47.8817C42.4815 50.6248 45.702 52.0001 47.8883 52.0001C48.8725 52.0001 49.6464 51.7205 50.2098 51.1638C50.7858 50.592 51.0738 49.791 51.0738 48.7658C51.0738 46.5668 49.749 43.3351 47.112 39.1034Z" fill="#563AFF"/>
<path d="M42.8219 15.5038C41.6699 17.3527 40.2599 19.3401 38.6496 21.403C38.5269 21.5592 38.4017 21.7154 38.279 21.8715C37.1796 23.2595 35.99 24.6751 34.7279 26.1058C34.4724 26.393 34.2145 26.6851 33.9515 26.9748C33.9039 27.0302 33.8539 27.0856 33.8038 27.1385C33.5458 27.4257 33.2829 27.7129 33.0174 28C32.1609 28.9295 31.2769 29.8615 30.3653 30.7884C29.3486 31.8262 28.3268 32.8338 27.305 33.8061C27.022 34.0731 26.7416 34.3401 26.4611 34.602C26.406 34.6524 26.3509 34.7028 26.2983 34.7532C26.0128 35.0176 25.7273 35.2821 25.4443 35.5416C24.1521 36.7204 22.8699 37.8338 21.6102 38.8715C21.4549 38.9975 21.3022 39.1234 21.1494 39.2494C19.1209 40.8993 17.165 42.3451 15.3443 43.529C11.966 45.7254 9.38655 46.8287 7.63352 46.8287C6.84465 46.8287 6.22608 46.6045 5.7728 46.1587C5.3095 45.7003 5.0791 45.0579 5.0791 44.2368C5.0791 42.4761 6.14094 39.8867 8.25209 36.4987C8.90572 35.4509 9.64199 34.3577 10.4534 33.2292C10.6738 33.7003 10.9192 34.1562 11.1847 34.602C11.0519 34.7884 10.9217 34.9723 10.794 35.1587C10.223 35.9773 9.69709 36.7758 9.21375 37.5491C5.97565 42.7431 5.95812 44.9673 6.45899 45.461C6.95735 45.9572 9.16867 45.9068 14.2875 42.5768C15.0488 42.0806 15.8352 41.5391 16.6391 40.9547C16.8194 40.8237 17.0047 40.6902 17.1875 40.5542C19.0783 39.1562 21.0642 37.5365 23.0953 35.7456C23.4459 35.4358 23.799 35.1184 24.1521 34.7985C24.2272 34.7305 24.3023 34.66 24.38 34.5919C24.7256 34.2771 25.0737 33.9547 25.4218 33.6323C26.7315 32.4081 28.0488 31.1234 29.3561 29.7884C30.5481 28.5718 31.7001 27.3476 32.802 26.131C33.1226 25.7783 33.4381 25.4257 33.7487 25.0731C33.8163 24.9975 33.8839 24.9169 33.9515 24.8413C34.2671 24.4836 34.5751 24.126 34.8806 23.7708C36.7564 21.5819 38.4443 19.4358 39.8868 17.4055C40.022 17.2166 40.1522 17.0302 40.28 16.8464C40.851 16.0277 41.3769 15.2317 41.8577 14.4584C45.0958 9.26449 45.1158 7.04031 44.615 6.54409C44.4822 6.41059 44.2193 6.31739 43.8086 6.31739C42.7067 6.31739 40.5179 7.00001 36.7864 9.42822C36.0251 9.92444 35.2387 10.466 34.4349 11.0504C34.2545 11.1814 34.0692 11.3149 33.8864 11.4509C33.4381 11.1914 32.9823 10.9521 32.5115 10.7355C33.621 9.90429 34.6978 9.14862 35.7321 8.47608C40.6281 5.28968 43.8511 4.40807 45.3011 5.84635C46.7537 7.28716 45.9197 10.5365 42.8219 15.5088V15.5038Z" fill="url(#paint0_linear_1434_408)"/>
<path d="M8.25409 15.5038C9.40608 17.3527 10.816 19.3401 12.4263 21.403C12.549 21.5592 12.6742 21.7154 12.7969 21.8715C13.8963 23.2595 15.0859 24.6751 16.3481 26.1058C16.6035 26.393 16.8615 26.6851 17.1244 26.9748C17.172 27.0302 17.2221 27.0856 17.2722 27.1385C17.5301 27.4257 17.7931 27.7129 18.0585 28C18.915 28.9295 19.7991 29.8615 20.7106 30.7884C21.7274 31.8262 22.7492 32.8338 23.7709 33.8061C24.0539 34.0731 24.3344 34.3401 24.6149 34.602C24.67 34.6524 24.7251 34.7028 24.7777 34.7532C25.0632 35.0176 25.3486 35.2821 25.6316 35.5416C26.9239 36.7204 28.2061 37.8338 29.4658 38.8715C29.621 38.9975 29.7738 39.1234 29.9266 39.2494C31.9551 40.8993 33.911 42.3451 35.7316 43.529C39.1099 45.7254 41.6894 46.8287 43.4424 46.8287C44.2313 46.8287 44.8499 46.6045 45.3032 46.1587C45.7665 45.7003 45.9969 45.0579 45.9969 44.2368C45.9969 42.4761 44.935 39.8867 42.8239 36.4987C42.1702 35.4509 41.434 34.3577 40.6226 33.2292C40.4022 33.7003 40.1568 34.1562 39.8913 34.602C40.024 34.7884 40.1543 34.9723 40.282 35.1587C40.853 35.9773 41.3789 36.7758 41.8622 37.5491C45.1003 42.7431 45.1178 44.9673 44.617 45.461C44.1186 45.9572 41.9073 45.9068 36.7884 42.5768C36.0271 42.0806 35.2408 41.5391 34.4369 40.9547C34.2565 40.8237 34.0712 40.6902 33.8884 40.5542C31.9976 39.1562 30.0117 37.5365 27.9807 35.7456C27.6301 35.4358 27.277 35.1184 26.9239 34.7985C26.8487 34.7305 26.7736 34.66 26.696 34.5919C26.3504 34.2771 26.0023 33.9547 25.6542 33.6323C24.3444 32.4081 23.0271 31.1234 21.7199 29.7884C20.5278 28.5718 19.3758 27.3476 18.2739 26.131C17.9534 25.7783 17.6378 25.4257 17.3273 25.0731C17.2597 24.9975 17.192 24.9169 17.1244 24.8413C16.8089 24.4836 16.5009 24.126 16.1953 23.7708C14.3196 21.5819 12.6317 19.4358 11.1892 17.4055C11.0539 17.2166 10.9237 17.0302 10.796 16.8464C10.225 16.0277 9.69909 15.2317 9.21826 14.4584C5.98016 9.26449 5.96013 7.04031 6.46099 6.54409C6.59372 6.41059 6.85668 6.31739 7.26739 6.31739C8.36929 6.31739 10.5581 7.00001 14.2895 9.42822C15.0508 9.92444 15.8372 10.466 16.6411 11.0504C16.8214 11.1814 17.0067 11.3149 17.1895 11.4509C17.6378 11.1914 18.0936 10.9521 18.5644 10.7355C17.455 9.90429 16.3781 9.14862 15.3439 8.47608C10.4479 5.28968 7.22481 4.40807 5.77481 5.84635C4.32229 7.28716 5.15624 10.5365 8.25409 15.5088V15.5038Z" fill="url(#paint1_linear_1434_408)"/>
<path d="M89.5401 1.92188C89.5401 4.90928 87.1384 7.33749 84.1758 7.33749C87.1409 7.33749 89.5401 10.942 89.5401 15.3879C89.5401 10.942 91.9417 7.33749 94.9018 7.33749C91.9417 7.33749 89.5401 4.9118 89.5401 1.92188Z" fill="#563AFF"/>
<path d="M184.008 15.3854C184.008 10.9396 186.409 7.33505 189.37 7.33505C186.409 7.33505 184.008 4.90936 184.008 1.91943C184.008 4.90684 181.606 7.33505 178.644 7.33505C181.609 7.33505 184.008 10.9396 184.008 15.3854Z" fill="#563AFF"/>
</g>
<defs>
<linearGradient id="paint0_linear_1434_408" x1="12.6973" y1="14.5391" x2="52.2009" y2="49.3922" gradientUnits="userSpaceOnUse">
<stop offset="0.11" stop-color="#F9B7E6"/>
<stop offset="0.15" stop-color="#D49BEB"/>
<stop offset="0.2" stop-color="#AE7DF1"/>
<stop offset="0.26" stop-color="#8E65F6"/>
<stop offset="0.31" stop-color="#7552FA"/>
<stop offset="0.37" stop-color="#6344FC"/>
<stop offset="0.43" stop-color="#593CFE"/>
<stop offset="0.5" stop-color="#563AFF"/>
</linearGradient>
<linearGradient id="paint1_linear_1434_408" x1="38.3787" y1="14.5391" x2="-1.12492" y2="49.3922" gradientUnits="userSpaceOnUse">
<stop offset="0.13" stop-color="#F9B7E6"/>
<stop offset="0.16" stop-color="#D49BEB"/>
<stop offset="0.21" stop-color="#AE7DF1"/>
<stop offset="0.26" stop-color="#8E65F6"/>
<stop offset="0.32" stop-color="#7552FA"/>
<stop offset="0.37" stop-color="#6344FC"/>
<stop offset="0.43" stop-color="#593CFE"/>
<stop offset="0.5" stop-color="#563AFF"/>
</linearGradient>
<clipPath id="clip0_1434_408">
<rect width="308" height="52" fill="white"/>
</clipPath>
</defs>
</svg>
