<svg width="24" height="22" viewBox="0 0 24 22" fill="none" xmlns="http://www.w3.org/2000/svg">
<path d="M23.8413 3.63685C22.9677 4.02565 22.0269 4.28485 21.0429 4.40485C22.0509 3.80005 22.8189 2.84485 23.1837 1.71205C22.2429 2.26405 21.2013 2.67205 20.0925 2.88805C19.2045 1.94245 17.9373 1.35205 16.5357 1.35205C13.8429 1.35205 11.6637 3.53125 11.6637 6.22405C11.6637 6.60805 11.7069 6.97765 11.7885 7.33285C7.7421 7.13125 4.1517 5.19205 1.7469 2.24485C1.3293 2.96485 1.0893 3.80005 1.0893 4.69285C1.0893 6.38245 1.9485 7.87525 3.2541 8.74885C2.4573 8.72485 1.7037 8.50405 1.0461 8.13925C1.0461 8.15845 1.0461 8.17765 1.0461 8.20165C1.0461 10.5632 2.7261 12.5312 4.9533 12.9776C4.5453 13.088 4.1133 13.1504 3.6717 13.1504C3.3597 13.1504 3.0525 13.1216 2.7549 13.064C3.3741 14.9984 5.1741 16.4096 7.3053 16.448C5.6397 17.7536 3.5373 18.5312 1.2573 18.5312C0.863703 18.5312 0.474903 18.5072 0.0957031 18.464C2.2509 19.8464 4.8141 20.6528 7.5645 20.6528C16.5261 20.6528 21.4269 13.232 21.4269 6.79045C21.4269 6.57925 21.4221 6.36805 21.4125 6.16165C22.3629 5.47045 23.1885 4.61125 23.8413 3.63685Z" fill="#ADADAD"/>
</svg>
