<svg width="1333" height="845" viewBox="0 0 1333 845" fill="none" xmlns="http://www.w3.org/2000/svg">
<circle cx="2" cy="2" r="2" transform="matrix(-1 0 0 1 1132 0)" fill="white"/>
<circle cx="2" cy="2" r="2" transform="matrix(-1 0 0 1 1235 381)" fill="white"/>
<circle cx="2" cy="2" r="2" transform="matrix(-1 0 0 1 684 199)" fill="white"/>
<circle cx="2" cy="2" r="2" transform="matrix(-1 0 0 1 1219 490)" fill="white"/>
<circle cx="2" cy="2" r="2" transform="matrix(-1 0 0 1 1333 741)" fill="white"/>
<circle cx="2" cy="2" r="2" transform="matrix(-1 0 0 1 24 625)" fill="white"/>
<circle cx="2" cy="2" r="2" transform="matrix(-1 0 0 1 92 819)" fill="white"/>
<circle cx="2" cy="2" r="2" transform="matrix(-1 0 0 1 407 525)" fill="white"/>
<circle cx="2" cy="2" r="2" transform="matrix(-1 0 0 1 312 175)" fill="white"/>
<circle cx="2" cy="2" r="2" transform="matrix(-1 0 0 1 513 52)" fill="white"/>
<circle cx="2" cy="2" r="2" transform="matrix(-1 0 0 1 4 75)" fill="white"/>
<circle cx="2" cy="2" r="2" transform="matrix(-1 0 0 1 283 573)" fill="white"/>
<circle cx="2" cy="2" r="2" transform="matrix(-1 0 0 1 854 681)" fill="white"/>
<circle cx="2" cy="2" r="2" transform="matrix(-1 0 0 1 984 539)" fill="white"/>
<circle cx="2" cy="2" r="2" transform="matrix(-1 0 0 1 1043 235)" fill="white"/>
<circle cx="2" cy="2" r="2" transform="matrix(-1 0 0 1 984 75)" fill="white"/>
<circle cx="203" cy="24" r="2" fill="white"/>
<circle cx="100" cy="405" r="2" fill="white"/>
<circle cx="651" cy="223" r="2" fill="white"/>
<circle cx="116" cy="514" r="2" fill="white"/>
<circle cx="2" cy="765" r="2" fill="white"/>
<circle cx="1311" cy="649" r="2" fill="white"/>
<circle cx="1243" cy="843" r="2" fill="white"/>
<circle cx="928" cy="549" r="2" fill="white"/>
<circle cx="1023" cy="199" r="2" fill="white"/>
<circle cx="822" cy="76" r="2" fill="white"/>
<circle cx="1331" cy="99" r="2" fill="white"/>
<circle cx="1052" cy="597" r="2" fill="white"/>
<circle cx="481" cy="705" r="2" fill="white"/>
<circle cx="351" cy="563" r="2" fill="white"/>
<circle cx="292" cy="259" r="2" fill="white"/>
<circle cx="351" cy="99" r="2" fill="white"/>
</svg>
