<svg width="24" height="24" viewBox="0 0 24 24" fill="none" xmlns="http://www.w3.org/2000/svg">
<path d="M14.2087 10.6687C13.5188 10.6687 12.9742 11.2617 12.9742 12C12.9742 12.7383 13.5309 13.3313 14.2087 13.3313C14.8985 13.3313 15.4432 12.7383 15.4432 12C15.4432 11.2617 14.8864 10.6687 14.2087 10.6687ZM9.79113 10.6687C9.10127 10.6687 8.55664 11.2617 8.55664 12C8.55664 12.7383 9.11337 13.3313 9.79113 13.3313C10.481 13.3313 11.0256 12.7383 11.0256 12C11.0377 11.2617 10.481 10.6687 9.79113 10.6687Z" fill="#ADADAD"/>
<path d="M20.1032 0H3.88539C2.51776 0 1.4043 1.11346 1.4043 2.48109V18.6989C1.4043 20.0666 2.51776 21.18 3.88539 21.18H17.61L16.9686 18.9652L18.5178 20.3933L19.9822 21.7368L22.5964 24V2.48109C22.5843 1.11346 21.4709 0 20.1032 0ZM15.4315 15.6732C15.4315 15.6732 14.9958 15.1528 14.6327 14.705C16.2182 14.2572 16.8234 13.2769 16.8234 13.2769C16.3271 13.6036 15.8551 13.8336 15.4315 13.9909C14.8264 14.2451 14.2454 14.4024 13.6766 14.5113C12.5147 14.7292 11.4497 14.6687 10.542 14.4993C9.8521 14.3661 9.25906 14.1846 8.76284 13.9788C8.48448 13.8699 8.18191 13.7368 7.87933 13.5673C7.84303 13.5431 7.80672 13.531 7.77041 13.5068C7.7462 13.4947 7.7341 13.4826 7.722 13.4826C7.50415 13.3616 7.38312 13.2769 7.38312 13.2769C7.38312 13.2769 7.96405 14.233 9.50112 14.6929C9.13803 15.1528 8.69023 15.6853 8.69023 15.6853C6.01549 15.6006 4.99885 13.8578 4.99885 13.8578C4.99885 9.99698 6.74166 6.86234 6.74166 6.86234C8.48448 5.56733 10.1305 5.60364 10.1305 5.60364L10.2515 5.74888C8.07298 6.36612 7.08054 7.32225 7.08054 7.32225C7.08054 7.32225 7.34681 7.17701 7.79461 6.98337C9.08962 6.41453 10.1184 6.2693 10.542 6.22089C10.6146 6.20879 10.6751 6.19668 10.7477 6.19668C11.486 6.09986 12.3211 6.07565 13.1925 6.17248C14.3423 6.30561 15.5768 6.64449 16.8355 7.32225C16.8355 7.32225 15.8793 6.41453 13.8218 5.79729L13.9913 5.60364C13.9913 5.60364 15.6494 5.56733 17.3801 6.86234C17.3801 6.86234 19.1229 9.99698 19.1229 13.8578C19.1229 13.8457 18.1063 15.5885 15.4315 15.6732Z" fill="#ADADAD"/>
</svg>
