<svg width="42" height="41" viewBox="0 0 42 41" fill="none" xmlns="http://www.w3.org/2000/svg">
<g clip-path="url(#clip0_41_183)">
<path d="M15.8749 6.83337H9.04159C8.0981 6.83337 7.33325 7.59822 7.33325 8.54171V15.375C7.33325 16.3185 8.0981 17.0834 9.04159 17.0834H15.8749C16.8184 17.0834 17.5833 16.3185 17.5833 15.375V8.54171C17.5833 7.59822 16.8184 6.83337 15.8749 6.83337Z" stroke="#563AFF" stroke-linecap="round" stroke-linejoin="round"/>
<path d="M15.8749 23.9166H9.04159C8.0981 23.9166 7.33325 24.6815 7.33325 25.625V32.4583C7.33325 33.4018 8.0981 34.1666 9.04159 34.1666H15.8749C16.8184 34.1666 17.5833 33.4018 17.5833 32.4583V25.625C17.5833 24.6815 16.8184 23.9166 15.8749 23.9166Z" stroke="#563AFF" stroke-linecap="round" stroke-linejoin="round"/>
<path d="M32.9584 23.9166H26.1251C25.1816 23.9166 24.4167 24.6815 24.4167 25.625V32.4583C24.4167 33.4018 25.1816 34.1666 26.1251 34.1666H32.9584C33.9019 34.1666 34.6667 33.4018 34.6667 32.4583V25.625C34.6667 24.6815 33.9019 23.9166 32.9584 23.9166Z" stroke="#563AFF" stroke-linecap="round" stroke-linejoin="round"/>
<path d="M24.4167 11.9584H34.6667" stroke="#563AFF" stroke-linecap="round" stroke-linejoin="round"/>
<path d="M29.5417 6.83337V17.0834" stroke="#563AFF" stroke-linecap="round" stroke-linejoin="round"/>
</g>
<defs>
<clipPath id="clip0_41_183">
<rect width="41" height="41" fill="white" transform="translate(0.5)"/>
</clipPath>
</defs>
</svg>
