<svg width="1205" height="1160" viewBox="0 0 1205 1160" fill="none" xmlns="http://www.w3.org/2000/svg">
<circle cx="712.625" cy="446.625" r="508.354" transform="rotate(-143 712.625 446.625)" stroke="url(#paint0_linear_523_32)" stroke-opacity="0.3"/>
<circle cx="712.619" cy="447.045" r="325.169" transform="rotate(-143 712.619 447.045)" stroke="url(#paint1_linear_523_32)" stroke-opacity="0.3"/>
<circle cx="713.138" cy="447.138" r="153.121" transform="rotate(-143 713.138 447.138)" stroke="url(#paint2_linear_523_32)" stroke-opacity="0.3"/>
<g clip-path="url(#clip0_523_32)">
<g filter="url(#filter0_b_523_32)">
<rect x="874" y="330" width="300" height="300" rx="24" transform="rotate(16 874 330)" fill="white" fill-opacity="0.06"/>
<rect x="874.343" y="330.618" width="299" height="299" rx="23.5" transform="rotate(16 874.343 330.618)" stroke="url(#paint3_linear_523_32)"/>
</g>
<path d="M1060.83 421.501L1063.72 422.328L1052.81 436.678L1050.32 435.963L1048.51 417.968L1051.44 418.808L1052.65 432.537L1060.83 421.501ZM1065.68 440.717C1061.85 439.619 1059.81 436.014 1060.89 432.253C1061.97 428.493 1065.6 426.538 1069.43 427.636C1073.24 428.728 1075.27 432.333 1074.2 436.07C1073.12 439.831 1069.49 441.809 1065.68 440.717ZM1066.38 438.272C1068.73 438.946 1070.91 437.722 1071.6 435.323C1072.28 432.947 1071.08 430.756 1068.73 430.082C1066.35 429.4 1064.18 430.625 1063.5 433.001C1062.81 435.4 1064 437.59 1066.38 438.272ZM1075.17 443.088L1080.02 426.178L1082.58 426.912L1077.73 443.822L1075.17 443.088ZM1086.74 446.756C1083.3 445.77 1081.7 442.913 1082.66 439.545L1084.73 432.347L1087.29 433.082L1085.32 439.933C1084.7 442.102 1085.5 443.754 1087.44 444.31C1089.38 444.866 1090.91 443.858 1091.53 441.713L1093.49 434.861L1096.06 435.595L1093.99 442.793C1093.03 446.162 1090.18 447.741 1086.74 446.756ZM1113.5 440.299C1116.13 441.053 1117.33 443.569 1116.53 446.384L1114.26 454.297L1111.7 453.563L1113.79 446.273C1114.36 444.265 1113.81 442.884 1112.26 442.44C1110.6 441.964 1108.9 443.1 1108.3 445.222L1106.34 452.028L1103.85 451.314L1105.94 444.023C1106.52 442.016 1105.97 440.634 1104.42 440.191C1102.76 439.715 1101.06 440.851 1100.45 442.973L1098.5 449.779L1095.94 449.044L1099.51 436.587L1101.31 437.103L1101.29 438.843C1102.56 437.961 1104.21 437.633 1105.7 438.063C1107.39 438.546 1108.49 439.76 1108.81 441.326C1110.1 440.246 1111.86 439.829 1113.5 440.299ZM1131.36 452.509C1131.28 452.786 1131.17 453.056 1131.05 453.32L1120.94 450.422C1120.68 452.545 1121.78 454.207 1123.81 454.79C1125.31 455.22 1126.71 454.871 1127.71 453.91L1130.41 454.684C1128.66 457.029 1125.91 457.989 1123.12 457.189C1119.48 456.144 1117.54 452.542 1118.61 448.804C1119.68 445.09 1123.23 443.063 1126.87 444.108C1130.7 445.206 1132.39 448.887 1131.36 452.509ZM1126.21 446.438C1124.29 445.889 1122.55 446.639 1121.61 448.366L1129.13 450.522C1129.21 448.498 1128.12 446.987 1126.21 446.438Z" fill="white"/>
<path d="M1010.29 461.069C1009.53 463.722 1007.18 464.87 1004.36 464.436L1003.85 466.189L1001.76 465.587L1002.26 463.834C999.329 462.644 998.078 460.213 998.905 457.329L1001.49 458.07C1000.98 459.847 1002.13 461.226 1003.95 461.748C1005.62 462.225 1007.28 461.729 1007.68 460.344C1008.11 458.822 1006.61 457.99 1004.86 457.038C1002.62 455.797 1000.03 454.357 1000.97 451.081C1001.69 448.589 1003.82 447.503 1006.61 447.954L1007.08 446.317L1009.23 446.932L1008.76 448.57C1011.37 449.719 1012.41 451.939 1011.64 454.615L1009.13 453.894C1009.59 452.279 1008.57 451.039 1006.94 450.569C1005.41 450.132 1003.92 450.454 1003.57 451.7C1003.16 453.107 1004.62 453.926 1006.32 454.887C1008.6 456.165 1011.26 457.677 1010.29 461.069ZM1016.13 465.091L1021.85 466.731L1021.18 469.084L1010.68 466.074L1010.87 465.405C1019.68 460.017 1020.86 458.98 1021.36 457.227C1021.75 455.865 1021.08 454.701 1019.7 454.304C1018.27 453.894 1017.04 454.539 1016.65 455.9L1016.55 456.246L1014.06 455.532L1014.16 455.163C1014.95 452.417 1017.45 451.111 1020.37 451.951C1023.21 452.765 1024.65 455.225 1023.88 457.925C1023.3 459.955 1022.04 461.368 1016.13 465.091ZM1035.72 467.51L1035.08 469.725L1033.58 469.295L1032.7 472.386L1030.32 471.705L1031.21 468.614L1023.55 466.417L1023.69 465.91L1032.32 455.675L1034.86 456.403L1027.48 465.149L1031.89 466.412L1033.5 462.257L1035.44 462.812L1034.22 467.08L1035.72 467.51ZM1035.55 476.799L1035.92 475.484C1037.03 475.528 1037.67 474.886 1037.95 473.894L1036.36 473.438L1037.19 470.531L1040.1 471.364L1039.33 474.063C1038.74 476.117 1037.35 476.966 1035.55 476.799ZM1049.62 466.628C1052.76 467.528 1054.36 470.308 1053.54 473.169C1052.7 476.099 1049.82 477.596 1046.87 476.75C1043.89 475.896 1042.32 473.198 1043.05 470.364L1045.55 471.078C1045.19 472.597 1045.99 473.976 1047.53 474.419C1049.08 474.863 1050.57 474.017 1051.02 472.448C1051.49 470.81 1050.61 469.26 1048.9 468.77L1044.84 467.606L1044.64 467.174L1047.56 460.046L1055.5 462.322L1054.84 464.606L1048.94 462.912L1047.63 466.059L1049.62 466.628ZM1058.11 463.071L1068.74 466.12L1068.63 466.512L1058.39 479.755L1055.76 479.001L1064.77 467.452L1057.45 465.355L1058.11 463.071ZM1077.21 476.312C1078.26 477.437 1078.64 478.993 1078.19 480.539C1077.38 483.353 1074.53 484.706 1071.25 483.766C1067.93 482.814 1066.25 480.211 1067.07 477.35C1067.51 475.828 1068.63 474.701 1070.15 474.287C1069.4 473.248 1069.16 471.906 1069.53 470.614C1070.24 468.146 1072.81 466.988 1075.81 467.848C1078.81 468.708 1080.37 471.027 1079.66 473.518C1079.28 474.833 1078.36 475.868 1077.21 476.312ZM1075.22 469.924C1073.67 469.481 1072.32 470.093 1071.96 471.362C1071.59 472.654 1072.42 473.864 1073.96 474.307C1075.48 474.744 1076.8 474.149 1077.17 472.857C1077.54 471.588 1076.74 470.361 1075.22 469.924ZM1071.88 481.575C1073.7 482.097 1075.25 481.393 1075.69 479.848C1076.14 478.302 1075.2 476.883 1073.37 476.361C1071.55 475.838 1070 476.542 1069.56 478.088C1069.11 479.634 1070.06 481.052 1071.88 481.575ZM1078.74 489.184L1079.11 487.869C1080.22 487.913 1080.86 487.27 1081.14 486.278L1079.55 485.822L1080.38 482.915L1083.29 483.748L1082.52 486.448C1081.93 488.501 1080.54 489.35 1078.74 489.184ZM1094.15 479.647C1096.43 480.75 1097.48 483.098 1096.77 485.567C1095.92 488.52 1093.05 489.994 1090.03 489.127C1087.13 488.294 1085.58 485.678 1086.29 482.761L1088.76 483.469C1088.41 485.018 1089.2 486.367 1090.7 486.797C1092.32 487.26 1093.81 486.414 1094.28 484.753C1094.75 483.115 1093.83 481.628 1092.08 481.125L1090.14 480.569L1090.27 480.108L1094.87 476.084L1089.15 474.443L1089.8 472.159L1099.19 474.852L1099.04 475.382L1094.15 479.647ZM1102.51 489.859L1108.23 491.5L1107.56 493.853L1097.06 490.843L1097.25 490.174C1106.06 484.786 1107.23 483.748 1107.74 481.995C1108.13 480.634 1107.46 479.47 1106.08 479.073C1104.65 478.663 1103.41 479.308 1103.02 480.669L1102.93 481.015L1100.43 480.3L1100.54 479.931C1101.33 477.186 1103.82 475.879 1106.75 476.72C1109.59 477.533 1111.03 479.994 1110.26 482.693C1109.68 484.723 1108.42 486.136 1102.51 489.859ZM1113.62 478.989L1124.26 482.038L1124.14 482.43L1113.91 495.673L1111.28 494.919L1120.28 483.37L1112.97 481.273L1113.62 478.989Z" fill="white"/>
<path d="M1088.59 669.824C1028.62 626.702 1032.92 673.709 1003.34 630.118C973.75 586.528 970.77 617.57 956.975 595.371C943.179 573.173 880.33 628.457 852.696 593.002C825.061 557.546 814.929 537.091 814.929 537.091L797.901 596.473L1085.94 679.066L1088.59 669.824Z" fill="url(#paint4_linear_523_32)"/>
<path d="M1088.59 669.824C1028.62 626.702 1032.92 673.709 1003.34 630.118C973.75 586.528 970.77 617.57 956.975 595.371C943.179 573.173 880.33 628.457 852.696 593.002C825.061 557.546 814.929 537.091 814.929 537.091" stroke="#D84B4B" stroke-width="2" stroke-linecap="round"/>
</g>
<g clip-path="url(#clip1_523_32)">
<g filter="url(#filter1_b_523_32)">
<rect x="679" y="238" width="300" height="300" rx="24" fill="white" fill-opacity="0.06"/>
<rect x="679.5" y="238.5" width="299" height="299" rx="23.5" stroke="url(#paint5_linear_523_32)"/>
</g>
<path d="M725.152 295H722.32L720.376 282.832L714.904 294.76H714.208L708.736 282.832L706.768 295H703.96L706.72 278.2H709.432L714.544 289.624L719.68 278.2H722.44L725.152 295ZM738.736 282.04H740.776V295H738.64L738.376 293.44C737.2 294.616 735.568 295.336 733.672 295.336C729.808 295.336 726.928 292.408 726.928 288.52C726.928 284.632 729.808 281.728 733.672 281.728C735.592 281.728 737.248 282.448 738.424 283.672L738.736 282.04ZM733.888 292.768C736.336 292.768 738.112 290.968 738.112 288.52C738.112 286.072 736.336 284.272 733.888 284.272C731.44 284.272 729.64 286.096 729.64 288.52C729.64 290.944 731.44 292.768 733.888 292.768ZM750.815 281.968H751.967V284.488H750.551C748.343 284.488 747.263 285.76 747.263 288.112V295H744.599V282.04H746.399L746.831 283.816C747.767 282.592 749.039 281.968 750.815 281.968ZM762.468 295L758.58 289.48H756.972V295H754.308V277.408H756.972V287.056H758.604L762.108 282.04H765.252L760.86 288.28L765.732 295H762.468ZM779.575 288.568C779.575 288.856 779.551 289.144 779.503 289.432H768.991C769.327 291.544 770.839 292.84 772.951 292.84C774.511 292.84 775.759 292.12 776.455 290.92H779.263C778.231 293.656 775.855 295.336 772.951 295.336C769.159 295.336 766.303 292.408 766.303 288.52C766.303 284.656 769.159 281.728 772.951 281.728C776.935 281.728 779.575 284.8 779.575 288.568ZM772.951 284.152C770.959 284.152 769.495 285.352 769.063 287.272H776.887C776.407 285.304 774.943 284.152 772.951 284.152ZM788 292.6H789.488V295H787.496C784.664 295 782.912 293.248 782.912 290.392V284.344H780.584V283.816L785.096 279.016H785.552V282.04H789.416V284.344H785.576V290.176C785.576 291.736 786.44 292.6 788 292.6ZM805.93 295.312C800.962 295.312 797.29 291.64 797.29 286.624C797.29 281.584 800.962 277.912 805.93 277.912C809.89 277.912 813.082 280.384 813.97 284.176H811.186C810.37 281.944 808.402 280.576 805.93 280.576C802.57 280.576 800.098 283.12 800.098 286.624C800.098 290.128 802.57 292.648 805.93 292.648C808.498 292.648 810.466 291.184 811.234 288.808H814.042C813.154 292.768 809.962 295.312 805.93 295.312ZM827.564 282.04H829.604V295H827.468L827.204 293.44C826.028 294.616 824.396 295.336 822.5 295.336C818.636 295.336 815.756 292.408 815.756 288.52C815.756 284.632 818.636 281.728 822.5 281.728C824.42 281.728 826.076 282.448 827.252 283.672L827.564 282.04ZM822.716 292.768C825.164 292.768 826.94 290.968 826.94 288.52C826.94 286.072 825.164 284.272 822.716 284.272C820.268 284.272 818.468 286.096 818.468 288.52C818.468 290.944 820.268 292.768 822.716 292.768ZM840.387 281.728C844.251 281.728 847.107 284.632 847.107 288.52C847.107 292.408 844.251 295.336 840.387 295.336C838.707 295.336 837.219 294.76 836.091 293.776V299.656H833.427V282.04H835.203L835.707 283.648C836.883 282.448 838.515 281.728 840.387 281.728ZM840.171 292.792C842.619 292.792 844.395 290.968 844.395 288.52C844.395 286.096 842.619 284.272 840.171 284.272C837.723 284.272 835.923 286.096 835.923 288.52C835.923 290.968 837.723 292.792 840.171 292.792Z" fill="white"/>
<path d="M715.912 332.296C715.912 335.056 713.968 336.808 711.136 337.168V338.992H708.952V337.168C705.808 336.832 703.936 334.84 703.936 331.84H706.624C706.624 333.688 708.112 334.696 710.008 334.696C711.736 334.696 713.2 333.76 713.2 332.32C713.2 330.736 711.52 330.352 709.576 329.92C707.08 329.344 704.2 328.672 704.2 325.264C704.2 322.672 705.952 321.04 708.76 320.704V319H710.992V320.704C713.824 321.088 715.432 322.936 715.432 325.72H712.816C712.816 324.04 711.496 323.128 709.792 323.128C708.208 323.128 706.864 323.848 706.864 325.144C706.864 326.608 708.496 326.992 710.392 327.448C712.936 328.048 715.912 328.768 715.912 332.296ZM717.524 321.04H722.9V337H720.356V323.392H717.524V321.04ZM737.51 331.48V333.784H735.95V337H733.478V333.784H725.51V333.256L730.982 321.04H733.622L728.942 331.48H733.526L733.934 327.04H735.95V331.48H737.51ZM744.443 326.8C747.707 326.8 750.011 329.032 750.011 332.008C750.011 335.056 747.659 337.288 744.587 337.288C741.491 337.288 739.235 335.128 739.163 332.2H741.755C741.827 333.76 742.979 334.864 744.587 334.864C746.195 334.864 747.395 333.64 747.395 332.008C747.395 330.304 746.123 329.056 744.347 329.056H740.123L739.811 328.696L740.651 321.04H748.907V323.416H742.763L742.379 326.8H744.443ZM752.704 340.456V339.088C753.784 338.824 754.216 338.032 754.216 337H752.56V333.976H755.584V336.784C755.584 338.92 754.48 340.12 752.704 340.456ZM763.428 326.8C766.692 326.8 768.996 329.032 768.996 332.008C768.996 335.056 766.644 337.288 763.572 337.288C760.476 337.288 758.22 335.128 758.148 332.2H760.74C760.812 333.76 761.964 334.864 763.572 334.864C765.18 334.864 766.38 333.64 766.38 332.008C766.38 330.304 765.108 329.056 763.332 329.056H759.108L758.796 328.696L759.636 321.04H767.892V323.416H761.748L761.364 326.8H763.428ZM770.608 321.04H781.672V321.448L775.48 337H772.744L778.216 323.416H770.608V321.04ZM792.616 328.504C793.936 329.296 794.728 330.688 794.728 332.296C794.728 335.224 792.352 337.312 788.944 337.312C785.488 337.312 783.16 335.272 783.16 332.296C783.16 330.712 783.928 329.32 785.272 328.504C784.264 327.712 783.664 326.488 783.664 325.144C783.664 322.576 785.824 320.752 788.944 320.752C792.064 320.752 794.2 322.552 794.2 325.144C794.2 326.512 793.6 327.76 792.616 328.504ZM788.944 322.912C787.336 322.912 786.208 323.872 786.208 325.192C786.208 326.536 787.336 327.472 788.944 327.472C790.528 327.472 791.632 326.536 791.632 325.192C791.632 323.872 790.528 322.912 788.944 322.912ZM788.944 335.032C790.84 335.032 792.136 333.928 792.136 332.32C792.136 330.712 790.84 329.608 788.944 329.608C787.048 329.608 785.752 330.712 785.752 332.32C785.752 333.928 787.048 335.032 788.944 335.032ZM797.634 340.456V339.088C798.714 338.824 799.146 338.032 799.146 337H797.49V333.976H800.514V336.784C800.514 338.92 799.41 340.12 797.634 340.456ZM809.821 327.04C812.317 327.472 813.973 329.44 813.973 332.008C813.973 335.08 811.621 337.288 808.477 337.288C805.453 337.288 803.245 335.2 803.125 332.2H805.693C805.789 333.784 806.917 334.864 808.477 334.864C810.157 334.864 811.357 333.64 811.357 331.912C811.357 330.208 810.061 329.032 808.237 329.032H806.221V328.552L809.533 323.416H803.581V321.04H813.349V321.592L809.821 327.04ZM820.675 334.552H826.627V337H815.707V336.304C822.691 328.696 823.531 327.376 823.531 325.552C823.531 324.136 822.571 323.2 821.131 323.2C819.643 323.2 818.635 324.16 818.635 325.576V325.936H816.043V325.552C816.043 322.696 818.083 320.752 821.131 320.752C824.083 320.752 826.147 322.72 826.147 325.528C826.147 327.64 825.331 329.344 820.675 334.552ZM828.358 321.04H839.422V321.448L833.23 337H830.494L835.966 323.416H828.358V321.04Z" fill="white"/>
<path d="M679 504.086C748.534 479.164 731.443 523.165 771.898 489.418C812.354 455.672 806.661 486.332 826.041 468.796C845.421 451.26 890.597 521.726 926.934 495.261C963.271 468.797 978.649 451.926 978.649 451.926V513.701H679.003L679 504.086Z" fill="url(#paint6_linear_523_32)"/>
<path d="M679 504.086C748.534 479.164 731.443 523.165 771.898 489.418C812.354 455.672 806.661 486.332 826.041 468.796C845.421 451.26 890.597 521.726 926.934 495.261C963.271 468.797 978.649 451.926 978.649 451.926" stroke="#58BD7D" stroke-width="2" stroke-linecap="round"/>
</g>
<defs>
<filter id="filter0_b_523_32" x="769.988" y="308.679" width="413.711" height="413.711" filterUnits="userSpaceOnUse" color-interpolation-filters="sRGB">
<feFlood flood-opacity="0" result="BackgroundImageFix"/>
<feGaussianBlur in="BackgroundImageFix" stdDeviation="13.5"/>
<feComposite in2="SourceAlpha" operator="in" result="effect1_backgroundBlur_523_32"/>
<feBlend mode="normal" in="SourceGraphic" in2="effect1_backgroundBlur_523_32" result="shape"/>
</filter>
<filter id="filter1_b_523_32" x="652" y="211" width="354" height="354" filterUnits="userSpaceOnUse" color-interpolation-filters="sRGB">
<feFlood flood-opacity="0" result="BackgroundImageFix"/>
<feGaussianBlur in="BackgroundImageFix" stdDeviation="13.5"/>
<feComposite in2="SourceAlpha" operator="in" result="effect1_backgroundBlur_523_32"/>
<feBlend mode="normal" in="SourceGraphic" in2="effect1_backgroundBlur_523_32" result="shape"/>
</filter>
<linearGradient id="paint0_linear_523_32" x1="712.625" y1="-62.2292" x2="712.625" y2="955.479" gradientUnits="userSpaceOnUse">
<stop offset="0.692708" stop-color="#563AFF"/>
<stop offset="1" stop-color="#563AFF" stop-opacity="0"/>
</linearGradient>
<linearGradient id="paint1_linear_523_32" x1="712.619" y1="121.376" x2="712.619" y2="772.714" gradientUnits="userSpaceOnUse">
<stop offset="0.692708" stop-color="#563AFF"/>
<stop offset="1" stop-color="#563AFF" stop-opacity="0"/>
</linearGradient>
<linearGradient id="paint2_linear_523_32" x1="713.138" y1="293.517" x2="713.138" y2="600.759" gradientUnits="userSpaceOnUse">
<stop offset="0.692708" stop-color="#563AFF"/>
<stop offset="1" stop-color="#563AFF" stop-opacity="0"/>
</linearGradient>
<linearGradient id="paint3_linear_523_32" x1="1171.11" y1="332.189" x2="880.328" y2="627.792" gradientUnits="userSpaceOnUse">
<stop stop-color="white"/>
<stop offset="1" stop-color="white" stop-opacity="0"/>
</linearGradient>
<linearGradient id="paint4_linear_523_32" x1="958.949" y1="578.388" x2="941.922" y2="637.77" gradientUnits="userSpaceOnUse">
<stop stop-color="#D84B4B" stop-opacity="0.53"/>
<stop offset="1" stop-color="#D84B4B" stop-opacity="0"/>
</linearGradient>
<linearGradient id="paint5_linear_523_32" x1="679" y1="538" x2="979" y2="238" gradientUnits="userSpaceOnUse">
<stop stop-color="white"/>
<stop offset="1" stop-color="white" stop-opacity="0"/>
</linearGradient>
<linearGradient id="paint6_linear_523_32" x1="828.825" y1="451.926" x2="828.825" y2="513.701" gradientUnits="userSpaceOnUse">
<stop stop-color="#58BD7D" stop-opacity="0.271"/>
<stop offset="1" stop-color="#58BD7D" stop-opacity="0"/>
</linearGradient>
<clipPath id="clip0_523_32">
<rect width="299.627" height="299.816" fill="white" transform="translate(874.78 330.482) rotate(16)"/>
</clipPath>
<clipPath id="clip1_523_32">
<rect width="300" height="300" fill="white" transform="translate(679 238)"/>
</clipPath>
</defs>
</svg>
