<svg width="132" height="133" viewBox="0 0 132 133" fill="none" xmlns="http://www.w3.org/2000/svg">
<path d="M121.49 100.014C117.783 94.1129 113.25 87.7734 108.057 81.1891C107.663 80.6931 107.263 80.1905 106.869 79.688C106.378 81.2085 105.803 82.6902 105.151 84.1334C105.106 84.2364 105.054 84.346 105.003 84.4491C104.919 84.6294 104.835 84.8098 104.744 84.9838C104.176 86.1885 103.543 87.3546 102.859 88.495C103.201 88.9717 103.537 89.442 103.866 89.9188C105.338 92.0126 106.695 94.0549 107.941 96.0328C116.291 109.317 116.337 115.006 115.045 116.269C113.76 117.538 108.057 117.409 94.8569 108.892C92.8937 107.623 90.8658 106.238 88.7928 104.743C88.3278 104.408 87.8499 104.067 87.3785 103.719C82.5026 100.143 77.3813 96.0005 72.1438 91.4199C72.0405 91.3297 71.9307 91.2331 71.8274 91.1429C75.0177 88.1213 78.208 84.9967 81.3853 81.7883C84.3109 78.8247 87.1653 75.8547 89.9165 72.8847C90.7754 71.9698 91.615 71.055 92.4416 70.1402C92.6095 69.9662 92.7645 69.7923 92.9195 69.6183C93.7655 68.6906 94.5922 67.7693 95.4123 66.848C99.4809 62.2802 103.304 57.7576 106.85 53.3251C107.25 52.8226 107.644 52.3201 108.044 51.824C113.23 45.2397 117.77 38.8938 121.477 32.9924C131.455 17.1244 134.142 6.74547 129.466 2.13904C124.79 -2.45449 114.419 0.3609 98.6543 10.5337C92.7903 14.3155 86.5002 18.9283 79.971 24.1983C79.4737 24.5978 78.9829 24.9972 78.4857 25.4031C80.0162 25.8734 81.5081 26.421 82.9611 27.0524C83.0645 27.0975 83.1742 27.1426 83.2776 27.1941C83.4584 27.2714 83.6392 27.3552 83.82 27.4454C85.0342 27.9994 86.216 28.6115 87.3655 29.2751C87.837 28.9272 88.3149 28.5793 88.7799 28.2507C90.8594 26.756 92.8808 25.3709 94.844 24.1017C104.467 17.8911 110.111 16.1451 112.953 16.1451C114.012 16.1451 114.683 16.3835 115.032 16.725C116.324 17.9942 116.272 23.6829 107.922 36.9675C106.682 38.9453 105.326 40.9812 103.853 43.075C103.524 43.5453 103.188 44.0221 102.839 44.5053C99.1193 49.6979 94.7665 55.187 89.9294 60.7856C89.1415 61.7004 88.3407 62.6088 87.5335 63.5237C87.3591 63.7169 87.1847 63.9231 87.0103 64.1164C86.2095 65.0183 85.3958 65.9203 84.5692 66.8222C81.7276 69.934 78.7569 73.0651 75.6828 76.1768C72.415 79.4883 69.115 82.6774 65.8407 85.7247C62.56 82.6774 59.2663 79.4883 55.9985 76.1768C52.9245 73.0651 49.9538 69.934 47.1122 66.8222C46.2856 65.9203 45.4718 65.0183 44.671 64.1164C44.4967 63.9231 44.3223 63.7169 44.1479 63.5237C43.3342 62.6088 42.5399 61.694 41.752 60.7856C36.9149 55.187 32.5621 49.6979 28.8422 44.5053C28.4935 44.0221 28.1577 43.5453 27.8283 43.075C26.3559 40.9812 24.9997 38.9453 23.7597 36.9675C15.4094 23.6829 15.3577 17.9942 16.6493 16.725C16.9916 16.3835 17.6697 16.1451 18.7288 16.1451C21.5704 16.1451 27.2148 17.8911 36.8374 24.1017C38.8006 25.3709 40.8285 26.756 42.9015 28.2507C43.3665 28.5857 43.8444 28.9272 44.3158 29.2751C45.4718 28.6115 46.6472 27.9994 47.8613 27.4454C48.0422 27.3552 48.223 27.2779 48.4038 27.1941C48.5072 27.1426 48.6169 27.0975 48.7203 27.0524C50.1733 26.421 51.6652 25.867 53.1957 25.4031C52.6985 24.9972 52.2012 24.5913 51.7104 24.1983C45.1877 18.9219 38.891 14.3155 33.0271 10.5337C17.2758 0.3609 6.90406 -2.46094 2.2284 2.13904C-2.44727 6.73902 0.239301 17.118 10.2171 32.986C13.924 38.8873 18.4641 45.2333 23.6499 51.8175C24.0503 52.3136 24.4443 52.8161 24.8447 53.3187C28.3902 57.7447 32.2134 62.2738 36.282 66.8416C37.1021 67.7629 37.9352 68.6906 38.7748 69.6119C38.9298 69.7858 39.0912 69.9662 39.2527 70.1337C40.0793 71.0486 40.9253 71.9634 41.7778 72.8782C44.5354 75.8483 47.3834 78.8183 50.309 81.7818C53.4863 84.9967 56.6766 88.1149 59.867 91.1364C59.7636 91.2266 59.6538 91.3233 59.5505 91.4135C54.313 95.9941 49.1917 100.137 44.3158 103.712C43.8444 104.06 43.3665 104.408 42.9015 104.737C40.822 106.231 38.8006 107.616 36.8374 108.886C23.637 117.403 17.9345 117.532 16.6493 116.262C15.3577 114.993 15.4094 109.311 23.7532 96.0263C24.9997 94.0485 26.3559 92.0062 27.8283 89.9123C28.1577 89.442 28.4935 88.9653 28.8358 88.4885C28.1512 87.3482 27.5248 86.1821 26.95 84.9773C26.8596 84.8034 26.7756 84.623 26.6917 84.4426C26.64 84.3395 26.5884 84.23 26.5431 84.1269C25.8909 82.6838 25.3161 81.202 24.8253 79.6816C24.4249 80.1841 24.0309 80.6866 23.637 81.1827C18.4447 87.767 13.9111 94.1129 10.2042 100.008C3.41669 110.838 0.000351512 119.104 0.000351512 124.728C0.000351512 127.35 0.743033 129.399 2.2284 130.861C3.68147 132.285 5.67702 133 8.21506 133C13.853 133 22.1581 129.482 33.0335 122.467C38.8975 118.685 45.1941 114.072 51.7233 108.802C52.2206 108.402 52.7049 108.003 53.2086 107.597C57.2579 104.286 61.3846 100.723 65.5501 96.9605C65.6534 96.8703 65.7503 96.7737 65.8536 96.6835C65.9569 96.7737 66.0538 96.8703 66.1571 96.9605C70.3162 100.723 74.4493 104.279 78.4986 107.597C78.9959 108.003 79.4867 108.402 79.9839 108.802C86.5131 114.072 92.8097 118.691 98.6737 122.467C109.549 129.482 117.854 133 123.492 133C126.03 133 128.026 132.285 129.479 130.861C130.964 129.399 131.707 127.35 131.707 124.728C131.707 119.104 128.291 110.838 121.49 100.014Z" fill="#563AFF"/>
<path d="M110.427 39.6539C107.456 44.3827 103.82 49.4659 99.6675 54.7423C99.3511 55.1418 99.0282 55.5412 98.7117 55.9406C95.8766 59.4905 92.809 63.1112 89.5541 66.7706C88.8954 67.505 88.2302 68.2524 87.5521 68.9932C87.4294 69.135 87.3003 69.2767 87.1711 69.412C86.5059 70.1465 85.8278 70.8809 85.1433 71.6154C82.9346 73.9927 80.6549 76.3764 78.3041 78.7473C75.6821 81.4016 73.0472 83.9786 70.4123 86.4654C69.6826 87.1484 68.9593 87.8313 68.236 88.5013C68.0939 88.6301 67.9518 88.759 67.8162 88.8878C67.08 89.5643 66.3437 90.2408 65.614 90.9044C62.2816 93.9195 58.975 96.7671 55.7266 99.4214C55.3262 99.7435 54.9323 100.066 54.5383 100.388C49.3073 104.608 44.2635 108.306 39.5684 111.334C30.8565 116.952 24.2046 119.773 19.6839 119.773C17.6496 119.773 16.0545 119.2 14.8856 118.06C13.6908 116.887 13.0967 115.244 13.0967 113.144C13.0967 108.641 15.8349 102.018 21.2791 93.3525C22.9647 90.6724 24.8633 87.8764 26.9558 84.9901C27.5241 86.1949 28.157 87.361 28.8415 88.5013C28.4993 88.978 28.1634 89.4483 27.8341 89.9251C26.3616 92.0189 25.0054 94.0612 23.759 96.0391C15.4087 109.324 15.3635 115.012 16.6551 116.275C17.9403 117.544 23.6428 117.415 36.8431 108.898C38.8064 107.629 40.8342 106.244 42.9073 104.749C43.3723 104.414 43.8502 104.073 44.3216 103.725C49.1975 100.149 54.3187 96.0069 59.5563 91.4262C60.4604 90.6338 61.371 89.822 62.2816 89.0038C62.4753 88.8299 62.6691 88.6495 62.8693 88.4755C63.7605 87.6702 64.6582 86.8456 65.5558 86.0209C68.9334 82.8898 72.3304 79.6041 75.7015 76.1896C78.7756 73.0778 81.7463 69.9467 84.5879 66.835C85.4145 65.933 86.2282 65.0311 87.029 64.1291C87.2034 63.9358 87.3778 63.7297 87.5521 63.5364C88.3659 62.6216 89.1602 61.7067 89.9481 60.7983C94.7852 55.1998 99.138 49.7107 102.858 44.518C103.207 44.0348 103.542 43.5581 103.872 43.0878C105.344 40.9939 106.7 38.9581 107.94 36.9802C116.291 23.6957 116.342 18.0069 115.051 16.7377C114.708 16.3963 114.03 16.1579 112.971 16.1579C110.13 16.1579 104.485 17.9038 94.8627 24.1144C92.8994 25.3836 90.8716 26.7688 88.7986 28.2634C88.3336 28.5985 87.8557 28.9399 87.3842 29.2878C86.2282 28.6242 85.0529 28.0122 83.8387 27.4581C86.6997 25.3321 89.4766 23.3993 92.1438 21.6792C104.769 13.5293 113.081 11.2744 116.82 14.9531C120.566 18.6383 118.415 26.9492 110.427 39.6668V39.6539Z" fill="url(#paint0_linear_1343_223)"/>
<path d="M21.2855 39.6539C24.2562 44.3827 27.8921 49.4659 32.0447 54.7423C32.3611 55.1418 32.684 55.5412 33.0005 55.9406C35.8356 59.4905 38.9032 63.1112 42.1581 66.7706C42.8168 67.505 43.482 68.2524 44.1601 68.9932C44.2828 69.135 44.412 69.2767 44.5411 69.412C45.2063 70.1465 45.8844 70.8809 46.569 71.6154C48.7776 73.9927 51.0573 76.3764 53.4081 78.7473C56.0301 81.4016 58.665 83.9786 61.2999 86.4654C62.0297 87.1484 62.753 87.8313 63.4763 88.5013C63.6184 88.6301 63.7604 88.759 63.8961 88.8878C64.6323 89.5643 65.3685 90.2408 66.0983 90.9044C69.4306 93.9195 72.7372 96.7671 75.9856 99.4214C76.386 99.7435 76.78 100.066 77.1739 100.388C82.405 104.608 87.4487 108.306 92.1438 111.334C100.856 116.952 107.508 119.773 112.028 119.773C114.063 119.773 115.658 119.2 116.827 118.06C118.021 116.887 118.616 115.244 118.616 113.144C118.616 108.641 115.877 102.018 110.433 93.3525C108.748 90.6724 106.849 87.8764 104.756 84.9901C104.188 86.1949 103.555 87.361 102.871 88.5013C103.213 88.978 103.549 89.4483 103.878 89.9251C105.351 92.0189 106.707 94.0612 107.953 96.0391C116.304 109.324 116.349 115.012 115.057 116.275C113.772 117.544 108.069 117.415 94.8691 108.898C92.9058 107.629 90.878 106.244 88.8049 104.749C88.34 104.414 87.8621 104.073 87.3906 103.725C82.5148 100.149 77.3935 96.0069 72.156 91.4262C71.2518 90.6338 70.3412 89.822 69.4306 89.0038C69.2369 88.8299 69.0432 88.6495 68.843 88.4755C67.9517 87.6702 67.0541 86.8456 66.1564 86.0209C62.7788 82.8898 59.3818 79.6041 56.0107 76.1896C52.9367 73.0778 49.9659 69.9467 47.1244 66.835C46.2977 65.933 45.484 65.0311 44.6832 64.1291C44.5088 63.9358 44.3345 63.7297 44.1601 63.5364C43.3464 62.6216 42.552 61.7067 41.7641 60.7983C36.927 55.1998 32.5743 49.7107 28.8544 44.518C28.5057 44.0348 28.1698 43.5581 27.8405 43.0878C26.368 40.9939 25.0118 38.9581 23.7719 36.9802C15.4215 23.6957 15.3699 18.0069 16.6615 16.7377C17.0038 16.3963 17.6819 16.1579 18.741 16.1579C21.5826 16.1579 27.227 17.9038 36.8495 24.1144C38.8128 25.3836 40.8406 26.7688 42.9137 28.2634C43.3787 28.5985 43.8566 28.9399 44.328 29.2878C45.484 28.6242 46.6594 28.0122 47.8735 27.4581C45.0126 25.3321 42.2356 23.3993 39.5684 21.6792C26.9428 13.5293 18.6312 11.2744 14.892 14.9531C11.1463 18.6383 13.2968 26.9492 21.2855 39.6668V39.6539Z" fill="url(#paint1_linear_1343_223)"/>
<defs>
<linearGradient id="paint0_linear_1343_223" x1="32.7422" y1="37.1864" x2="133.88" y2="127.154" gradientUnits="userSpaceOnUse">
<stop offset="0.11" stop-color="#F9B7E6"/>
<stop offset="0.15" stop-color="#D49BEB"/>
<stop offset="0.2" stop-color="#AE7DF1"/>
<stop offset="0.26" stop-color="#8E65F6"/>
<stop offset="0.31" stop-color="#7552FA"/>
<stop offset="0.37" stop-color="#6344FC"/>
<stop offset="0.43" stop-color="#593CFE"/>
<stop offset="0.5" stop-color="#563AFF"/>
</linearGradient>
<linearGradient id="paint1_linear_1343_223" x1="98.97" y1="37.1864" x2="-2.16807" y2="127.154" gradientUnits="userSpaceOnUse">
<stop offset="0.13" stop-color="#F9B7E6"/>
<stop offset="0.16" stop-color="#D49BEB"/>
<stop offset="0.21" stop-color="#AE7DF1"/>
<stop offset="0.26" stop-color="#8E65F6"/>
<stop offset="0.32" stop-color="#7552FA"/>
<stop offset="0.37" stop-color="#6344FC"/>
<stop offset="0.43" stop-color="#593CFE"/>
<stop offset="0.5" stop-color="#563AFF"/>
</linearGradient>
</defs>
</svg>
