<svg width="546" height="225" viewBox="0 0 546 225" fill="none" xmlns="http://www.w3.org/2000/svg">
<path d="M-52 194.334C68.9779 181.043 -19.9144 129.862 90.7055 97.8492C205.268 64.6951 234.251 204.165 344.465 166.154C415.917 141.512 471.758 41.9012 543.918 18" stroke="#53D258" stroke-linecap="round"/>
<path d="M92.7875 96.8493C-17.8324 128.862 71.0599 180.043 -49.918 193.334V353.05H546V17C473.84 40.9012 417.999 140.512 346.547 165.154C236.333 203.165 207.35 63.6951 92.7875 96.8493Z" fill="url(#paint0_linear_841_42)"/>
<path d="M41.684 14.472C41.684 16.542 40.226 17.856 38.102 18.126V19.494H36.464V18.126C34.106 17.874 32.702 16.38 32.702 14.13H34.718C34.718 15.516 35.834 16.272 37.256 16.272C38.552 16.272 39.65 15.57 39.65 14.49C39.65 13.302 38.39 13.014 36.932 12.69C35.06 12.258 32.9 11.754 32.9 9.198C32.9 7.254 34.214 6.03 36.32 5.778V4.5H37.994V5.778C40.118 6.066 41.324 7.452 41.324 9.54H39.362C39.362 8.28 38.372 7.596 37.094 7.596C35.906 7.596 34.898 8.136 34.898 9.108C34.898 10.206 36.122 10.494 37.544 10.836C39.452 11.286 41.684 11.826 41.684 14.472ZM46.7267 16.164H51.1907V18H43.0007V17.478C48.2387 11.772 48.8687 10.782 48.8687 9.414C48.8687 8.352 48.1487 7.65 47.0687 7.65C45.9527 7.65 45.1967 8.37 45.1967 9.432V9.702H43.2527V9.414C43.2527 7.272 44.7827 5.814 47.0687 5.814C49.2827 5.814 50.8307 7.29 50.8307 9.396C50.8307 10.98 50.2187 12.258 46.7267 16.164ZM61.3455 13.86V15.588H60.1755V18H58.3215V15.588H52.3455V15.192L56.4495 6.03H58.4295L54.9195 13.86H58.3575L58.6635 10.53H60.1755V13.86H61.3455ZM67.6432 10.53C69.5152 10.854 70.7572 12.33 70.7572 14.256C70.7572 16.56 68.9932 18.216 66.6352 18.216C64.3672 18.216 62.7112 16.65 62.6212 14.4H64.5472C64.6192 15.588 65.4652 16.398 66.6352 16.398C67.8952 16.398 68.7952 15.48 68.7952 14.184C68.7952 12.906 67.8232 12.024 66.4552 12.024H64.9432V11.664L67.4272 7.812H62.9632V6.03H70.2892V6.444L67.6432 10.53ZM72.8991 20.592V19.566C73.7091 19.368 74.0331 18.774 74.0331 18H72.7911V15.732H75.0591V17.838C75.0591 19.44 74.2311 20.34 72.8991 20.592ZM81.8237 10.134C84.0017 10.134 85.8557 11.682 85.8557 14.04C85.8557 16.488 84.0197 18.216 81.4817 18.216C78.8897 18.216 77.0717 16.488 77.0717 14.04C77.0717 12.924 77.4677 11.682 78.3497 10.152L80.7437 5.958H82.8857C81.4277 8.532 80.8877 9.468 80.3837 10.422C80.8517 10.224 81.3377 10.134 81.8237 10.134ZM81.4637 16.398C82.8677 16.398 83.8937 15.426 83.8937 14.04C83.8937 12.654 82.8677 11.7 81.4637 11.7C80.0597 11.7 79.0337 12.672 79.0337 14.04C79.0337 15.408 80.0597 16.398 81.4637 16.398ZM92.0031 18.216C89.1051 18.216 87.2691 15.822 87.2691 12.006C87.2691 8.19 89.0871 5.814 92.0031 5.814C94.9191 5.814 96.7191 8.19 96.7191 12.006C96.7191 15.822 94.9011 18.216 92.0031 18.216ZM92.0031 16.398C93.7311 16.398 94.7571 14.796 94.7571 12.024C94.7571 9.252 93.7311 7.65 92.0031 7.65C90.2751 7.65 89.2311 9.252 89.2311 12.006C89.2311 14.778 90.2571 16.398 92.0031 16.398ZM103.288 18.216C100.39 18.216 98.5543 15.822 98.5543 12.006C98.5543 8.19 100.372 5.814 103.288 5.814C106.204 5.814 108.004 8.19 108.004 12.006C108.004 15.822 106.186 18.216 103.288 18.216ZM103.288 16.398C105.016 16.398 106.042 14.796 106.042 12.024C106.042 9.252 105.016 7.65 103.288 7.65C101.56 7.65 100.516 9.252 100.516 12.006C100.516 14.778 101.542 16.398 103.288 16.398Z" fill="#F5F5F5"/>
<g clip-path="url(#clip0_841_42)">
<path d="M39.5 31.3333V40.6666" stroke="#52FF00" stroke-linecap="round" stroke-linejoin="round"/>
<path d="M42 33.9999L39.5 31.3333" stroke="#52FF00" stroke-linecap="round" stroke-linejoin="round"/>
<path d="M37 33.9999L39.5 31.3333" stroke="#52FF00" stroke-linecap="round" stroke-linejoin="round"/>
</g>
<path d="M52.784 34.56V35.112H50.384V37.596H49.808V35.112H47.396V34.56H49.808V32.124H50.384V34.56H52.784ZM53.3349 31.02H55.5909V39H55.0269V31.56H53.3349V31.02ZM60.5398 39.132C58.7038 39.132 57.5398 37.548 57.5398 35.016C57.5398 32.472 58.6918 30.9 60.5398 30.9C62.3758 30.9 63.5278 32.472 63.5278 35.016C63.5278 37.548 62.3638 39.132 60.5398 39.132ZM60.5398 38.592C62.0278 38.592 62.9518 37.236 62.9518 35.016C62.9518 32.796 62.0278 31.44 60.5398 31.44C59.0398 31.44 58.1158 32.796 58.1158 35.016C58.1158 37.236 59.0398 38.592 60.5398 38.592ZM64.7973 40.404V39.996C65.1453 39.816 65.2653 39.54 65.2653 39H64.7613V38.1H65.6253V38.94C65.6253 39.756 65.3613 40.152 64.7973 40.404ZM66.2841 31.02H71.5041V31.164L68.3001 39H67.6761L70.7361 31.548H66.2841V31.02ZM77.1864 36.72V37.236H76.2384V39H75.6744V37.236H71.4384V37.044L74.3544 30.996H74.9544L72.2064 36.72H75.6744V33.924H76.2384V36.72H77.1864ZM79.4167 34.368C78.3967 34.368 77.6887 33.66 77.6887 32.652C77.6887 31.644 78.3967 30.924 79.4167 30.924C80.4367 30.924 81.1447 31.644 81.1447 32.652C81.1447 33.66 80.4367 34.368 79.4167 34.368ZM78.9607 39.012L83.7967 31.008H84.3847L79.5607 39.012H78.9607ZM79.4167 33.912C80.1487 33.912 80.6767 33.384 80.6767 32.652C80.6767 31.908 80.1487 31.392 79.4167 31.392C78.6847 31.392 78.1567 31.908 78.1567 32.652C78.1567 33.384 78.6847 33.912 79.4167 33.912ZM84.0967 39.084C83.0887 39.084 82.3807 38.376 82.3807 37.38C82.3807 36.384 83.0887 35.676 84.0967 35.676C85.1047 35.676 85.8127 36.384 85.8127 37.38C85.8127 38.376 85.1047 39.084 84.0967 39.084ZM84.0967 38.616C84.8287 38.616 85.3327 38.112 85.3327 37.38C85.3327 36.648 84.8287 36.144 84.0967 36.144C83.3647 36.144 82.8487 36.648 82.8487 37.38C82.8487 38.112 83.3647 38.616 84.0967 38.616Z" fill="#53D258"/>
<line x1="487.5" y1="52" x2="487.5" y2="225" stroke="white" stroke-opacity="0.21" stroke-dasharray="6 6"/>
<circle cx="488" cy="51" r="2" fill="#53D258"/>
<path d="M428.712 41.08V41.816H425.512V45.128H424.744V41.816H421.528V41.08H424.744V37.832H425.512V41.08H428.712Z" fill="#52FF00"/>
<path d="M441.768 44.056C441.768 45.8 440.456 47.016 438.472 47.128V48.536H437.8V47.128C435.624 47.016 434.296 45.704 434.296 43.736H435.096C435.096 45.368 436.328 46.376 438.136 46.376C439.768 46.376 440.984 45.432 440.984 44.056C440.984 42.504 439.56 42.184 438.024 41.864C436.36 41.496 434.52 41.096 434.52 39.016C434.52 37.32 435.768 36.232 437.704 36.12V34.792H438.408V36.12C440.296 36.248 441.48 37.448 441.48 39.272H440.712C440.712 37.768 439.608 36.856 438.04 36.856C436.408 36.856 435.304 37.688 435.304 38.984C435.304 40.456 436.728 40.744 438.232 41.096C439.944 41.464 441.768 41.896 441.768 44.056ZM448.646 41.272C449.83 41.704 450.598 42.744 450.598 44.056C450.598 45.896 449.11 47.176 446.95 47.176C444.789 47.176 443.318 45.928 443.318 44.056C443.318 42.76 444.07 41.72 445.27 41.272C444.342 40.856 443.766 39.96 443.766 38.872C443.766 37.288 445.062 36.2 446.95 36.2C448.854 36.2 450.134 37.288 450.134 38.872C450.134 39.96 449.542 40.872 448.646 41.272ZM444.518 38.872C444.518 40.152 445.542 40.952 446.95 40.952C448.358 40.952 449.382 40.152 449.382 38.872C449.382 37.688 448.406 36.856 446.95 36.856C445.494 36.856 444.518 37.688 444.518 38.872ZM446.95 46.488C448.662 46.488 449.814 45.512 449.814 44.088C449.814 42.568 448.614 41.624 446.95 41.624C445.286 41.624 444.086 42.568 444.086 44.088C444.086 45.512 445.238 46.488 446.95 46.488ZM456.428 47.176C453.98 47.176 452.428 45.064 452.428 41.688C452.428 38.296 453.964 36.2 456.428 36.2C458.876 36.2 460.412 38.296 460.412 41.688C460.412 45.064 458.86 47.176 456.428 47.176ZM456.428 46.456C458.412 46.456 459.644 44.648 459.644 41.688C459.644 38.728 458.412 36.92 456.428 36.92C454.428 36.92 453.196 38.728 453.196 41.688C453.196 44.648 454.428 46.456 456.428 46.456ZM462.105 48.872V48.328C462.569 48.088 462.729 47.72 462.729 47H462.057V45.8H463.209V46.92C463.209 48.008 462.857 48.536 462.105 48.872ZM468.866 47.176C466.418 47.176 464.866 45.064 464.866 41.688C464.866 38.296 466.402 36.2 468.866 36.2C471.314 36.2 472.85 38.296 472.85 41.688C472.85 45.064 471.298 47.176 468.866 47.176ZM468.866 46.456C470.85 46.456 472.082 44.648 472.082 41.688C472.082 38.728 470.85 36.92 468.866 36.92C466.866 36.92 465.634 38.728 465.634 41.688C465.634 44.648 466.866 46.456 468.866 46.456ZM478.725 47.176C476.277 47.176 474.725 45.064 474.725 41.688C474.725 38.296 476.261 36.2 478.725 36.2C481.173 36.2 482.709 38.296 482.709 41.688C482.709 45.064 481.157 47.176 478.725 47.176ZM478.725 46.456C480.709 46.456 481.941 44.648 481.941 41.688C481.941 38.728 480.709 36.92 478.725 36.92C476.725 36.92 475.493 38.728 475.493 41.688C475.493 44.648 476.725 46.456 478.725 46.456ZM488.584 47.176C486.136 47.176 484.584 45.064 484.584 41.688C484.584 38.296 486.12 36.2 488.584 36.2C491.032 36.2 492.568 38.296 492.568 41.688C492.568 45.064 491.016 47.176 488.584 47.176ZM488.584 46.456C490.568 46.456 491.8 44.648 491.8 41.688C491.8 38.728 490.568 36.92 488.584 36.92C486.584 36.92 485.352 38.728 485.352 41.688C485.352 44.648 486.584 46.456 488.584 46.456Z" fill="white"/>
<defs>
<linearGradient id="paint0_linear_841_42" x1="246.757" y1="-301.712" x2="246.757" y2="197.829" gradientUnits="userSpaceOnUse">
<stop stop-color="#53D258" stop-opacity="0.82"/>
<stop offset="1" stop-color="#53D258" stop-opacity="0"/>
</linearGradient>
<clipPath id="clip0_841_42">
<rect width="15" height="16" fill="white" transform="translate(32 28)"/>
</clipPath>
</defs>
</svg>
