<?xml version="1.0" standalone="no"?>
<!DOCTYPE svg PUBLIC "-//W3C//DTD SVG 20010904//EN"
 "http://www.w3.org/TR/2001/REC-SVG-20010904/DTD/svg10.dtd">
<svg version="1.0" xmlns="http://www.w3.org/2000/svg"
 width="200.000000pt" height="200.000000pt" viewBox="0 0 200.000000 200.000000"
 preserveAspectRatio="xMidYMid meet">

<g transform="translate(0.000000,200.000000) scale(0.100000,-0.100000)"
fill="#000000" stroke="none">
<path d="M0 1000 l0 -1000 1000 0 1000 0 0 1000 0 1000 -1000 0 -1000 0 0
-1000z m1352 338 l287 -3 -40 -95 c-22 -52 -51 -124 -65 -160 -28 -74 -49 -98
-186 -213 l-98 -82 6 -40 c4 -22 17 -107 29 -190 l22 -150 -30 -3 c-16 -2 -30
-2 -32 0 -2 2 -15 82 -30 178 -14 96 -27 176 -30 178 -2 2 -34 4 -72 3 -37 0
-73 3 -79 7 -6 4 -22 37 -36 75 -25 64 -26 68 -8 77 34 18 46 11 64 -40 l18
-50 67 0 67 0 124 108 125 109 42 99 c23 54 45 107 49 117 6 16 -11 17 -257
17 l-264 0 -40 65 c-22 36 -42 65 -45 65 -3 0 -19 -48 -34 -107 -16 -60 -55
-198 -87 -308 l-57 -200 -77 -3 -77 -3 -33 -72 c-18 -40 -51 -110 -74 -157
l-40 -85 249 -3 250 -2 0 -35 0 -35 -305 0 -304 0 48 102 c27 57 76 160 109
231 l61 127 70 0 70 0 15 53 c8 28 21 77 29 107 21 81 147 543 153 559 3 9 38
-39 82 -112 l77 -127 287 -2z m-182 -198 c21 -40 -9 -78 -51 -65 -24 8 -35 50
-19 70 18 22 57 19 70 -5z"/>
</g>
</svg>
